<?xml version="1.0" encoding="UTF-8"?>
<!DOCTYPE svg PUBLIC "-//W3C//DTD SVG 1.1//EN" "http://www.w3.org/Graphics/SVG/1.1/DTD/svg11.dtd">
<svg xmlns="http://www.w3.org/2000/svg" version="1.1" width="500px" height="500px" style="shape-rendering:geometricPrecision; text-rendering:geometricPrecision; image-rendering:optimizeQuality; fill-rule:evenodd; clip-rule:evenodd" xmlns:xlink="http://www.w3.org/1999/xlink">
<g><path style="opacity:1" fill="#cec6c2" d="M 212.5,80.5 C 211.5,80.5 210.5,80.5 209.5,80.5C 209.198,83.0593 209.532,85.3926 210.5,87.5C 208.691,93.4021 207.191,99.4021 206,105.5C 205.329,106.252 204.496,106.586 203.5,106.5C 203.5,106.167 203.5,105.833 203.5,105.5C 204.549,100.2 205.049,94.8666 205,89.5C 205.185,85.4887 203.352,83.4887 199.5,83.5C 199.167,90.1667 198.833,96.8333 198.5,103.5C 198.167,103.5 197.833,103.5 197.5,103.5C 197.56,94.4875 197.893,85.4875 198.5,76.5C 183.889,81.3706 169.222,86.0373 154.5,90.5C 167.62,85.4013 180.954,80.568 194.5,76C 201.056,75.4544 207.056,76.9544 212.5,80.5 Z"/></g>
<g><path style="opacity:1" fill="#ac9f97" d="M 212.5,80.5 C 215.397,81.129 218.064,82.129 220.5,83.5C 219.552,84.9779 218.219,85.9779 216.5,86.5C 214.5,86.8333 212.5,87.1667 210.5,87.5C 209.532,85.3926 209.198,83.0593 209.5,80.5C 210.5,80.5 211.5,80.5 212.5,80.5 Z"/></g>
<g><path style="opacity:1" fill="#f0d6a4" d="M 247.5,121.5 C 247.419,113.653 247.419,105.986 247.5,98.5C 243.782,94.615 239.782,90.9484 235.5,87.5C 234.897,90.8278 233.23,91.8278 230.5,90.5C 227.885,89.7094 225.218,89.0427 222.5,88.5C 220.703,87.2702 218.703,86.6036 216.5,86.5C 218.219,85.9779 219.552,84.9779 220.5,83.5C 224.131,82.588 227.797,82.4213 231.5,83C 236.917,85.7903 242.084,88.957 247,92.5C 248.116,97.5583 248.616,102.725 248.5,108C 248.499,112.68 248.166,117.18 247.5,121.5 Z"/></g>
<g><path style="opacity:1" fill="#eeedee" d="M 216.5,86.5 C 218.703,86.6036 220.703,87.2702 222.5,88.5C 224.168,90.4786 224.834,92.812 224.5,95.5C 224.492,98.5448 224.159,101.545 223.5,104.5C 217.26,139.993 212.26,175.66 208.5,211.5C 207.698,210.048 207.198,208.382 207,206.5C 206.727,208.101 206.227,209.601 205.5,211C 206.634,212.016 206.301,212.683 204.5,213C 205.517,214.049 205.684,215.216 205,216.5C 204.667,216.167 204.333,215.833 204,215.5C 204.122,218.966 202.789,221.632 200,223.5C 198.75,222.427 197.416,222.427 196,223.5C 192.956,225.008 191.123,227.008 190.5,229.5C 188.632,229.054 186.799,228.721 185,228.5C 182.833,230 183,231.167 185.5,232C 171.764,235.168 157.764,237.168 143.5,238C 130.874,241.764 118.374,245.931 106,250.5C 104.644,249.62 103.144,249.286 101.5,249.5C 100.833,249.167 100.167,248.833 99.5,248.5C 94.1209,249.81 88.7876,251.31 83.5,253C 80.4737,258.913 78.1404,265.08 76.5,271.5C 77.0782,273.38 78.4115,274.38 80.5,274.5C 85.9069,273.289 90.9069,271.289 95.5,268.5C 98.4553,264.61 100.955,260.277 103,255.5C 104.019,256.687 105.186,257.687 106.5,258.5C 115.514,254.16 124.848,250.66 134.5,248C 138.423,247.207 142.256,247.374 146,248.5C 147.133,246.789 148.633,246.289 150.5,247C 149.09,247.368 148.09,248.201 147.5,249.5C 148.909,249.822 150.409,250.822 152,252.5C 152.464,255.853 151.797,258.853 150,261.5C 149.667,261.167 149.333,260.833 149,260.5C 147.992,262.259 146.492,263.426 144.5,264C 145.345,265.558 144.679,266.558 142.5,267C 143.167,267.333 143.833,267.667 144.5,268C 142.408,270.165 140.074,271.165 137.5,271C 138.022,271.561 138.355,272.228 138.5,273C 136.789,276.632 134.289,279.466 131,281.5C 130.217,283.433 130.717,284.933 132.5,286C 131.062,286.219 129.729,286.719 128.5,287.5C 129.629,289.529 129.129,289.863 127,288.5C 126.536,289.094 126.369,289.761 126.5,290.5C 113.832,292.138 101.332,294.472 89,297.5C 88.3131,295.432 88.4798,293.432 89.5,291.5C 88.3112,290.571 86.9778,290.238 85.5,290.5C 80.046,291.483 74.7127,292.983 69.5,295C 68.1328,297.301 67.4661,299.801 67.5,302.5C 66.5489,303.919 66.2155,305.585 66.5,307.5C 64.9821,309.681 63.9821,312.181 63.5,315C 64,316.833 65.1667,318 67,318.5C 72.4626,316.962 77.6293,314.962 82.5,312.5C 83.9432,311.665 84.9432,310.332 85.5,308.5C 86.1667,306.167 86.8333,303.833 87.5,301.5C 88.9385,302.063 90.4385,302.397 92,302.5C 96.8199,301.669 101.653,301.002 106.5,300.5C 107.028,301.721 107.695,302.887 108.5,304C 108.167,304.333 107.833,304.667 107.5,305C 108.5,305.333 109.5,305.667 110.5,306C 108.892,306.469 107.225,307.135 105.5,308C 106.167,308.333 106.833,308.667 107.5,309C 106.891,311.51 105.558,313.51 103.5,315C 104.517,316.049 104.684,317.216 104,318.5C 102.114,319.978 99.9477,321.145 97.5,322C 99.0441,322.29 100.377,322.956 101.5,324C 95.656,323.763 94.656,325.43 98.5,329C 97.1509,329.772 96.3176,330.939 96,332.5C 95.6667,331.833 95.3333,331.167 95,330.5C 94.3333,333.167 93.6667,335.833 93,338.5C 92.6667,338.167 92.3333,337.833 92,337.5C 91.6824,339.061 90.8491,340.228 89.5,341C 89.5,342.667 89.5,344.333 89.5,346C 87.0411,346.724 86.0411,348.057 86.5,350C 85.8333,350.667 85.1667,351.333 84.5,352C 85.5976,353.973 85.4309,356.14 84,358.5C 82.2866,359.878 80.9533,361.545 80,363.5C 79.6667,362.5 79.3333,361.5 79,360.5C 78.7266,362.101 78.2266,363.601 77.5,365C 78.9423,365.377 79.9423,366.21 80.5,367.5C 74.4164,368.854 68.4164,370.521 62.5,372.5C 59.8598,374.879 59.8598,377.379 62.5,380C 67.1483,382.437 71.9817,383.271 77,382.5C 78.0299,382.836 78.5299,383.503 78.5,384.5C 77.8333,384.833 77.1667,385.167 76.5,385.5C 74.2143,385.595 72.2143,386.262 70.5,387.5C 65.3335,389.349 60.0001,389.849 54.5,389C 50.4374,386.342 48.7707,382.509 49.5,377.5C 39.9128,380.382 34.9128,376.882 34.5,367C 36.52,350.086 40.3534,333.586 46,317.5C 52.7837,300.599 60.117,283.932 68,267.5C 75.5029,250.158 80.8362,232.158 84,213.5C 87.3465,190.711 90.5131,168.045 93.5,145.5C 94.8359,135.832 99.5026,128.165 107.5,122.5C 108.362,121.234 109.029,119.901 109.5,118.5C 110.309,121.543 111.642,124.376 113.5,127C 116.579,128.09 118.912,127.257 120.5,124.5C 121.894,126.984 123.394,126.984 125,124.5C 127.772,124.693 130.606,125.36 133.5,126.5C 125.301,128.844 117.301,131.677 109.5,135C 112.738,136.368 116.072,136.701 119.5,136C 148.077,127.421 176.077,117.588 203.5,106.5C 204.496,106.586 205.329,106.252 206,105.5C 207.191,99.4021 208.691,93.4021 210.5,87.5C 212.5,87.1667 214.5,86.8333 216.5,86.5 Z"/></g>
<g><path style="opacity:1" fill="#dcdbda" d="M 203.5,105.5 C 201.447,105.598 199.78,104.931 198.5,103.5C 198.833,96.8333 199.167,90.1667 199.5,83.5C 203.352,83.4887 205.185,85.4887 205,89.5C 205.049,94.8666 204.549,100.2 203.5,105.5 Z"/></g>
<g><path style="opacity:1" fill="#e4e7eb" d="M 197.5,103.5 C 196.942,104.79 195.942,105.623 194.5,106C 174.101,112.744 153.768,119.577 133.5,126.5C 130.606,125.36 127.772,124.693 125,124.5C 123.394,126.984 121.894,126.984 120.5,124.5C 118.912,127.257 116.579,128.09 113.5,127C 111.642,124.376 110.309,121.543 109.5,118.5C 109.5,115.167 109.5,111.833 109.5,108.5C 109.328,107.508 109.662,106.842 110.5,106.5C 125.251,101.921 139.584,96.5877 153.5,90.5C 153.833,90.5 154.167,90.5 154.5,90.5C 169.222,86.0373 183.889,81.3706 198.5,76.5C 197.893,85.4875 197.56,94.4875 197.5,103.5 Z"/></g>
<g><path style="opacity:0.999" fill="#e9ca82" d="M 247.5,121.5 C 247.5,125.167 247.5,128.833 247.5,132.5C 248.5,132.5 249.5,132.5 250.5,132.5C 249.432,133.434 248.099,133.768 246.5,133.5C 246.342,143.215 245.676,152.881 244.5,162.5C 243.907,165.5 243.074,168.5 242,171.5C 241.293,169.919 240.46,168.419 239.5,167C 238.519,160.509 238.519,154.009 239.5,147.5C 239,146.5 238.5,145.5 238,144.5C 233.883,167.997 230.883,191.663 229,215.5C 228.502,212.183 228.335,208.85 228.5,205.5C 229.802,172.65 231.469,139.816 233.5,107C 233.333,102.5 233.167,98 233,93.5C 231.955,92.6266 231.122,91.6266 230.5,90.5C 233.23,91.8278 234.897,90.8278 235.5,87.5C 239.782,90.9484 243.782,94.615 247.5,98.5C 247.419,105.986 247.419,113.653 247.5,121.5 Z"/></g>
<g><path style="opacity:1" fill="#dcc4c0" d="M 153.5,90.5 C 139.584,96.5877 125.251,101.921 110.5,106.5C 124.416,100.412 138.749,95.079 153.5,90.5 Z"/></g>
<g><path style="opacity:1" fill="#abaaab" d="M 197.5,103.5 C 197.833,103.5 198.167,103.5 198.5,103.5C 199.78,104.931 201.447,105.598 203.5,105.5C 203.5,105.833 203.5,106.167 203.5,106.5C 176.077,117.588 148.077,127.421 119.5,136C 116.072,136.701 112.738,136.368 109.5,135C 117.301,131.677 125.301,128.844 133.5,126.5C 153.768,119.577 174.101,112.744 194.5,106C 195.942,105.623 196.942,104.79 197.5,103.5 Z"/></g>
<g><path style="opacity:1" fill="#c2beba" d="M 294.5,124.5 C 293.448,124.351 292.448,124.517 291.5,125C 293.441,126.903 295.774,127.736 298.5,127.5C 298.833,131.5 299.167,131.5 299.5,127.5C 302.598,127.413 302.932,127.913 300.5,129C 302.301,129.317 302.634,129.984 301.5,131C 302.667,132.5 303.833,134 305,135.5C 305.333,135.167 305.667,134.833 306,134.5C 308.398,135.856 310.898,137.023 313.5,138C 313.167,138.333 312.833,138.667 312.5,139C 313.667,139.5 314.5,140.333 315,141.5C 315.333,141.167 315.667,140.833 316,140.5C 316.483,141.448 316.649,142.448 316.5,143.5C 319.44,143.252 321.44,144.252 322.5,146.5C 324.302,147.986 326.302,148.986 328.5,149.5C 328.281,150.675 328.614,151.675 329.5,152.5C 331.707,152.891 333.04,153.558 333.5,154.5C 310.295,152.225 287.295,148.892 264.5,144.5C 264.529,138.79 264.029,133.123 263,127.5C 262.95,125.256 262.117,123.589 260.5,122.5C 261.392,120.286 263.058,119.286 265.5,119.5C 275.353,120.903 285.019,122.57 294.5,124.5 Z"/></g>
<g><path style="opacity:1" fill="#f5dbbe" d="M 109.5,108.5 C 109.5,111.833 109.5,115.167 109.5,118.5C 109.029,119.901 108.362,121.234 107.5,122.5C 99.5026,128.165 94.8359,135.832 93.5,145.5C 93.4661,139.704 94.2994,134.037 96,128.5C 96.8834,125.898 98.3834,123.731 100.5,122C 103.308,121.402 105.808,120.235 108,118.5C 108.179,114.975 108.679,111.641 109.5,108.5 Z"/></g>
<g><path style="opacity:1" fill="#bab5b1" d="M 294.5,124.5 C 318.899,127.486 343.232,130.986 367.5,135C 369.333,135.5 370.5,136.667 371,138.5C 371.61,141.827 372.11,145.161 372.5,148.5C 372.5,149.167 372.5,149.833 372.5,150.5C 373.444,153.999 373.444,157.332 372.5,160.5C 359.306,158.896 346.306,156.896 333.5,154.5C 333.04,153.558 331.707,152.891 329.5,152.5C 328.614,151.675 328.281,150.675 328.5,149.5C 326.302,148.986 324.302,147.986 322.5,146.5C 321.44,144.252 319.44,143.252 316.5,143.5C 316.649,142.448 316.483,141.448 316,140.5C 315.667,140.833 315.333,141.167 315,141.5C 314.5,140.333 313.667,139.5 312.5,139C 312.833,138.667 313.167,138.333 313.5,138C 310.898,137.023 308.398,135.856 306,134.5C 305.667,134.833 305.333,135.167 305,135.5C 303.833,134 302.667,132.5 301.5,131C 302.634,129.984 302.301,129.317 300.5,129C 302.932,127.913 302.598,127.413 299.5,127.5C 299.167,131.5 298.833,131.5 298.5,127.5C 295.774,127.736 293.441,126.903 291.5,125C 292.448,124.517 293.448,124.351 294.5,124.5 Z"/></g>
<g><path style="opacity:1" fill="#e2e0dc" d="M 260.5,122.5 C 262.117,123.589 262.95,125.256 263,127.5C 264.029,133.123 264.529,138.79 264.5,144.5C 263.279,142.058 261.779,139.058 260,135.5C 259.595,140.239 260.429,144.739 262.5,149C 294.04,154.744 325.707,159.744 357.5,164C 361.5,164.667 365.5,164.667 369.5,164C 370.71,162.961 371.71,161.794 372.5,160.5C 373.444,157.332 373.444,153.999 372.5,150.5C 383.376,151.723 390.71,157.389 394.5,167.5C 398.581,188.241 402.915,208.908 407.5,229.5C 390.552,217.512 371.885,213.179 351.5,216.5C 350.209,216.263 349.209,216.596 348.5,217.5C 342.406,218.435 336.739,220.435 331.5,223.5C 321.606,222.89 311.94,221.224 302.5,218.5C 302.393,220.903 303.393,222.736 305.5,224C 312.378,224.746 319.045,225.912 325.5,227.5C 313.507,236.815 305.507,248.815 301.5,263.5C 299.877,259.71 298.544,255.71 297.5,251.5C 289.855,250.335 282.188,250.169 274.5,251C 273.748,251.671 273.414,252.504 273.5,253.5C 273.167,253.5 272.833,253.5 272.5,253.5C 269.029,253.101 268.696,251.601 271.5,249C 269.455,246.005 268.788,242.838 269.5,239.5C 268.535,238.086 267.535,237.253 266.5,237C 267.098,235.699 268.098,234.865 269.5,234.5C 271.432,235.52 273.432,235.687 275.5,235C 272.307,233.262 269.141,232.429 266,232.5C 264.292,227.588 261.458,223.421 257.5,220C 259.901,219.195 259.734,218.362 257,217.5C 256.383,216.551 256.549,215.718 257.5,215C 256.151,214.228 255.318,213.061 255,211.5C 254.667,211.833 254.333,212.167 254,212.5C 252.517,208.813 250.851,204.813 249,200.5C 248.617,201.056 248.117,201.389 247.5,201.5C 246.501,195.509 245.501,189.509 244.5,183.5C 244.5,176.5 244.5,169.5 244.5,162.5C 245.676,152.881 246.342,143.215 246.5,133.5C 248.099,133.768 249.432,133.434 250.5,132.5C 253.5,128.833 256.833,125.5 260.5,122.5 Z"/></g>
<g><path style="opacity:1" fill="#dad9da" d="M 191.5,138.5 C 193.5,138.5 195.5,138.5 197.5,138.5C 197.673,142.17 196.007,144.67 192.5,146C 173.987,151.505 155.487,157.005 137,162.5C 136.167,162.333 135.333,162.167 134.5,162C 137.115,161.145 139.448,159.812 141.5,158C 157.82,153.755 173.82,148.588 189.5,142.5C 190.362,141.234 191.029,139.901 191.5,138.5 Z"/></g>
<g><path style="opacity:1" fill="#878078" d="M 264.5,144.5 C 287.295,148.892 310.295,152.225 333.5,154.5C 346.306,156.896 359.306,158.896 372.5,160.5C 371.71,161.794 370.71,162.961 369.5,164C 365.5,164.667 361.5,164.667 357.5,164C 325.707,159.744 294.04,154.744 262.5,149C 260.429,144.739 259.595,140.239 260,135.5C 261.779,139.058 263.279,142.058 264.5,144.5 Z"/></g>
<g><path style="opacity:0.997" fill="#eecd91" d="M 372.5,148.5 C 386.766,146.95 394.1,153.283 394.5,167.5C 390.71,157.389 383.376,151.723 372.5,150.5C 372.5,149.833 372.5,149.167 372.5,148.5 Z"/></g>
<g><path style="opacity:1" fill="#bdd6e8" d="M 123.5,154.5 C 122.401,161.162 121.235,167.829 120,174.5C 115.029,176.535 109.862,177.868 104.5,178.5C 105.5,171.836 106.5,165.169 107.5,158.5C 112.778,156.963 118.112,155.63 123.5,154.5 Z"/></g>
<g><path style="opacity:1" fill="#81c165" d="M 120.5,160.5 C 120.611,161.117 120.944,161.617 121.5,162C 119.611,166.29 117.111,170.123 114,173.5C 112.588,172.314 111.421,170.981 110.5,169.5C 110.5,168.833 110.5,168.167 110.5,167.5C 111.847,168.028 113.181,168.195 114.5,168C 116.178,165.086 118.178,162.586 120.5,160.5 Z"/></g>
<g><path style="opacity:1" fill="#6aa0cc" d="M 120.5,159.5 C 114.358,158.882 111.025,161.548 110.5,167.5C 110.5,168.167 110.5,168.833 110.5,169.5C 109.781,171.764 109.448,174.097 109.5,176.5C 108.5,176.5 107.5,176.5 106.5,176.5C 107.328,170.855 107.994,165.188 108.5,159.5C 112.034,159.076 115.534,158.409 119,157.5C 121.359,157.324 121.859,157.991 120.5,159.5 Z"/></g>
<g><path style="opacity:1" fill="#d9dddf" d="M 120.5,159.5 C 121.833,159.833 121.833,160.167 120.5,160.5C 118.178,162.586 116.178,165.086 114.5,168C 113.181,168.195 111.847,168.028 110.5,167.5C 111.025,161.548 114.358,158.882 120.5,159.5 Z"/></g>
<g><path style="opacity:1" fill="#8db8df" d="M 123.5,154.5 C 124.995,154.415 125.995,155.081 126.5,156.5C 125.103,163.111 123.936,169.777 123,176.5C 117.88,178.24 112.713,179.907 107.5,181.5C 106.145,180.812 105.145,179.812 104.5,178.5C 109.862,177.868 115.029,176.535 120,174.5C 121.235,167.829 122.401,161.162 123.5,154.5 Z"/></g>
<g><path style="opacity:1" fill="#8eb3d6" d="M 261.5,169.5 C 268.484,170.313 275.484,170.98 282.5,171.5C 283.5,178.167 284.5,184.833 285.5,191.5C 278.5,191.077 271.5,190.577 264.5,190C 261.802,183.326 260.802,176.492 261.5,169.5 Z"/></g>
<g><path style="opacity:1" fill="#5f8ab6" d="M 281.5,187.5 C 281.46,184.012 280.793,180.679 279.5,177.5C 279.5,177.167 279.5,176.833 279.5,176.5C 279.389,175.883 279.056,175.383 278.5,175C 273.785,174.719 269.118,174.219 264.5,173.5C 264.369,172.624 264.702,171.957 265.5,171.5C 270.435,172.448 275.435,172.781 280.5,172.5C 281.057,177.45 282.057,182.283 283.5,187C 282.906,187.464 282.239,187.631 281.5,187.5 Z"/></g>
<g><path style="opacity:1" fill="#d39636" d="M 226.5,99.5 C 228.055,103.203 228.722,107.203 228.5,111.5C 228.24,116.844 227.907,122.177 227.5,127.5C 226.273,138.341 225.106,149.341 224,160.5C 223.681,182.37 222.515,204.037 220.5,225.5C 220.695,188.688 223.029,152.021 227.5,115.5C 227.272,113.793 226.938,112.126 226.5,110.5C 226.5,106.833 226.5,103.167 226.5,99.5 Z"/></g>
<g><path style="opacity:1" fill="#8ec258" d="M 279.5,176.5 C 279.5,176.833 279.5,177.167 279.5,177.5C 277.215,180.452 274.548,183.118 271.5,185.5C 269.844,183.54 268.177,181.54 266.5,179.5C 267,179.167 267.5,178.833 268,178.5C 269.626,179.289 271.126,180.289 272.5,181.5C 274.361,180.472 275.695,178.972 276.5,177C 277.448,176.517 278.448,176.351 279.5,176.5 Z"/></g>
<g><path style="opacity:1" fill="#b2aca1" d="M 223.5,104.5 C 224.162,106.304 224.495,108.304 224.5,110.5C 223.213,124.922 221.379,139.256 219,153.5C 218.207,166.16 217.54,178.827 217,191.5C 214.303,205.707 210.969,219.707 207,233.5C 206.505,231.527 206.338,229.527 206.5,227.5C 207.167,222.167 207.833,216.833 208.5,211.5C 212.26,175.66 217.26,139.993 223.5,104.5 Z"/></g>
<g><path style="opacity:1" fill="#dadbd8" d="M 264.5,173.5 C 269.118,174.219 273.785,174.719 278.5,175C 279.056,175.383 279.389,175.883 279.5,176.5C 278.448,176.351 277.448,176.517 276.5,177C 275.695,178.972 274.361,180.472 272.5,181.5C 271.126,180.289 269.626,179.289 268,178.5C 267.5,178.833 267,179.167 266.5,179.5C 268.177,181.54 269.844,183.54 271.5,185.5C 274.548,183.118 277.215,180.452 279.5,177.5C 280.793,180.679 281.46,184.012 281.5,187.5C 276.463,187.587 271.463,187.254 266.5,186.5C 265.725,182.186 265.059,177.853 264.5,173.5 Z"/></g>
<g><path style="opacity:1" fill="#ddb156" d="M 222.5,88.5 C 225.218,89.0427 227.885,89.7094 230.5,90.5C 231.122,91.6266 231.955,92.6266 233,93.5C 233.167,98 233.333,102.5 233.5,107C 231.469,139.816 229.802,172.65 228.5,205.5C 226.629,228.316 225.295,251.316 224.5,274.5C 223.473,284.658 222.807,294.991 222.5,305.5C 221.833,305.5 221.167,305.5 220.5,305.5C 220.389,304.883 220.056,304.383 219.5,304C 222.48,281.334 223.814,258.667 223.5,236C 224.664,199.888 225.998,163.722 227.5,127.5C 227.907,122.177 228.24,116.844 228.5,111.5C 228.722,107.203 228.055,103.203 226.5,99.5C 226.011,98.0048 225.345,96.6715 224.5,95.5C 224.834,92.812 224.168,90.4786 222.5,88.5 Z"/></g>
<g><path style="opacity:1" fill="#d5a141" d="M 227.5,127.5 C 225.998,163.722 224.664,199.888 223.5,236C 223.814,258.667 222.48,281.334 219.5,304C 220.056,304.383 220.389,304.883 220.5,305.5C 219.609,306.11 218.609,306.443 217.5,306.5C 218.292,283.491 219.292,260.491 220.5,237.5C 220.5,233.5 220.5,229.5 220.5,225.5C 222.515,204.037 223.681,182.37 224,160.5C 225.106,149.341 226.273,138.341 227.5,127.5 Z"/></g>
<g><path style="opacity:1" fill="#beb7b0" d="M 295.5,179.5 C 320.638,184.244 345.971,187.911 371.5,190.5C 371.625,193.893 369.958,195.226 366.5,194.5C 343.754,191.824 321.087,188.657 298.5,185C 295.253,184.009 294.253,182.175 295.5,179.5 Z"/></g>
<g><path style="opacity:1" fill="#d3d0cc" d="M 371.5,190.5 C 345.971,187.911 320.638,184.244 295.5,179.5C 295.611,178.883 295.944,178.383 296.5,178C 320.942,180.264 345.275,183.597 369.5,188C 370.756,188.417 371.423,189.25 371.5,190.5 Z"/></g>
<g><path style="opacity:1" fill="#e5c475" d="M 244.5,162.5 C 244.5,169.5 244.5,176.5 244.5,183.5C 243.51,189.31 243.177,195.31 243.5,201.5C 242.511,206.975 242.178,212.642 242.5,218.5C 241.476,229.659 240.809,240.992 240.5,252.5C 239.883,252.611 239.383,252.944 239,253.5C 238.654,251.782 238.154,250.115 237.5,248.5C 237.709,247.914 238.043,247.414 238.5,247C 237.858,242.95 236.858,238.95 235.5,235C 236.973,232.767 236.64,230.767 234.5,229C 233.668,228.312 233.002,228.479 232.5,229.5C 228.887,246.354 226.387,263.687 225,281.5C 224.503,279.19 224.337,276.857 224.5,274.5C 225.295,251.316 226.629,228.316 228.5,205.5C 228.335,208.85 228.502,212.183 229,215.5C 230.883,191.663 233.883,167.997 238,144.5C 238.5,145.5 239,146.5 239.5,147.5C 238.519,154.009 238.519,160.509 239.5,167C 240.46,168.419 241.293,169.919 242,171.5C 243.074,168.5 243.907,165.5 244.5,162.5 Z"/></g>
<g><path style="opacity:1" fill="#e1e1e3" d="M 114.5,220.5 C 117.299,213.673 118.299,206.673 117.5,199.5C 119.167,199.5 120.833,199.5 122.5,199.5C 122.5,201.5 122.5,203.5 122.5,205.5C 140.871,200.991 159.204,196.157 177.5,191C 182.118,190.006 186.785,189.506 191.5,189.5C 192.084,194.092 190.084,196.925 185.5,198C 164.924,202.58 144.591,208.08 124.5,214.5C 122.813,214.24 121.313,213.573 120,212.5C 118.172,215.292 116.338,217.959 114.5,220.5 Z"/></g>
<g><path style="opacity:1" fill="#dedad4" d="M 272.5,253.5 C 273.392,259.852 274.392,266.185 275.5,272.5C 282.354,272.824 289.021,272.491 295.5,271.5C 296.833,271.5 298.167,271.5 299.5,271.5C 299.354,275.519 299.021,279.519 298.5,283.5C 296.262,282.463 293.929,282.297 291.5,283C 282.448,286.739 273.115,289.573 263.5,291.5C 262.075,291.377 260.742,291.043 259.5,290.5C 254.771,260.938 250.771,231.271 247.5,201.5C 248.117,201.389 248.617,201.056 249,200.5C 250.851,204.813 252.517,208.813 254,212.5C 254.333,212.167 254.667,211.833 255,211.5C 255.318,213.061 256.151,214.228 257.5,215C 256.549,215.718 256.383,216.551 257,217.5C 259.734,218.362 259.901,219.195 257.5,220C 261.458,223.421 264.292,227.588 266,232.5C 269.141,232.429 272.307,233.262 275.5,235C 273.432,235.687 271.432,235.52 269.5,234.5C 268.098,234.865 267.098,235.699 266.5,237C 267.535,237.253 268.535,238.086 269.5,239.5C 268.788,242.838 269.455,246.005 271.5,249C 268.696,251.601 269.029,253.101 272.5,253.5 Z"/></g>
<g><path style="opacity:1" fill="#e9eaea" d="M 208.5,211.5 C 207.833,216.833 207.167,222.167 206.5,227.5C 200.716,257.106 197.05,287.106 195.5,317.5C 195.167,318.167 194.833,318.833 194.5,319.5C 181.899,330.03 173.899,343.363 170.5,359.5C 164.477,359.502 158.477,359.835 152.5,360.5C 128.193,359.952 104.193,362.285 80.5,367.5C 79.9423,366.21 78.9423,365.377 77.5,365C 78.2266,363.601 78.7266,362.101 79,360.5C 79.3333,361.5 79.6667,362.5 80,363.5C 80.9533,361.545 82.2866,359.878 84,358.5C 85.4309,356.14 85.5976,353.973 84.5,352C 85.1667,351.333 85.8333,350.667 86.5,350C 86.0411,348.057 87.0411,346.724 89.5,346C 89.5,344.333 89.5,342.667 89.5,341C 90.8491,340.228 91.6824,339.061 92,337.5C 92.3333,337.833 92.6667,338.167 93,338.5C 93.6667,335.833 94.3333,333.167 95,330.5C 95.3333,331.167 95.6667,331.833 96,332.5C 96.3176,330.939 97.1509,329.772 98.5,329C 94.656,325.43 95.656,323.763 101.5,324C 100.377,322.956 99.0441,322.29 97.5,322C 99.9477,321.145 102.114,319.978 104,318.5C 104.684,317.216 104.517,316.049 103.5,315C 105.558,313.51 106.891,311.51 107.5,309C 106.833,308.667 106.167,308.333 105.5,308C 107.225,307.135 108.892,306.469 110.5,306C 109.5,305.667 108.5,305.333 107.5,305C 107.833,304.667 108.167,304.333 108.5,304C 107.695,302.887 107.028,301.721 106.5,300.5C 111.64,299.95 116.807,299.617 122,299.5C 135.178,300.39 148.344,301.39 161.5,302.5C 166.041,302.948 170.374,302.281 174.5,300.5C 175.833,299.167 175.833,297.833 174.5,296.5C 171.806,295.246 169.139,294.246 166.5,293.5C 153.36,291.915 140.027,290.915 126.5,290.5C 126.369,289.761 126.536,289.094 127,288.5C 129.129,289.863 129.629,289.529 128.5,287.5C 129.729,286.719 131.062,286.219 132.5,286C 130.717,284.933 130.217,283.433 131,281.5C 134.289,279.466 136.789,276.632 138.5,273C 138.355,272.228 138.022,271.561 137.5,271C 140.074,271.165 142.408,270.165 144.5,268C 143.833,267.667 143.167,267.333 142.5,267C 144.679,266.558 145.345,265.558 144.5,264C 146.492,263.426 147.992,262.259 149,260.5C 149.333,260.833 149.667,261.167 150,261.5C 151.797,258.853 152.464,255.853 152,252.5C 150.409,250.822 148.909,249.822 147.5,249.5C 148.09,248.201 149.09,247.368 150.5,247C 148.633,246.289 147.133,246.789 146,248.5C 142.256,247.374 138.423,247.207 134.5,248C 124.848,250.66 115.514,254.16 106.5,258.5C 105.186,257.687 104.019,256.687 103,255.5C 100.955,260.277 98.4553,264.61 95.5,268.5C 97.5418,262.745 99.8751,257.078 102.5,251.5C 102.137,250.817 101.804,250.15 101.5,249.5C 103.144,249.286 104.644,249.62 106,250.5C 118.374,245.931 130.874,241.764 143.5,238C 157.764,237.168 171.764,235.168 185.5,232C 183,231.167 182.833,230 185,228.5C 186.799,228.721 188.632,229.054 190.5,229.5C 191.123,227.008 192.956,225.008 196,223.5C 197.416,222.427 198.75,222.427 200,223.5C 202.789,221.632 204.122,218.966 204,215.5C 204.333,215.833 204.667,216.167 205,216.5C 205.684,215.216 205.517,214.049 204.5,213C 206.301,212.683 206.634,212.016 205.5,211C 206.227,209.601 206.727,208.101 207,206.5C 207.198,208.382 207.698,210.048 208.5,211.5 Z"/></g>
<g><path style="opacity:1" fill="#b3cfe1" d="M 115.5,198.5 C 114.169,205.478 112.835,212.478 111.5,219.5C 106.216,220.595 101.216,222.261 96.5,224.5C 95.9033,224.265 95.5699,223.765 95.5,223C 95.9537,220.97 96.6204,219.137 97.5,217.5C 97.4246,213.103 97.9246,208.77 99,204.5C 104.14,201.619 109.64,199.619 115.5,198.5 Z"/></g>
<g><path style="opacity:1" fill="#aedd88" d="M 103.5,211.5 C 104.391,212.11 105.391,212.443 106.5,212.5C 106.833,212.5 107.167,212.5 107.5,212.5C 107.107,214.284 106.441,215.95 105.5,217.5C 104.272,216.694 103.272,215.694 102.5,214.5C 102.263,213.209 102.596,212.209 103.5,211.5 Z"/></g>
<g><path style="opacity:1" fill="#57ac48" d="M 112.5,205.5 C 112.915,210.503 111.248,214.67 107.5,218C 106.563,218.692 105.897,218.525 105.5,217.5C 106.441,215.95 107.107,214.284 107.5,212.5C 109.584,210.424 111.251,208.09 112.5,205.5 Z"/></g>
<g><path style="opacity:1" fill="#98a1a7" d="M 106.5,206.5 C 106.5,208.5 106.5,210.5 106.5,212.5C 105.391,212.443 104.391,212.11 103.5,211.5C 102.916,208.715 103.916,207.048 106.5,206.5 Z"/></g>
<g><path style="opacity:1" fill="#5c96c4" d="M 112.5,204.5 C 110.5,205.167 108.5,205.833 106.5,206.5C 103.916,207.048 102.916,208.715 103.5,211.5C 102.596,212.209 102.263,213.209 102.5,214.5C 102.651,217.738 101.318,220.071 98.5,221.5C 97.5713,220.311 97.238,218.978 97.5,217.5C 98.8225,213.276 100.156,208.943 101.5,204.5C 105.409,203.085 109.409,202.085 113.5,201.5C 113.737,202.791 113.404,203.791 112.5,204.5 Z"/></g>
<g><path style="opacity:1" fill="#cedecb" d="M 112.5,204.5 C 112.5,204.833 112.5,205.167 112.5,205.5C 111.251,208.09 109.584,210.424 107.5,212.5C 107.167,212.5 106.833,212.5 106.5,212.5C 106.5,210.5 106.5,208.5 106.5,206.5C 108.5,205.833 110.5,205.167 112.5,204.5 Z"/></g>
<g><path style="opacity:1" fill="#5d6072" d="M 351.5,216.5 C 371.885,213.179 390.552,217.512 407.5,229.5C 411.93,232.984 415.93,236.984 419.5,241.5C 414.772,241.625 411.439,239.458 409.5,235C 403.886,231.715 398.552,228.049 393.5,224C 387.811,222.151 382.144,220.318 376.5,218.5C 368.224,217.12 359.891,216.453 351.5,216.5 Z"/></g>
<g><path style="opacity:1" fill="#94bee3" d="M 115.5,198.5 C 116.167,198.833 116.833,199.167 117.5,199.5C 118.299,206.673 117.299,213.673 114.5,220.5C 109.6,222.473 104.6,224.473 99.5,226.5C 98.2613,226.058 97.2613,225.391 96.5,224.5C 101.216,222.261 106.216,220.595 111.5,219.5C 112.835,212.478 114.169,205.478 115.5,198.5 Z"/></g>
<g><path style="opacity:1" fill="#474a5e" d="M 351.5,216.5 C 359.891,216.453 368.224,217.12 376.5,218.5C 382.144,220.318 387.811,222.151 393.5,224C 398.552,228.049 403.886,231.715 409.5,235C 411.439,239.458 414.772,241.625 419.5,241.5C 420.708,247.223 422.208,252.889 424,258.5C 426.284,261.827 428.618,265.16 431,268.5C 431.279,271.457 432.113,274.123 433.5,276.5C 434.426,281.334 434.426,286.334 433.5,291.5C 433.167,291.5 432.833,291.5 432.5,291.5C 432.665,287.818 432.499,284.152 432,280.5C 431.333,279.833 430.667,279.167 430,278.5C 425.468,261.079 416.635,246.412 403.5,234.5C 397.235,232.017 391.569,228.517 386.5,224C 380.27,222.869 374.27,221.202 368.5,219C 361.654,218.828 354.987,218.328 348.5,217.5C 349.209,216.596 350.209,216.263 351.5,216.5 Z"/></g>
<g><path style="opacity:1" fill="#c3bfb9" d="M 331.5,223.5 C 329.537,224.82 327.537,226.154 325.5,227.5C 319.045,225.912 312.378,224.746 305.5,224C 303.393,222.736 302.393,220.903 302.5,218.5C 311.94,221.224 321.606,222.89 331.5,223.5 Z"/></g>
<g><path style="opacity:1" fill="#92b7d9" d="M 266.5,211.5 C 273.655,210.345 280.988,210.178 288.5,211C 290.656,216.943 291.989,223.11 292.5,229.5C 285.173,229.056 277.84,228.723 270.5,228.5C 269.904,222.542 268.57,216.875 266.5,211.5 Z"/></g>
<g><path style="opacity:1" fill="#d3d4d1" d="M 274.5,215.5 C 278.042,215.187 281.375,215.521 284.5,216.5C 282.882,218.785 280.882,220.785 278.5,222.5C 277.354,221.855 276.354,221.022 275.5,220C 274.365,219.251 273.365,219.417 272.5,220.5C 274.167,222.833 276.167,224.833 278.5,226.5C 280.483,224.016 282.65,221.683 285,219.5C 285.483,218.552 285.649,217.552 285.5,216.5C 286.768,218.905 287.435,221.572 287.5,224.5C 287.5,225.5 287.5,226.5 287.5,227.5C 282.489,227.666 277.489,227.499 272.5,227C 271.512,223.255 270.845,219.422 270.5,215.5C 271.833,215.5 273.167,215.5 274.5,215.5 Z"/></g>
<g><path style="opacity:1" fill="#70ae43" d="M 284.5,216.5 C 284.833,216.5 285.167,216.5 285.5,216.5C 285.649,217.552 285.483,218.552 285,219.5C 282.65,221.683 280.483,224.016 278.5,226.5C 276.167,224.833 274.167,222.833 272.5,220.5C 273.365,219.417 274.365,219.251 275.5,220C 276.354,221.022 277.354,221.855 278.5,222.5C 280.882,220.785 282.882,218.785 284.5,216.5 Z"/></g>
<g><path style="opacity:1" fill="#4e7baa" d="M 287.5,224.5 C 287.435,221.572 286.768,218.905 285.5,216.5C 285.167,216.5 284.833,216.5 284.5,216.5C 281.375,215.521 278.042,215.187 274.5,215.5C 273.282,214.839 271.949,214.172 270.5,213.5C 276.128,212.505 281.794,212.171 287.5,212.5C 288.854,217.428 289.354,222.428 289,227.5C 288.768,226.263 288.268,225.263 287.5,224.5 Z"/></g>
<g><path style="opacity:1" fill="#c1c1b4" d="M 224.5,95.5 C 225.345,96.6715 226.011,98.0048 226.5,99.5C 226.5,103.167 226.5,106.833 226.5,110.5C 223.489,130.261 221.323,150.261 220,170.5C 217.163,214.868 213.997,259.201 210.5,303.5C 209.532,305.607 209.198,307.941 209.5,310.5C 204.566,312.301 199.899,314.634 195.5,317.5C 197.05,287.106 200.716,257.106 206.5,227.5C 206.338,229.527 206.505,231.527 207,233.5C 210.969,219.707 214.303,205.707 217,191.5C 217.54,178.827 218.207,166.16 219,153.5C 221.379,139.256 223.213,124.922 224.5,110.5C 224.495,108.304 224.162,106.304 223.5,104.5C 224.159,101.545 224.492,98.5448 224.5,95.5 Z"/></g>
<g><path style="opacity:1" fill="#6e92bc" d="M 266.5,211.5 C 268.57,216.875 269.904,222.542 270.5,228.5C 277.84,228.723 285.173,229.056 292.5,229.5C 292.586,230.496 292.252,231.329 291.5,232C 284.176,232.057 276.843,231.891 269.5,231.5C 268.284,224.868 267.284,218.201 266.5,211.5 Z"/></g>
<g><path style="opacity:1" fill="#c17a26" d="M 226.5,110.5 C 226.938,112.126 227.272,113.793 227.5,115.5C 223.029,152.021 220.695,188.688 220.5,225.5C 220.5,229.5 220.5,233.5 220.5,237.5C 218.618,259.914 216.285,282.414 213.5,305C 213.743,305.902 214.077,306.735 214.5,307.5C 213.292,308.234 211.959,308.567 210.5,308.5C 210.5,306.833 210.5,305.167 210.5,303.5C 213.997,259.201 217.163,214.868 220,170.5C 221.323,150.261 223.489,130.261 226.5,110.5 Z"/></g>
<g><path style="opacity:1" fill="#c98e2d" d="M 220.5,237.5 C 219.292,260.491 218.292,283.491 217.5,306.5C 216.609,307.11 215.609,307.443 214.5,307.5C 214.077,306.735 213.743,305.902 213.5,305C 216.285,282.414 218.618,259.914 220.5,237.5 Z"/></g>
<g><path style="opacity:1" fill="#af8f65" d="M 244.5,183.5 C 245.501,189.509 246.501,195.509 247.5,201.5C 250.771,231.271 254.771,260.938 259.5,290.5C 260.632,295.76 261.299,301.093 261.5,306.5C 261.5,307.167 261.5,307.833 261.5,308.5C 259.035,308.233 256.701,307.566 254.5,306.5C 254.802,303.941 254.468,301.607 253.5,299.5C 250.223,267.347 246.889,235.347 243.5,203.5C 243.5,202.833 243.5,202.167 243.5,201.5C 243.177,195.31 243.51,189.31 244.5,183.5 Z"/></g>
<g><path style="opacity:1" fill="#30364c" d="M 348.5,217.5 C 354.987,218.328 361.654,218.828 368.5,219C 374.27,221.202 380.27,222.869 386.5,224C 391.569,228.517 397.235,232.017 403.5,234.5C 416.635,246.412 425.468,261.079 430,278.5C 430.667,279.167 431.333,279.833 432,280.5C 432.499,284.152 432.665,287.818 432.5,291.5C 432.198,294.373 431.531,297.039 430.5,299.5C 425.547,305.844 420.213,312.01 414.5,318C 390.959,339.357 364.959,342.691 336.5,328C 316.777,313.532 307.111,294.366 307.5,270.5C 308.167,269.167 308.833,267.833 309.5,266.5C 308.5,266.5 307.5,266.5 306.5,266.5C 306.569,264.722 306.903,262.889 307.5,261C 306.333,260.5 305.5,259.667 305,258.5C 304.023,260.706 302.857,262.706 301.5,264.5C 301.5,264.167 301.5,263.833 301.5,263.5C 305.507,248.815 313.507,236.815 325.5,227.5C 327.537,226.154 329.537,224.82 331.5,223.5C 336.739,220.435 342.406,218.435 348.5,217.5 Z"/></g>
<g><path style="opacity:1" fill="#504f55" d="M 378.5,231.5 C 383.119,232.402 387.786,233.402 392.5,234.5C 398.746,239.57 404.579,245.237 410,251.5C 410.483,252.448 410.649,253.448 410.5,254.5C 409.833,254.167 409.167,253.833 408.5,253.5C 401.023,242.758 391.023,235.425 378.5,231.5 Z"/></g>
<g><path style="opacity:1" fill="#232738" d="M 392.5,234.5 C 387.786,233.402 383.119,232.402 378.5,231.5C 378.167,231.5 377.833,231.5 377.5,231.5C 377.119,230.069 376.119,229.236 374.5,229C 369.316,228.184 364.316,228.35 359.5,229.5C 358.833,229.5 358.167,229.5 357.5,229.5C 352.968,228.886 348.968,229.886 345.5,232.5C 341.496,232.326 338.163,233.66 335.5,236.5C 335.167,236 334.833,235.5 334.5,235C 342.611,228.045 352.111,224.878 363,225.5C 373.219,224.976 382.719,227.31 391.5,232.5C 392.298,232.957 392.631,233.624 392.5,234.5 Z"/></g>
<g><path style="opacity:1" fill="#555353" d="M 357.5,229.5 C 353.557,230.312 349.557,231.312 345.5,232.5C 348.968,229.886 352.968,228.886 357.5,229.5 Z"/></g>
<g><path style="opacity:1" fill="#4d4b4e" d="M 359.5,229.5 C 364.316,228.35 369.316,228.184 374.5,229C 376.119,229.236 377.119,230.069 377.5,231.5C 371.622,229.935 365.622,229.268 359.5,229.5 Z"/></g>
<g><path style="opacity:1" fill="#d8d6d2" d="M 408.5,253.5 C 409.167,253.833 409.833,254.167 410.5,254.5C 413.997,261.165 416.664,268.165 418.5,275.5C 418.82,281.162 418.153,286.662 416.5,292C 411.301,293.736 406.134,293.57 401,291.5C 400.667,291.833 400.333,292.167 400,292.5C 393.889,290.869 387.555,288.869 381,286.5C 368.225,279.112 354.225,272.112 339,265.5C 336.241,266.456 334.241,265.456 333,262.5C 331.221,263.479 329.555,263.146 328,261.5C 324.638,262.865 321.805,262.032 319.5,259C 320.833,258.333 320.833,257.667 319.5,257C 320.579,256.044 321.745,255.211 323,254.5C 327.309,254.294 331.642,254.294 336,254.5C 336.75,253.874 337.584,253.374 338.5,253C 362.004,252.295 385.338,252.462 408.5,253.5 Z"/></g>
<g><path style="opacity:1" fill="#c4711f" d="M 243.5,201.5 C 243.5,202.167 243.5,202.833 243.5,203.5C 244.509,234.327 247.009,264.994 251,295.5C 251.511,297.878 252.178,300.212 253,302.5C 253.483,301.552 253.649,300.552 253.5,299.5C 254.468,301.607 254.802,303.941 254.5,306.5C 253.5,306.5 252.5,306.5 251.5,306.5C 250.07,305.463 248.403,304.796 246.5,304.5C 243.564,275.916 242.23,247.25 242.5,218.5C 242.178,212.642 242.511,206.975 243.5,201.5 Z"/></g>
<g><path style="opacity:1" fill="#d3d0cc" d="M 357.5,229.5 C 358.167,229.5 358.833,229.5 359.5,229.5C 365.622,229.268 371.622,229.935 377.5,231.5C 377.833,231.5 378.167,231.5 378.5,231.5C 391.023,235.425 401.023,242.758 408.5,253.5C 385.338,252.462 362.004,252.295 338.5,253C 337.584,253.374 336.75,253.874 336,254.5C 331.642,254.294 327.309,254.294 323,254.5C 321.745,255.211 320.579,256.044 319.5,257C 320.833,257.667 320.833,258.333 319.5,259C 321.805,262.032 324.638,262.865 328,261.5C 329.555,263.146 331.221,263.479 333,262.5C 334.241,265.456 336.241,266.456 339,265.5C 354.225,272.112 368.225,279.112 381,286.5C 387.555,288.869 393.889,290.869 400,292.5C 400.333,292.167 400.667,291.833 401,291.5C 406.134,293.57 411.301,293.736 416.5,292C 418.153,286.662 418.82,281.162 418.5,275.5C 419.962,282.464 419.629,289.464 417.5,296.5C 392.385,296.805 368.719,290.972 346.5,279C 335.791,275.132 325.124,272.299 314.5,270.5C 314.5,269.5 314.5,268.5 314.5,267.5C 318.886,250.453 329.22,238.787 345.5,232.5C 349.557,231.312 353.557,230.312 357.5,229.5 Z"/></g>
<g><path style="opacity:1" fill="#5e5968" d="M 419.5,241.5 C 427.667,251.648 432.334,263.315 433.5,276.5C 432.113,274.123 431.279,271.457 431,268.5C 428.618,265.16 426.284,261.827 424,258.5C 422.208,252.889 420.708,247.223 419.5,241.5 Z"/></g>
<g><path style="opacity:1" fill="#aacce5" d="M 99.5,248.5 C 97.5008,254.991 95.0008,261.325 92,267.5C 86.8484,268.913 81.6817,270.246 76.5,271.5C 78.1404,265.08 80.4737,258.913 83.5,253C 88.7876,251.31 94.1209,249.81 99.5,248.5 Z"/></g>
<g><path style="opacity:1" fill="#b3aeaa" d="M 272.5,253.5 C 272.833,253.5 273.167,253.5 273.5,253.5C 274.565,259.771 276.232,265.771 278.5,271.5C 284.167,271.5 289.833,271.5 295.5,271.5C 289.021,272.491 282.354,272.824 275.5,272.5C 274.392,266.185 273.392,259.852 272.5,253.5 Z"/></g>
<g><path style="opacity:1" fill="#e1be69" d="M 240.5,252.5 C 239.03,269.796 238.363,287.129 238.5,304.5C 233.12,304.324 227.787,304.658 222.5,305.5C 222.807,294.991 223.473,284.658 224.5,274.5C 224.337,276.857 224.503,279.19 225,281.5C 226.387,263.687 228.887,246.354 232.5,229.5C 233.002,228.479 233.668,228.312 234.5,229C 236.64,230.767 236.973,232.767 235.5,235C 236.858,238.95 237.858,242.95 238.5,247C 238.043,247.414 237.709,247.914 237.5,248.5C 238.154,250.115 238.654,251.782 239,253.5C 239.383,252.944 239.883,252.611 240.5,252.5 Z"/></g>
<g><path style="opacity:1" fill="#b75915" d="M 243.5,203.5 C 246.889,235.347 250.223,267.347 253.5,299.5C 253.649,300.552 253.483,301.552 253,302.5C 252.178,300.212 251.511,297.878 251,295.5C 247.009,264.994 244.509,234.327 243.5,203.5 Z"/></g>
<g><path style="opacity:1" fill="#8ccc68" d="M 84.5,263.5 C 84.3284,262.508 84.6618,261.842 85.5,261.5C 86.1499,261.804 86.8165,262.137 87.5,262.5C 96.4259,252.922 97.5926,253.922 91,265.5C 89.3005,266.406 87.4672,266.739 85.5,266.5C 85.7373,265.209 85.404,264.209 84.5,263.5 Z"/></g>
<g><path style="opacity:1" fill="#609bcc" d="M 85.5,261.5 C 84.6618,261.842 84.3284,262.508 84.5,263.5C 84.3129,267.528 82.3129,269.028 78.5,268C 80.6639,263.674 82.3305,259.174 83.5,254.5C 86.3198,254.248 88.9865,254.748 91.5,256C 87.7337,255.934 85.7337,257.767 85.5,261.5 Z"/></g>
<g><path style="opacity:1" fill="#85acd0" d="M 301.5,263.5 C 301.5,263.833 301.5,264.167 301.5,264.5C 300.566,265.568 300.232,266.901 300.5,268.5C 300.167,268.5 299.833,268.5 299.5,268.5C 294.489,268.612 289.489,268.946 284.5,269.5C 282.048,269.539 280.048,270.206 278.5,271.5C 276.232,265.771 274.565,259.771 273.5,253.5C 273.414,252.504 273.748,251.671 274.5,251C 282.188,250.169 289.855,250.335 297.5,251.5C 298.544,255.71 299.877,259.71 301.5,263.5 Z"/></g>
<g><path style="opacity:1" fill="#d3d4d3" d="M 291.5,255.5 C 290.052,257.555 288.719,259.722 287.5,262C 285.893,262.115 284.393,261.615 283,260.5C 282.5,260.833 282,261.167 281.5,261.5C 283.008,263.507 284.842,265.174 287,266.5C 289.694,263.108 291.86,259.441 293.5,255.5C 295.563,257.449 296.896,259.782 297.5,262.5C 297.773,264.451 297.107,265.951 295.5,267C 290.467,267.829 285.467,267.662 280.5,266.5C 279.292,262.878 278.292,259.211 277.5,255.5C 282.167,255.5 286.833,255.5 291.5,255.5 Z"/></g>
<g><path style="opacity:1" fill="#79b34b" d="M 291.5,255.5 C 291.833,255.5 292.167,255.5 292.5,255.5C 292.833,255.5 293.167,255.5 293.5,255.5C 291.86,259.441 289.694,263.108 287,266.5C 284.842,265.174 283.008,263.507 281.5,261.5C 282,261.167 282.5,260.833 283,260.5C 284.393,261.615 285.893,262.115 287.5,262C 288.719,259.722 290.052,257.555 291.5,255.5 Z"/></g>
<g><path style="opacity:1" fill="#4f7fb0" d="M 297.5,262.5 C 296.896,259.782 295.563,257.449 293.5,255.5C 293.167,255.5 292.833,255.5 292.5,255.5C 287.651,254.834 282.651,254.167 277.5,253.5C 283.472,252.336 289.472,252.17 295.5,253C 296.866,255.997 297.533,259.164 297.5,262.5 Z"/></g>
<g><path style="opacity:1" fill="#507caa" d="M 299.5,268.5 C 299.5,269.5 299.5,270.5 299.5,271.5C 298.167,271.5 296.833,271.5 295.5,271.5C 289.833,271.5 284.167,271.5 278.5,271.5C 280.048,270.206 282.048,269.539 284.5,269.5C 289.489,268.946 294.489,268.612 299.5,268.5 Z"/></g>
<g><path style="opacity:1" fill="#95c0e3" d="M 99.5,248.5 C 100.167,248.833 100.833,249.167 101.5,249.5C 101.804,250.15 102.137,250.817 102.5,251.5C 99.8751,257.078 97.5418,262.745 95.5,268.5C 90.9069,271.289 85.9069,273.289 80.5,274.5C 78.4115,274.38 77.0782,273.38 76.5,271.5C 81.6817,270.246 86.8484,268.913 92,267.5C 95.0008,261.325 97.5008,254.991 99.5,248.5 Z"/></g>
<g><path style="opacity:1" fill="#242a3d" d="M 430.5,299.5 C 428.341,310.159 423.341,319.159 415.5,326.5C 412.033,326.446 409.366,327.946 407.5,331C 389.725,342.242 370.891,344.742 351,338.5C 349.612,339.554 348.112,339.72 346.5,339C 344.23,336.525 341.563,334.525 338.5,333C 335.117,334.019 332.783,332.685 331.5,329C 330.207,328.51 328.873,328.343 327.5,328.5C 327.5,327.5 327.5,326.5 327.5,325.5C 316.478,319.19 308.978,309.857 305,297.5C 304.329,296.748 303.496,296.414 302.5,296.5C 300.772,287.298 300.105,277.965 300.5,268.5C 300.232,266.901 300.566,265.568 301.5,264.5C 302.857,262.706 304.023,260.706 305,258.5C 305.5,259.667 306.333,260.5 307.5,261C 306.903,262.889 306.569,264.722 306.5,266.5C 307.5,266.5 308.5,266.5 309.5,266.5C 308.833,267.833 308.167,269.167 307.5,270.5C 307.111,294.366 316.777,313.532 336.5,328C 364.959,342.691 390.959,339.357 414.5,318C 420.213,312.01 425.547,305.844 430.5,299.5 Z"/></g>
<g><path style="opacity:1" fill="#d18935" d="M 242.5,218.5 C 242.23,247.25 243.564,275.916 246.5,304.5C 243.833,304.5 241.167,304.5 238.5,304.5C 238.363,287.129 239.03,269.796 240.5,252.5C 240.809,240.992 241.476,229.659 242.5,218.5 Z"/></g>
<g><path style="opacity:1" fill="#cec9bd" d="M 298.5,283.5 C 299.244,287.119 299.577,290.785 299.5,294.5C 294.5,295.167 289.5,295.833 284.5,296.5C 284.167,296.5 283.833,296.5 283.5,296.5C 275.85,298.74 269.016,302.407 263,307.5C 262.617,306.944 262.117,306.611 261.5,306.5C 261.299,301.093 260.632,295.76 259.5,290.5C 260.742,291.043 262.075,291.377 263.5,291.5C 273.115,289.573 282.448,286.739 291.5,283C 293.929,282.297 296.262,282.463 298.5,283.5 Z"/></g>
<g><path style="opacity:1" fill="#e1e1e2" d="M 85.5,290.5 C 86.9778,290.238 88.3112,290.571 89.5,291.5C 88.4798,293.432 88.3131,295.432 89,297.5C 101.332,294.472 113.832,292.138 126.5,290.5C 140.027,290.915 153.36,291.915 166.5,293.5C 165.178,293.33 164.011,293.663 163,294.5C 162.433,297.168 161.933,299.834 161.5,302.5C 148.344,301.39 135.178,300.39 122,299.5C 116.807,299.617 111.64,299.95 106.5,300.5C 101.653,301.002 96.8199,301.669 92,302.5C 90.4385,302.397 88.9385,302.063 87.5,301.5C 86.8333,303.833 86.1667,306.167 85.5,308.5C 84.9432,310.332 83.9432,311.665 82.5,312.5C 83.5377,305.683 85.2043,299.016 87.5,292.5C 86.7573,291.818 86.0906,291.151 85.5,290.5 Z"/></g>
<g><path style="opacity:1" fill="#9fc5e4" d="M 85.5,290.5 C 86.0906,291.151 86.7573,291.818 87.5,292.5C 85.2043,299.016 83.5377,305.683 82.5,312.5C 77.6293,314.962 72.4626,316.962 67,318.5C 65.1667,318 64,316.833 63.5,315C 63.9821,312.181 64.9821,309.681 66.5,307.5C 66.6427,309.262 66.3094,310.929 65.5,312.5C 66.6507,313.731 67.8173,313.731 69,312.5C 69.4935,310.866 69.6602,309.199 69.5,307.5C 70.5361,309.722 72.2028,310.888 74.5,311C 77.4471,307.273 79.4471,303.106 80.5,298.5C 82.6246,297.632 82.7913,296.632 81,295.5C 78.7473,296.377 76.5806,297.377 74.5,298.5C 73.4479,296.744 71.7812,296.077 69.5,296.5C 69.405,298.786 68.7384,300.786 67.5,302.5C 67.4661,299.801 68.1328,297.301 69.5,295C 74.7127,292.983 80.046,291.483 85.5,290.5 Z"/></g>
<g><path style="opacity:1" fill="#bdb8b0" d="M 313.5,276.5 C 315.391,277.536 317.224,277.536 319,276.5C 323.232,278.722 327.732,280.389 332.5,281.5C 333.086,281.291 333.586,280.957 334,280.5C 335.167,281.667 336.333,282.833 337.5,284C 343.349,285.195 349.349,287.195 355.5,290C 365.93,290.818 375.93,293.151 385.5,297C 381.205,297.912 376.872,298.579 372.5,299C 370.968,301.33 371.302,303.33 373.5,305C 373.167,305.333 372.833,305.667 372.5,306C 376,309.796 379.833,313.296 384,316.5C 385.939,320.596 388.439,324.263 391.5,327.5C 390.22,328.931 388.553,329.598 386.5,329.5C 383.051,326.881 380.051,323.714 377.5,320C 373.444,318.592 370.444,315.925 368.5,312C 364.91,311.258 362.077,309.425 360,306.5C 359.667,306.833 359.333,307.167 359,307.5C 357.047,304.743 357.213,302.243 359.5,300C 364.678,298.202 370.011,297.202 375.5,297C 364.789,293.66 353.789,291.993 342.5,292C 337.944,291.611 333.61,290.445 329.5,288.5C 328.914,288.709 328.414,289.043 328,289.5C 325.566,288.368 323.066,287.368 320.5,286.5C 318.597,287.353 316.597,287.353 314.5,286.5C 313.521,283.375 313.187,280.042 313.5,276.5 Z"/></g>
<g><path style="opacity:1" fill="#c6c3bd" d="M 314.5,267.5 C 314.5,268.5 314.5,269.5 314.5,270.5C 325.124,272.299 335.791,275.132 346.5,279C 368.719,290.972 392.385,296.805 417.5,296.5C 416.733,300.149 415.4,303.482 413.5,306.5C 413.5,305.5 413.5,304.5 413.5,303.5C 410.402,303.587 410.068,303.087 412.5,302C 405.006,300.792 397.506,299.626 390,298.5C 381.838,298.179 380.005,301.179 384.5,307.5C 387.975,311.104 390.975,315.104 393.5,319.5C 395.186,320.857 396.852,322.19 398.5,323.5C 398.167,324.5 397.5,325.167 396.5,325.5C 394.95,326.441 393.284,327.107 391.5,327.5C 388.439,324.263 385.939,320.596 384,316.5C 379.833,313.296 376,309.796 372.5,306C 372.833,305.667 373.167,305.333 373.5,305C 371.302,303.33 370.968,301.33 372.5,299C 376.872,298.579 381.205,297.912 385.5,297C 375.93,293.151 365.93,290.818 355.5,290C 349.349,287.195 343.349,285.195 337.5,284C 336.333,282.833 335.167,281.667 334,280.5C 333.586,280.957 333.086,281.291 332.5,281.5C 327.732,280.389 323.232,278.722 319,276.5C 317.224,277.536 315.391,277.536 313.5,276.5C 313.19,273.287 313.523,270.287 314.5,267.5 Z"/></g>
<g><path style="opacity:1" fill="#d7dcde" d="M 80.5,298.5 C 79.603,297.402 78.7697,297.402 78,298.5C 76.7533,301.329 75.2533,303.995 73.5,306.5C 72.8165,306.137 72.1499,305.804 71.5,305.5C 71.5516,302.654 72.5516,300.32 74.5,298.5C 76.5806,297.377 78.7473,296.377 81,295.5C 82.7913,296.632 82.6246,297.632 80.5,298.5 Z"/></g>
<g><path style="opacity:1" fill="#cbcbc3" d="M 166.5,293.5 C 169.139,294.246 171.806,295.246 174.5,296.5C 175.833,297.833 175.833,299.167 174.5,300.5C 170.374,302.281 166.041,302.948 161.5,302.5C 161.933,299.834 162.433,297.168 163,294.5C 164.011,293.663 165.178,293.33 166.5,293.5 Z"/></g>
<g><path style="opacity:1" fill="#b1aea2" d="M 314.5,286.5 C 316.597,287.353 318.597,287.353 320.5,286.5C 323.066,287.368 325.566,288.368 328,289.5C 328.414,289.043 328.914,288.709 329.5,288.5C 333.61,290.445 337.944,291.611 342.5,292C 353.789,291.993 364.789,293.66 375.5,297C 370.011,297.202 364.678,298.202 359.5,300C 357.213,302.243 357.047,304.743 359,307.5C 359.333,307.167 359.667,306.833 360,306.5C 362.077,309.425 364.91,311.258 368.5,312C 370.444,315.925 373.444,318.592 377.5,320C 380.051,323.714 383.051,326.881 386.5,329.5C 369.397,335.723 353.063,333.89 337.5,324C 332.665,319.997 327.998,315.83 323.5,311.5C 318.333,304.003 315.333,295.669 314.5,286.5 Z"/></g>
<g><path style="opacity:1" fill="#a49f93" d="M 325.5,295.5 C 338.885,295.097 352.218,295.597 365.5,297C 353.454,298.614 341.454,300.447 329.5,302.5C 323.718,302.421 322.385,300.088 325.5,295.5 Z"/></g>
<g><path style="opacity:1" fill="#d1cdc9" d="M 413.5,306.5 C 410.273,313.727 405.273,319.394 398.5,323.5C 396.852,322.19 395.186,320.857 393.5,319.5C 390.975,315.104 387.975,311.104 384.5,307.5C 380.005,301.179 381.838,298.179 390,298.5C 397.506,299.626 405.006,300.792 412.5,302C 410.068,303.087 410.402,303.587 413.5,303.5C 413.5,304.5 413.5,305.5 413.5,306.5 Z"/></g>
<g><path style="opacity:1" fill="#c0bca8" d="M 283.5,296.5 C 281.781,304.326 281.781,312.326 283.5,320.5C 283.457,321.416 283.124,322.083 282.5,322.5C 275.946,317.064 268.946,312.397 261.5,308.5C 261.5,307.833 261.5,307.167 261.5,306.5C 262.117,306.611 262.617,306.944 263,307.5C 269.016,302.407 275.85,298.74 283.5,296.5 Z"/></g>
<g><path style="opacity:1" fill="#507999" d="M 299.5,294.5 C 300.451,295.919 300.784,297.585 300.5,299.5C 296.5,299.5 292.5,299.5 288.5,299.5C 288.685,304.57 289.352,309.57 290.5,314.5C 296.026,314.821 301.36,314.488 306.5,313.5C 308.25,314.659 309.25,316.326 309.5,318.5C 302.146,318.479 294.813,318.813 287.5,319.5C 286.78,311.793 285.78,304.126 284.5,296.5C 289.5,295.833 294.5,295.167 299.5,294.5 Z"/></g>
<g><path style="opacity:1" fill="#7abe5e" d="M 80.5,298.5 C 79.4471,303.106 77.4471,307.273 74.5,311C 72.2028,310.888 70.5361,309.722 69.5,307.5C 69.5,306.167 70.1667,305.5 71.5,305.5C 72.1499,305.804 72.8165,306.137 73.5,306.5C 75.2533,303.995 76.7533,301.329 78,298.5C 78.7697,297.402 79.603,297.402 80.5,298.5 Z"/></g>
<g><path style="opacity:1" fill="#59982b" d="M 302.5,302.5 C 302.5,303.5 302.5,304.5 302.5,305.5C 301.509,308.145 300.009,310.478 298,312.5C 295.982,310.65 294.149,308.65 292.5,306.5C 294.843,305.275 296.677,305.941 298,308.5C 299.277,306.253 300.777,304.253 302.5,302.5 Z"/></g>
<g><path style="opacity:1" fill="#5c97c5" d="M 74.5,298.5 C 72.5516,300.32 71.5516,302.654 71.5,305.5C 70.1667,305.5 69.5,306.167 69.5,307.5C 69.6602,309.199 69.4935,310.866 69,312.5C 67.8173,313.731 66.6507,313.731 65.5,312.5C 66.3094,310.929 66.6427,309.262 66.5,307.5C 66.2155,305.585 66.5489,303.919 67.5,302.5C 68.7384,300.786 69.405,298.786 69.5,296.5C 71.7812,296.077 73.4479,296.744 74.5,298.5 Z"/></g>
<g><path style="opacity:1" fill="#bad09a" d="M 210.5,303.5 C 210.5,305.167 210.5,306.833 210.5,308.5C 211.959,308.567 213.292,308.234 214.5,307.5C 215.609,307.443 216.609,307.11 217.5,306.5C 218.609,306.443 219.609,306.11 220.5,305.5C 221.167,305.5 221.833,305.5 222.5,305.5C 227.787,304.658 233.12,304.324 238.5,304.5C 241.167,304.5 243.833,304.5 246.5,304.5C 248.403,304.796 250.07,305.463 251.5,306.5C 246.2,306.665 245.534,308.165 249.5,311C 248.207,311.49 246.873,311.657 245.5,311.5C 238.825,311.334 232.158,311.5 225.5,312C 221.509,312.498 217.842,313.665 214.5,315.5C 213.508,315.328 212.842,315.662 212.5,316.5C 211.391,316.557 210.391,316.89 209.5,317.5C 209.5,315.167 209.5,312.833 209.5,310.5C 209.198,307.941 209.532,305.607 210.5,303.5 Z"/></g>
<g><path style="opacity:1" fill="#a9afa1" d="M 300.5,299.5 C 301.401,300.29 302.068,301.29 302.5,302.5C 300.777,304.253 299.277,306.253 298,308.5C 296.677,305.941 294.843,305.275 292.5,306.5C 294.149,308.65 295.982,310.65 298,312.5C 300.009,310.478 301.509,308.145 302.5,305.5C 304.017,308.035 305.35,310.702 306.5,313.5C 301.36,314.488 296.026,314.821 290.5,314.5C 289.352,309.57 288.685,304.57 288.5,299.5C 292.5,299.5 296.5,299.5 300.5,299.5 Z"/></g>
<g><path style="opacity:1" fill="#aad199" d="M 251.5,306.5 C 252.5,306.5 253.5,306.5 254.5,306.5C 256.701,307.566 259.035,308.233 261.5,308.5C 268.946,312.397 275.946,317.064 282.5,322.5C 285.336,325.513 287.669,328.846 289.5,332.5C 290.218,334.137 290.384,335.803 290,337.5C 289.617,336.944 289.117,336.611 288.5,336.5C 286.95,335.559 285.284,334.893 283.5,334.5C 275.468,323.484 264.801,316.484 251.5,313.5C 249.5,312.833 247.5,312.167 245.5,311.5C 246.873,311.657 248.207,311.49 249.5,311C 245.534,308.165 246.2,306.665 251.5,306.5 Z"/></g>
<g><path style="opacity:1" fill="#b3dcac" d="M 209.5,310.5 C 209.5,312.833 209.5,315.167 209.5,317.5C 203.984,320.089 198.984,323.422 194.5,327.5C 194.5,324.833 194.5,322.167 194.5,319.5C 194.833,318.833 195.167,318.167 195.5,317.5C 199.899,314.634 204.566,312.301 209.5,310.5 Z"/></g>
<g><path style="opacity:1" fill="#65b326" d="M 245.5,311.5 C 247.5,312.167 249.5,312.833 251.5,313.5C 249.265,313.205 247.265,313.539 245.5,314.5C 242.966,312.408 240.299,312.074 237.5,313.5C 236.778,313.918 236.278,314.584 236,315.5C 233.619,314.565 231.119,314.232 228.5,314.5C 228.5,315.5 228.5,316.5 228.5,317.5C 226.42,318.044 224.42,318.878 222.5,320C 223.451,320.718 223.617,321.551 223,322.5C 221.243,320.12 221.077,317.62 222.5,315C 219.881,315.083 217.214,315.25 214.5,315.5C 217.842,313.665 221.509,312.498 225.5,312C 232.158,311.5 238.825,311.334 245.5,311.5 Z"/></g>
<g><path style="opacity:1" fill="#dedad5" d="M 432.5,291.5 C 432.833,291.5 433.167,291.5 433.5,291.5C 433.34,293.199 433.506,294.866 434,296.5C 446.724,319.486 454.224,343.82 456.5,369.5C 447.026,362.858 438.692,355.025 431.5,346C 428.782,346.524 426.115,347.357 423.5,348.5C 419.853,342.86 415.853,337.527 411.5,332.5C 412.415,330.246 413.748,328.246 415.5,326.5C 423.341,319.159 428.341,310.159 430.5,299.5C 431.531,297.039 432.198,294.373 432.5,291.5 Z"/></g>
<g><path style="opacity:1" fill="#3fb20a" d="M 237.5,313.5 C 237.5,316.167 237.5,318.833 237.5,321.5C 236.51,327.645 236.177,333.978 236.5,340.5C 236.167,340.5 235.833,340.5 235.5,340.5C 235.5,338.5 235.5,336.5 235.5,334.5C 235.5,332.5 235.5,330.5 235.5,328.5C 232.428,328.183 229.428,328.516 226.5,329.5C 224.213,332.326 221.88,335.159 219.5,338C 218.552,338.483 217.552,338.649 216.5,338.5C 216.762,337.022 216.429,335.689 215.5,334.5C 214.914,334.709 214.414,335.043 214,335.5C 213.149,330.03 213.649,324.697 215.5,319.5C 215.121,317.787 214.121,316.787 212.5,316.5C 212.842,315.662 213.508,315.328 214.5,315.5C 217.214,315.25 219.881,315.083 222.5,315C 221.077,317.62 221.243,320.12 223,322.5C 223.617,321.551 223.451,320.718 222.5,320C 224.42,318.878 226.42,318.044 228.5,317.5C 228.5,316.5 228.5,315.5 228.5,314.5C 231.119,314.232 233.619,314.565 236,315.5C 236.278,314.584 236.778,313.918 237.5,313.5 Z"/></g>
<g><path style="opacity:1" fill="#3dd332" d="M 209.5,317.5 C 210.398,318.158 211.398,318.824 212.5,319.5C 211.469,320.7 210.635,322.034 210,323.5C 209.827,329.016 209.327,334.349 208.5,339.5C 208.116,337.071 207.449,334.737 206.5,332.5C 204.179,332.771 202.179,332.104 200.5,330.5C 198.808,332.359 197.308,334.359 196,336.5C 195.184,337.823 194.017,338.489 192.5,338.5C 192.963,335.518 193.296,332.518 193.5,329.5C 193.833,328.833 194.167,328.167 194.5,327.5C 198.984,323.422 203.984,320.089 209.5,317.5 Z"/></g>
<g><path style="opacity:1" fill="#42485a" d="M 323.5,311.5 C 327.998,315.83 332.665,319.997 337.5,324C 353.063,333.89 369.397,335.723 386.5,329.5C 388.553,329.598 390.22,328.931 391.5,327.5C 393.284,327.107 394.95,326.441 396.5,325.5C 396.611,326.117 396.944,326.617 397.5,327C 391.314,331.542 384.314,333.875 376.5,334C 355.143,336.796 337.643,329.963 324,313.5C 323.536,312.906 323.369,312.239 323.5,311.5 Z"/></g>
<g><path style="opacity:1" fill="#d1e6d0" d="M 194.5,319.5 C 194.5,322.167 194.5,324.833 194.5,327.5C 194.167,328.167 193.833,328.833 193.5,329.5C 191.122,331.878 189.122,334.545 187.5,337.5C 182.903,343.366 179.903,350.033 178.5,357.5C 176.799,363.919 176.133,370.585 176.5,377.5C 176.649,378.552 176.483,379.552 176,380.5C 173.648,378.326 172.481,375.659 172.5,372.5C 171.5,372.5 170.5,372.5 169.5,372.5C 169.5,369.833 169.5,367.167 169.5,364.5C 169.366,362.708 169.699,361.042 170.5,359.5C 173.899,343.363 181.899,330.03 194.5,319.5 Z"/></g>
<g><path style="opacity:1" fill="#23b605" d="M 212.5,316.5 C 214.121,316.787 215.121,317.787 215.5,319.5C 213.649,324.697 213.149,330.03 214,335.5C 214.414,335.043 214.914,334.709 215.5,334.5C 216.429,335.689 216.762,337.022 216.5,338.5C 217.552,338.649 218.552,338.483 219.5,338C 221.88,335.159 224.213,332.326 226.5,329.5C 229.428,328.516 232.428,328.183 235.5,328.5C 235.5,330.5 235.5,332.5 235.5,334.5C 231.208,333.238 227.208,333.904 223.5,336.5C 221.311,342.619 219.311,348.786 217.5,355C 217.167,355.167 216.833,355.333 216.5,355.5C 215.675,351.878 215.175,348.211 215,344.5C 214,347.167 213,349.833 212,352.5C 211.578,348.795 210.412,348.128 208.5,350.5C 208.5,346.833 208.5,343.167 208.5,339.5C 209.327,334.349 209.827,329.016 210,323.5C 210.635,322.034 211.469,320.7 212.5,319.5C 211.398,318.824 210.398,318.158 209.5,317.5C 210.391,316.89 211.391,316.557 212.5,316.5 Z"/></g>
<g><path style="opacity:1" fill="#2ad723" d="M 208.5,339.5 C 208.5,343.167 208.5,346.833 208.5,350.5C 207.014,355.094 204.847,359.428 202,363.5C 198.779,366.694 194.946,368.694 190.5,369.5C 188.058,364.979 186.391,360.479 185.5,356C 185.773,354.467 186.106,352.967 186.5,351.5C 189.542,347.699 191.542,343.366 192.5,338.5C 194.017,338.489 195.184,337.823 196,336.5C 197.308,334.359 198.808,332.359 200.5,330.5C 202.179,332.104 204.179,332.771 206.5,332.5C 207.449,334.737 208.116,337.071 208.5,339.5 Z"/></g>
<g><path style="opacity:1" fill="#2e890b" d="M 245.5,314.5 C 245.5,314.833 245.5,315.167 245.5,315.5C 245.322,316.695 244.989,317.862 244.5,319C 246.152,323.945 247.486,328.945 248.5,334C 248.951,338.05 247.285,339.717 243.5,339C 242.15,337.282 240.983,335.448 240,333.5C 239.667,336.833 239.333,340.167 239,343.5C 237.609,336.254 237.109,328.921 237.5,321.5C 237.5,318.833 237.5,316.167 237.5,313.5C 240.299,312.074 242.966,312.408 245.5,314.5 Z"/></g>
<g><path style="opacity:1" fill="#35ab24" d="M 251.5,313.5 C 264.801,316.484 275.468,323.484 283.5,334.5C 289.959,343.093 293.959,352.759 295.5,363.5C 294.833,363.5 294.167,363.5 293.5,363.5C 292.081,362.549 290.415,362.216 288.5,362.5C 288.399,358.294 286.566,354.627 283,351.5C 282.667,349.833 282.333,348.167 282,346.5C 280.384,345.199 278.884,345.199 277.5,346.5C 275.037,344.539 272.703,342.372 270.5,340C 269.207,339.51 267.873,339.343 266.5,339.5C 266.918,338.778 267.584,338.278 268.5,338C 266.382,333.014 265.049,328.014 264.5,323C 262.021,320.943 259.188,319.443 256,318.5C 255.82,320.488 255.986,322.488 256.5,324.5C 254.831,322.338 252.831,322.005 250.5,323.5C 249.831,320.151 248.164,317.484 245.5,315.5C 245.5,315.167 245.5,314.833 245.5,314.5C 247.265,313.539 249.265,313.205 251.5,313.5 Z"/></g>
<g><path style="opacity:1" fill="#1d2330" d="M 302.5,296.5 C 303.496,296.414 304.329,296.748 305,297.5C 308.978,309.857 316.478,319.19 327.5,325.5C 327.5,326.5 327.5,327.5 327.5,328.5C 328.873,328.343 330.207,328.51 331.5,329C 332.783,332.685 335.117,334.019 338.5,333C 341.563,334.525 344.23,336.525 346.5,339C 348.112,339.72 349.612,339.554 351,338.5C 370.891,344.742 389.725,342.242 407.5,331C 409.366,327.946 412.033,326.446 415.5,326.5C 413.748,328.246 412.415,330.246 411.5,332.5C 410.737,333.268 409.737,333.768 408.5,334C 407.941,334.725 407.608,335.558 407.5,336.5C 408.85,341.231 409.85,345.898 410.5,350.5C 407.398,346.635 404.065,342.968 400.5,339.5C 397.816,340.842 395.15,342.175 392.5,343.5C 389.994,344.75 387.327,345.416 384.5,345.5C 355.637,351.002 331.803,342.669 313,320.5C 308.803,312.804 305.303,304.804 302.5,296.5 Z"/></g>
<g><path style="opacity:1" fill="#b7b7a2" d="M 283.5,296.5 C 283.833,296.5 284.167,296.5 284.5,296.5C 285.78,304.126 286.78,311.793 287.5,319.5C 294.813,318.813 302.146,318.479 309.5,318.5C 327.537,342.505 351.537,352.172 381.5,347.5C 380.909,348.151 380.243,348.818 379.5,349.5C 381.879,352.757 382.879,356.424 382.5,360.5C 372.516,359.787 362.516,359.453 352.5,359.5C 336.732,359.143 321.065,360.143 305.5,362.5C 304.5,362.5 303.5,362.5 302.5,362.5C 302.5,361.833 302.167,361.5 301.5,361.5C 301.543,358.09 301.043,354.757 300,351.5C 297.707,348.544 296.373,345.21 296,341.5C 294.301,338.079 292.135,335.079 289.5,332.5C 287.669,328.846 285.336,325.513 282.5,322.5C 283.124,322.083 283.457,321.416 283.5,320.5C 281.781,312.326 281.781,304.326 283.5,296.5 Z"/></g>
<g><path style="opacity:1" fill="#1cc206" d="M 235.5,334.5 C 235.5,336.5 235.5,338.5 235.5,340.5C 235.818,345.032 235.485,349.366 234.5,353.5C 232.862,351.699 231.029,350.033 229,348.5C 226.933,348.9 224.767,349.9 222.5,351.5C 220.795,357.888 217.128,362.888 211.5,366.5C 211.863,367.183 212.196,367.85 212.5,368.5C 206.705,368.599 202.372,371.266 199.5,376.5C 196.946,377.388 194.279,377.721 191.5,377.5C 190.761,377.631 190.094,377.464 189.5,377C 190.293,375.915 190.96,374.748 191.5,373.5C 188.914,372.52 186.247,372.187 183.5,372.5C 185.282,370.643 187.615,369.643 190.5,369.5C 194.946,368.694 198.779,366.694 202,363.5C 204.847,359.428 207.014,355.094 208.5,350.5C 210.412,348.128 211.578,348.795 212,352.5C 213,349.833 214,347.167 215,344.5C 215.175,348.211 215.675,351.878 216.5,355.5C 216.833,355.333 217.167,355.167 217.5,355C 219.311,348.786 221.311,342.619 223.5,336.5C 227.208,333.904 231.208,333.238 235.5,334.5 Z"/></g>
<g><path style="opacity:1" fill="#f0fdf0" d="M 266.5,339.5 C 267.873,339.343 269.207,339.51 270.5,340C 272.703,342.372 275.037,344.539 277.5,346.5C 275.009,351.478 272.009,356.145 268.5,360.5C 265.965,355.281 262.965,350.281 259.5,345.5C 260.633,342.029 262.967,340.029 266.5,339.5 Z"/></g>
<g><path style="opacity:0.998" fill="#d4d1cc" d="M 410.5,350.5 C 411.248,352.332 412.248,353.999 413.5,355.5C 412.969,357.544 411.802,359.211 410,360.5C 409.421,361.928 409.588,363.262 410.5,364.5C 405.516,363.725 400.516,363.058 395.5,362.5C 395.073,356.014 394.073,349.681 392.5,343.5C 395.15,342.175 397.816,340.842 400.5,339.5C 404.065,342.968 407.398,346.635 410.5,350.5 Z"/></g>
<g><path style="opacity:1" fill="#77e376" d="M 193.5,329.5 C 193.296,332.518 192.963,335.518 192.5,338.5C 191.542,343.366 189.542,347.699 186.5,351.5C 184.754,353.252 182.754,354.585 180.5,355.5C 181.596,350.642 183.762,346.309 187,342.5C 187.494,340.866 187.66,339.199 187.5,337.5C 189.122,334.545 191.122,331.878 193.5,329.5 Z"/></g>
<g><path style="opacity:1" fill="#0e9d02" d="M 256.5,324.5 C 257.302,331.804 257.635,339.138 257.5,346.5C 255.173,346.247 253.173,346.914 251.5,348.5C 249.121,351.757 248.121,355.424 248.5,359.5C 245.863,359.674 243.53,360.341 241.5,361.5C 240.668,354.514 240.501,347.514 241,340.5C 243.333,343.5 245.667,346.5 248,349.5C 249.816,346.402 251.816,343.402 254,340.5C 254.667,338.167 254.667,335.833 254,333.5C 252.54,330.252 251.374,326.919 250.5,323.5C 252.831,322.005 254.831,322.338 256.5,324.5 Z"/></g>
<g><path style="opacity:1" fill="#1f940b" d="M 245.5,315.5 C 248.164,317.484 249.831,320.151 250.5,323.5C 251.374,326.919 252.54,330.252 254,333.5C 254.667,335.833 254.667,338.167 254,340.5C 251.816,343.402 249.816,346.402 248,349.5C 245.667,346.5 243.333,343.5 241,340.5C 240.501,347.514 240.668,354.514 241.5,361.5C 241.662,363.527 241.495,365.527 241,367.5C 240.667,367.167 240.333,366.833 240,366.5C 240.138,357.603 238.971,348.937 236.5,340.5C 236.177,333.978 236.51,327.645 237.5,321.5C 237.109,328.921 237.609,336.254 239,343.5C 239.333,340.167 239.667,336.833 240,333.5C 240.983,335.448 242.15,337.282 243.5,339C 247.285,339.717 248.951,338.05 248.5,334C 247.486,328.945 246.152,323.945 244.5,319C 244.989,317.862 245.322,316.695 245.5,315.5 Z"/></g>
<g><path style="opacity:1" fill="#94bc7f" d="M 289.5,332.5 C 292.135,335.079 294.301,338.079 296,341.5C 296.373,345.21 297.707,348.544 300,351.5C 301.043,354.757 301.543,358.09 301.5,361.5C 300.883,361.389 300.383,361.056 300,360.5C 299.722,361.416 299.222,362.082 298.5,362.5C 298.662,360.473 298.495,358.473 298,356.5C 295.079,349.659 291.912,342.993 288.5,336.5C 289.117,336.611 289.617,336.944 290,337.5C 290.384,335.803 290.218,334.137 289.5,332.5 Z"/></g>
<g><path style="opacity:1" fill="#292f40" d="M 411.5,332.5 C 415.853,337.527 419.853,342.86 423.5,348.5C 423.167,349.167 422.833,349.833 422.5,350.5C 419.738,352.596 416.738,354.262 413.5,355.5C 412.248,353.999 411.248,352.332 410.5,350.5C 409.85,345.898 408.85,341.231 407.5,336.5C 407.608,335.558 407.941,334.725 408.5,334C 409.737,333.768 410.737,333.268 411.5,332.5 Z"/></g>
<g><path style="opacity:1" fill="#383734" d="M 299.5,268.5 C 299.833,268.5 300.167,268.5 300.5,268.5C 300.105,277.965 300.772,287.298 302.5,296.5C 305.303,304.804 308.803,312.804 313,320.5C 331.803,342.669 355.637,351.002 384.5,345.5C 383.71,346.401 382.71,347.068 381.5,347.5C 351.537,352.172 327.537,342.505 309.5,318.5C 309.25,316.326 308.25,314.659 306.5,313.5C 305.35,310.702 304.017,308.035 302.5,305.5C 302.5,304.5 302.5,303.5 302.5,302.5C 302.068,301.29 301.401,300.29 300.5,299.5C 300.784,297.585 300.451,295.919 299.5,294.5C 299.577,290.785 299.244,287.119 298.5,283.5C 299.021,279.519 299.354,275.519 299.5,271.5C 299.5,270.5 299.5,269.5 299.5,268.5 Z"/></g>
<g><path style="opacity:1" fill="#c0bcb0" d="M 392.5,343.5 C 394.073,349.681 395.073,356.014 395.5,362.5C 391.147,361.941 386.814,361.275 382.5,360.5C 382.879,356.424 381.879,352.757 379.5,349.5C 380.243,348.818 380.909,348.151 381.5,347.5C 382.71,347.068 383.71,346.401 384.5,345.5C 387.327,345.416 389.994,344.75 392.5,343.5 Z"/></g>
<g><path style="opacity:1" fill="#e5fde4" d="M 259.5,345.5 C 262.965,350.281 265.965,355.281 268.5,360.5C 266.322,362.858 264.655,365.525 263.5,368.5C 263.167,368.5 262.833,368.5 262.5,368.5C 261.542,368.047 260.708,367.381 260,366.5C 258.376,362.054 256.543,357.721 254.5,353.5C 255.669,350.489 257.336,347.822 259.5,345.5 Z"/></g>
<g><path style="opacity:1" fill="#06c902" d="M 234.5,353.5 C 234.861,359.593 234.361,365.593 233,371.5C 232.395,373.481 231.395,373.815 230,372.5C 228.266,373.249 226.433,373.749 224.5,374C 222.991,377.669 224.324,379.169 228.5,378.5C 227.713,380.104 226.38,380.771 224.5,380.5C 221.858,376.852 219.191,373.185 216.5,369.5C 215.675,368.614 214.675,368.281 213.5,368.5C 213.167,368.5 212.833,368.5 212.5,368.5C 212.196,367.85 211.863,367.183 211.5,366.5C 217.128,362.888 220.795,357.888 222.5,351.5C 224.767,349.9 226.933,348.9 229,348.5C 231.029,350.033 232.862,351.699 234.5,353.5 Z"/></g>
<g><path style="opacity:1" fill="#c55b28" d="M 430.5,355.5 C 432.052,354.378 433.718,353.878 435.5,354C 434.429,354.852 433.429,355.685 432.5,356.5C 431.5,356.833 430.833,357.5 430.5,358.5C 427.32,360.255 424.32,362.255 421.5,364.5C 420.5,364.833 419.833,365.5 419.5,366.5C 417.77,367.026 416.436,368.026 415.5,369.5C 414.833,369.5 414.5,369.167 414.5,368.5C 414.343,367.127 414.51,365.793 415,364.5C 418.841,365.995 420.174,364.661 419,360.5C 415.898,356.658 417.064,354.325 422.5,353.5C 424.872,354.103 427.039,355.103 429,356.5C 429.765,356.43 430.265,356.097 430.5,355.5 Z"/></g>
<g><path style="opacity:1" fill="#d67b4e" d="M 456.5,369.5 C 463.361,375.358 468.694,382.358 472.5,390.5C 468.217,385.88 463.883,381.213 459.5,376.5C 458.603,373.071 456.603,371.738 453.5,372.5C 454.348,376.151 456.182,379.151 459,381.5C 459.986,383.925 459.319,385.591 457,386.5C 454.755,385.863 452.588,385.03 450.5,384C 446.043,378.842 441.209,374.009 436,369.5C 434.864,367.257 434.03,364.924 433.5,362.5C 438.967,368.133 444.634,373.633 450.5,379C 451.448,379.483 452.448,379.649 453.5,379.5C 452.56,376.286 451.06,373.286 449,370.5C 443.608,365.6 438.108,360.933 432.5,356.5C 433.429,355.685 434.429,354.852 435.5,354C 433.718,353.878 432.052,354.378 430.5,355.5C 427.851,353.86 425.184,352.193 422.5,350.5C 422.833,349.833 423.167,349.167 423.5,348.5C 426.115,347.357 428.782,346.524 431.5,346C 438.692,355.025 447.026,362.858 456.5,369.5 Z"/></g>
<g><path style="opacity:1" fill="#8ec273" d="M 283.5,334.5 C 285.284,334.893 286.95,335.559 288.5,336.5C 291.912,342.993 295.079,349.659 298,356.5C 298.495,358.473 298.662,360.473 298.5,362.5C 298.811,367.766 298.145,372.766 296.5,377.5C 296.815,373.629 296.482,369.962 295.5,366.5C 295.5,365.5 295.5,364.5 295.5,363.5C 293.959,352.759 289.959,343.093 283.5,334.5 Z"/></g>
<g><path style="opacity:1" fill="#1eb414" d="M 288.5,362.5 C 285.962,362.493 283.462,362.159 281,361.5C 278.117,363.525 274.951,364.858 271.5,365.5C 271.548,368.313 272.215,370.979 273.5,373.5C 273.137,374.183 272.804,374.85 272.5,375.5C 271.041,375.567 269.708,375.234 268.5,374.5C 266.833,372.5 265.167,370.5 263.5,368.5C 264.655,365.525 266.322,362.858 268.5,360.5C 272.009,356.145 275.009,351.478 277.5,346.5C 278.884,345.199 280.384,345.199 282,346.5C 282.333,348.167 282.667,349.833 283,351.5C 286.566,354.627 288.399,358.294 288.5,362.5 Z"/></g>
<g><path style="opacity:1" fill="#c96938" d="M 422.5,350.5 C 425.184,352.193 427.851,353.86 430.5,355.5C 430.265,356.097 429.765,356.43 429,356.5C 427.039,355.103 424.872,354.103 422.5,353.5C 417.064,354.325 415.898,356.658 419,360.5C 420.174,364.661 418.841,365.995 415,364.5C 414.51,365.793 414.343,367.127 414.5,368.5C 412.833,367.5 411.5,366.167 410.5,364.5C 409.588,363.262 409.421,361.928 410,360.5C 411.802,359.211 412.969,357.544 413.5,355.5C 416.738,354.262 419.738,352.596 422.5,350.5 Z"/></g>
<g><path style="opacity:1" fill="#d88c68" d="M 432.5,356.5 C 438.108,360.933 443.608,365.6 449,370.5C 451.06,373.286 452.56,376.286 453.5,379.5C 452.448,379.649 451.448,379.483 450.5,379C 444.634,373.633 438.967,368.133 433.5,362.5C 432.026,361.564 431.026,360.23 430.5,358.5C 430.833,357.5 431.5,356.833 432.5,356.5 Z"/></g>
<g><path style="opacity:1" fill="#d4fdd2" d="M 254.5,353.5 C 256.543,357.721 258.376,362.054 260,366.5C 260.708,367.381 261.542,368.047 262.5,368.5C 260.807,371.184 259.14,373.851 257.5,376.5C 253.679,380.806 250.345,385.473 247.5,390.5C 246.272,391.306 245.272,392.306 244.5,393.5C 239.306,392.7 233.972,391.867 228.5,391C 220.515,387.574 216.515,381.74 216.5,373.5C 218.5,375.833 220.5,378.167 222.5,380.5C 224.113,383.286 225.946,385.953 228,388.5C 229.376,387.295 230.542,385.962 231.5,384.5C 238.027,387.29 243.86,385.957 249,380.5C 252.343,374.081 252.176,367.748 248.5,361.5C 250.025,358.437 252.025,355.77 254.5,353.5 Z"/></g>
<g><path style="opacity:1" fill="#2cb21b" d="M 266.5,339.5 C 262.967,340.029 260.633,342.029 259.5,345.5C 257.336,347.822 255.669,350.489 254.5,353.5C 252.025,355.77 250.025,358.437 248.5,361.5C 245.936,364.28 243.603,367.28 241.5,370.5C 240.5,370.5 239.5,370.5 238.5,370.5C 238.5,371.5 238.5,372.5 238.5,373.5C 234.017,373.075 230.683,374.741 228.5,378.5C 224.324,379.169 222.991,377.669 224.5,374C 226.433,373.749 228.266,373.249 230,372.5C 231.395,373.815 232.395,373.481 233,371.5C 234.361,365.593 234.861,359.593 234.5,353.5C 235.485,349.366 235.818,345.032 235.5,340.5C 235.833,340.5 236.167,340.5 236.5,340.5C 238.971,348.937 240.138,357.603 240,366.5C 240.333,366.833 240.667,367.167 241,367.5C 241.495,365.527 241.662,363.527 241.5,361.5C 243.53,360.341 245.863,359.674 248.5,359.5C 248.121,355.424 249.121,351.757 251.5,348.5C 253.173,346.914 255.173,346.247 257.5,346.5C 257.635,339.138 257.302,331.804 256.5,324.5C 255.986,322.488 255.82,320.488 256,318.5C 259.188,319.443 262.021,320.943 264.5,323C 265.049,328.014 266.382,333.014 268.5,338C 267.584,338.278 266.918,338.778 266.5,339.5 Z"/></g>
<g><path style="opacity:1" fill="#54d84c" d="M 186.5,351.5 C 186.106,352.967 185.773,354.467 185.5,356C 186.391,360.479 188.058,364.979 190.5,369.5C 187.615,369.643 185.282,370.643 183.5,372.5C 182.167,372.5 180.833,372.5 179.5,372.5C 179.5,372.167 179.5,371.833 179.5,371.5C 180.488,366.36 180.821,361.026 180.5,355.5C 182.754,354.585 184.754,353.252 186.5,351.5 Z"/></g>
<g><path style="opacity:1" fill="#a6a39d" d="M 152.5,360.5 C 139.64,362.769 126.64,364.936 113.5,367C 100.845,370 88.1784,373 75.5,376C 72.5184,376.498 69.5184,376.665 66.5,376.5C 64.1667,376.167 62.8333,374.833 62.5,372.5C 68.4164,370.521 74.4164,368.854 80.5,367.5C 104.193,362.285 128.193,359.952 152.5,360.5 Z"/></g>
<g><path style="opacity:1" fill="#a7d4a1" d="M 178.5,357.5 C 178.5,362.167 178.5,366.833 178.5,371.5C 177.539,373.265 177.205,375.265 177.5,377.5C 177.167,377.5 176.833,377.5 176.5,377.5C 176.133,370.585 176.799,363.919 178.5,357.5 Z"/></g>
<g><path style="opacity:1" fill="#c6fdc3" d="M 248.5,361.5 C 252.176,367.748 252.343,374.081 249,380.5C 243.86,385.957 238.027,387.29 231.5,384.5C 234.833,379.833 238.167,375.167 241.5,370.5C 243.603,367.28 245.936,364.28 248.5,361.5 Z"/></g>
<g><path style="opacity:1" fill="#80a35c" d="M 301.5,361.5 C 302.167,361.5 302.5,361.833 302.5,362.5C 302.5,367.5 302.5,372.5 302.5,377.5C 302.5,378.167 302.5,378.833 302.5,379.5C 302.5,380.5 302.5,381.5 302.5,382.5C 301.833,383.833 301.167,385.167 300.5,386.5C 301.363,377.141 300.196,376.141 297,383.5C 296.505,381.527 296.338,379.527 296.5,377.5C 298.145,372.766 298.811,367.766 298.5,362.5C 299.222,362.082 299.722,361.416 300,360.5C 300.383,361.056 300.883,361.389 301.5,361.5 Z"/></g>
<g><path style="opacity:1" fill="#209013" d="M 293.5,363.5 C 294.167,363.5 294.833,363.5 295.5,363.5C 295.5,364.5 295.5,365.5 295.5,366.5C 295.5,370.167 295.5,373.833 295.5,377.5C 291.993,376.994 288.826,377.66 286,379.5C 284.688,377.342 283.022,377.009 281,378.5C 278.723,377.883 276.556,377.216 274.5,376.5C 277.34,375.88 280.174,375.213 283,374.5C 283.333,374.833 283.667,375.167 284,375.5C 285.509,374.91 287.009,374.244 288.5,373.5C 289.326,372.549 289.492,371.549 289,370.5C 286.572,369.37 284.405,367.87 282.5,366C 285.827,365.39 289.161,364.89 292.5,364.5C 293.045,368.172 293.378,367.838 293.5,363.5 Z"/></g>
<g><path style="opacity:1" fill="#8d8a6a" d="M 352.5,359.5 C 351.048,360.302 349.382,360.802 347.5,361C 362.842,361.852 377.842,364.518 392.5,369C 393.833,369.667 395.167,370.333 396.5,371C 396,371.5 395.5,372 395,372.5C 393.308,370.755 391.475,370.422 389.5,371.5C 391.765,373.127 394.099,374.461 396.5,375.5C 387.8,374.299 379.134,372.966 370.5,371.5C 368.444,370.784 366.277,370.117 364,369.5C 363.586,369.957 363.086,370.291 362.5,370.5C 358.944,369.26 355.444,367.927 352,366.5C 351.439,367.022 350.772,367.355 350,367.5C 344.362,364.556 338.529,363.89 332.5,365.5C 323.29,365.065 314.29,364.065 305.5,362.5C 321.065,360.143 336.732,359.143 352.5,359.5 Z"/></g>
<g><path style="opacity:1" fill="#c7c1b7" d="M 170.5,359.5 C 169.699,361.042 169.366,362.708 169.5,364.5C 139.82,366.224 110.487,370.39 81.5,377C 76.3158,377.816 71.3158,377.65 66.5,376.5C 69.5184,376.665 72.5184,376.498 75.5,376C 88.1784,373 100.845,370 113.5,367C 126.64,364.936 139.64,362.769 152.5,360.5C 158.477,359.835 164.477,359.502 170.5,359.5 Z"/></g>
<g><path style="opacity:1" fill="#84db82" d="M 187.5,337.5 C 187.66,339.199 187.494,340.866 187,342.5C 183.762,346.309 181.596,350.642 180.5,355.5C 180.821,361.026 180.488,366.36 179.5,371.5C 179.167,371.5 178.833,371.5 178.5,371.5C 178.5,366.833 178.5,362.167 178.5,357.5C 179.903,350.033 182.903,343.366 187.5,337.5 Z"/></g>
<g><path style="opacity:1" fill="#159f0b" d="M 288.5,362.5 C 290.415,362.216 292.081,362.549 293.5,363.5C 293.378,367.838 293.045,368.172 292.5,364.5C 289.161,364.89 285.827,365.39 282.5,366C 284.405,367.87 286.572,369.37 289,370.5C 289.492,371.549 289.326,372.549 288.5,373.5C 287.009,374.244 285.509,374.91 284,375.5C 283.667,375.167 283.333,374.833 283,374.5C 280.174,375.213 277.34,375.88 274.5,376.5C 273.833,376.5 273.167,376.5 272.5,376.5C 272.5,376.167 272.5,375.833 272.5,375.5C 272.804,374.85 273.137,374.183 273.5,373.5C 272.215,370.979 271.548,368.313 271.5,365.5C 274.951,364.858 278.117,363.525 281,361.5C 283.462,362.159 285.962,362.493 288.5,362.5 Z"/></g>
<g><path style="opacity:1" fill="#969873" d="M 302.5,362.5 C 303.5,362.5 304.5,362.5 305.5,362.5C 314.29,364.065 323.29,365.065 332.5,365.5C 338.529,363.89 344.362,364.556 350,367.5C 350.772,367.355 351.439,367.022 352,366.5C 355.444,367.927 358.944,369.26 362.5,370.5C 363.086,370.291 363.586,369.957 364,369.5C 366.277,370.117 368.444,370.784 370.5,371.5C 364.703,371.448 358.703,371.615 352.5,372C 353.167,372.667 353.833,373.333 354.5,374C 357.955,374.12 360.622,374.62 362.5,375.5C 342.447,375.077 322.447,375.743 302.5,377.5C 302.5,372.5 302.5,367.5 302.5,362.5 Z"/></g>
<g><path style="opacity:1" fill="#e8fce7" d="M 212.5,368.5 C 212.047,369.458 211.381,370.292 210.5,371C 213.336,388.673 223.669,397.506 241.5,397.5C 238.371,401.131 235.037,404.631 231.5,408C 228.773,408.818 226.106,408.652 223.5,407.5C 213.922,398.272 205.922,387.938 199.5,376.5C 202.372,371.266 206.705,368.599 212.5,368.5 Z"/></g>
<g><path style="opacity:1" fill="#ddfddc" d="M 212.5,368.5 C 212.833,368.5 213.167,368.5 213.5,368.5C 214.248,370.332 215.248,371.999 216.5,373.5C 216.515,381.74 220.515,387.574 228.5,391C 233.972,391.867 239.306,392.7 244.5,393.5C 243.488,394.872 242.488,396.205 241.5,397.5C 223.669,397.506 213.336,388.673 210.5,371C 211.381,370.292 212.047,369.458 212.5,368.5 Z"/></g>
<g><path style="opacity:1" fill="#8c8164" d="M 352.5,359.5 C 362.516,359.453 372.516,359.787 382.5,360.5C 386.814,361.275 391.147,361.941 395.5,362.5C 400.516,363.058 405.516,363.725 410.5,364.5C 411.5,366.167 412.833,367.5 414.5,368.5C 414.5,369.167 414.833,369.5 415.5,369.5C 416.833,373.5 418.167,377.5 419.5,381.5C 411.807,379.992 404.14,377.992 396.5,375.5C 394.099,374.461 391.765,373.127 389.5,371.5C 391.475,370.422 393.308,370.755 395,372.5C 395.5,372 396,371.5 396.5,371C 395.167,370.333 393.833,369.667 392.5,369C 377.842,364.518 362.842,361.852 347.5,361C 349.382,360.802 351.048,360.302 352.5,359.5 Z"/></g>
<g><path style="opacity:1" fill="#4cf720" d="M 213.5,368.5 C 214.675,368.281 215.675,368.614 216.5,369.5C 219.191,373.185 221.858,376.852 224.5,380.5C 223.833,380.5 223.167,380.5 222.5,380.5C 220.5,378.167 218.5,375.833 216.5,373.5C 215.248,371.999 214.248,370.332 213.5,368.5 Z"/></g>
<g><path style="opacity:1" fill="#4cc831" d="M 241.5,370.5 C 238.167,375.167 234.833,379.833 231.5,384.5C 230.542,385.962 229.376,387.295 228,388.5C 225.946,385.953 224.113,383.286 222.5,380.5C 223.167,380.5 223.833,380.5 224.5,380.5C 226.38,380.771 227.713,380.104 228.5,378.5C 230.683,374.741 234.017,373.075 238.5,373.5C 238.5,372.5 238.5,371.5 238.5,370.5C 239.5,370.5 240.5,370.5 241.5,370.5 Z"/></g>
<g><path style="opacity:1" fill="#dcd8d4" d="M 169.5,364.5 C 169.5,367.167 169.5,369.833 169.5,372.5C 165.833,372.5 162.167,372.5 158.5,372.5C 135.463,372.887 112.796,375.887 90.5,381.5C 88.0347,381.767 85.7014,382.434 83.5,383.5C 83.1667,383.5 82.8333,383.5 82.5,383.5C 81.1667,383.833 79.8333,384.167 78.5,384.5C 78.5299,383.503 78.0299,382.836 77,382.5C 71.9817,383.271 67.1483,382.437 62.5,380C 59.8598,377.379 59.8598,374.879 62.5,372.5C 62.8333,374.833 64.1667,376.167 66.5,376.5C 71.3158,377.65 76.3158,377.816 81.5,377C 110.487,370.39 139.82,366.224 169.5,364.5 Z"/></g>
<g><path style="opacity:1" fill="#9e9375" d="M 370.5,371.5 C 379.134,372.966 387.8,374.299 396.5,375.5C 404.14,377.992 411.807,379.992 419.5,381.5C 420.338,381.842 420.672,382.508 420.5,383.5C 414.422,382.931 408.422,381.931 402.5,380.5C 389.044,378.691 375.711,377.025 362.5,375.5C 360.622,374.62 357.955,374.12 354.5,374C 353.833,373.333 353.167,372.667 352.5,372C 358.703,371.615 364.703,371.448 370.5,371.5 Z"/></g>
<g><path style="opacity:1" fill="#d27038" d="M 430.5,358.5 C 431.026,360.23 432.026,361.564 433.5,362.5C 434.03,364.924 434.864,367.257 436,369.5C 441.209,374.009 446.043,378.842 450.5,384C 452.588,385.03 454.755,385.863 457,386.5C 459.319,385.591 459.986,383.925 459,381.5C 456.182,379.151 454.348,376.151 453.5,372.5C 456.603,371.738 458.603,373.071 459.5,376.5C 458.903,376.735 458.57,377.235 458.5,378C 461.231,380.988 461.898,384.321 460.5,388C 456.29,389.02 452.623,388.02 449.5,385C 447.866,384.506 446.199,384.34 444.5,384.5C 445.301,387.568 445.635,390.568 445.5,393.5C 444.833,396.833 444.167,400.167 443.5,403.5C 443.437,405.481 444.104,407.148 445.5,408.5C 442.574,412.588 443.574,415.254 448.5,416.5C 448.842,417.338 449.508,417.672 450.5,417.5C 450.5,417.833 450.5,418.167 450.5,418.5C 448.102,418.741 446.102,418.074 444.5,416.5C 440.112,410.659 435.779,404.826 431.5,399C 432.044,398.283 432.711,397.783 433.5,397.5C 435.068,398.869 436.901,399.869 439,400.5C 437.492,386.991 432.325,375.158 423.5,365C 422.906,364.536 422.239,364.369 421.5,364.5C 424.32,362.255 427.32,360.255 430.5,358.5 Z"/></g>
<g><path style="opacity:1" fill="#c38434" d="M 158.5,372.5 C 162.167,372.5 165.833,372.5 169.5,372.5C 169.5,373.167 169.5,373.833 169.5,374.5C 149.744,377.343 130.411,381.677 111.5,387.5C 103.515,388.391 95.5153,388.558 87.5,388C 84.5529,387.888 83.2196,386.388 83.5,383.5C 85.7014,382.434 88.0347,381.767 90.5,381.5C 92.7586,383.755 95.592,384.755 99,384.5C 119.114,381.291 138.948,377.291 158.5,372.5 Z"/></g>
<g><path style="opacity:1" fill="#68ba25" d="M 179.5,372.5 C 180.833,372.5 182.167,372.5 183.5,372.5C 186.247,372.187 188.914,372.52 191.5,373.5C 190.96,374.748 190.293,375.915 189.5,377C 190.094,377.464 190.761,377.631 191.5,377.5C 189.167,378.167 186.833,378.833 184.5,379.5C 182.833,379.5 181.167,379.5 179.5,379.5C 179.5,377.167 179.5,374.833 179.5,372.5 Z"/></g>
<g><path style="opacity:1" fill="#995313" d="M 362.5,375.5 C 375.711,377.025 389.044,378.691 402.5,380.5C 379.667,380.559 357.167,380.893 335,381.5C 324.109,380.544 313.276,379.877 302.5,379.5C 302.5,378.833 302.5,378.167 302.5,377.5C 322.447,375.743 342.447,375.077 362.5,375.5 Z"/></g>
<g><path style="opacity:1" fill="#b6712a" d="M 158.5,372.5 C 138.948,377.291 119.114,381.291 99,384.5C 95.592,384.755 92.7586,383.755 90.5,381.5C 112.796,375.887 135.463,372.887 158.5,372.5 Z"/></g>
<g><path style="opacity:1" fill="#1a7104" d="M 272.5,376.5 C 273.167,376.5 273.833,376.5 274.5,376.5C 276.556,377.216 278.723,377.883 281,378.5C 283.022,377.009 284.688,377.342 286,379.5C 288.826,377.66 291.993,376.994 295.5,377.5C 295.371,379.216 295.038,380.883 294.5,382.5C 286.453,382.723 278.453,382.223 270.5,381C 268.561,380.092 267.561,378.592 267.5,376.5C 269.167,376.5 270.833,376.5 272.5,376.5 Z"/></g>
<g><path style="opacity:1" fill="#76af4d" d="M 178.5,371.5 C 178.833,371.5 179.167,371.5 179.5,371.5C 179.5,371.833 179.5,372.167 179.5,372.5C 179.5,374.833 179.5,377.167 179.5,379.5C 179.5,380.833 179.5,382.167 179.5,383.5C 179.5,384.833 179.5,386.167 179.5,387.5C 178.215,384.411 177.549,381.078 177.5,377.5C 177.205,375.265 177.539,373.265 178.5,371.5 Z"/></g>
<g><path style="opacity:1" fill="#e4c283" d="M 169.5,376.5 C 169.366,378.292 169.699,379.958 170.5,381.5C 148.76,384.034 127.094,387.034 105.5,390.5C 104.448,390.649 103.448,390.483 102.5,390C 105.742,389.594 108.742,388.761 111.5,387.5C 126.497,385.918 141.163,382.751 155.5,378C 160.184,377.565 164.851,377.065 169.5,376.5 Z"/></g>
<g><path style="opacity:1" fill="#168c02" d="M 268.5,374.5 C 269.708,375.234 271.041,375.567 272.5,375.5C 272.5,375.833 272.5,376.167 272.5,376.5C 270.833,376.5 269.167,376.5 267.5,376.5C 267.561,378.592 268.561,380.092 270.5,381C 278.453,382.223 286.453,382.723 294.5,382.5C 294.483,384.565 294.15,386.565 293.5,388.5C 292.596,387.791 292.263,386.791 292.5,385.5C 289.751,385.726 287.084,385.393 284.5,384.5C 283.713,385.242 283.047,386.075 282.5,387C 275.171,388.415 268.338,387.249 262,383.5C 260.092,380.794 259.259,377.794 259.5,374.5C 262.5,374.5 265.5,374.5 268.5,374.5 Z"/></g>
<g><path style="opacity:1" fill="#a66117" d="M 302.5,379.5 C 313.276,379.877 324.109,380.544 335,381.5C 357.167,380.893 379.667,380.559 402.5,380.5C 408.422,381.931 414.422,382.931 420.5,383.5C 422.121,386.741 423.787,390.075 425.5,393.5C 425.137,394.183 424.804,394.85 424.5,395.5C 423.167,395.5 421.833,395.5 420.5,395.5C 384.652,392.209 349.152,389.542 314,387.5C 310.239,386.381 306.406,385.714 302.5,385.5C 302.5,384.5 302.5,383.5 302.5,382.5C 302.5,381.5 302.5,380.5 302.5,379.5 Z"/></g>
<g><path style="opacity:1" fill="#d8a756" d="M 169.5,374.5 C 169.5,375.167 169.5,375.833 169.5,376.5C 164.851,377.065 160.184,377.565 155.5,378C 141.163,382.751 126.497,385.918 111.5,387.5C 130.411,381.677 149.744,377.343 169.5,374.5 Z"/></g>
<g><path style="opacity:1" fill="#7dae46" d="M 295.5,366.5 C 296.482,369.962 296.815,373.629 296.5,377.5C 296.338,379.527 296.505,381.527 297,383.5C 300.196,376.141 301.363,377.141 300.5,386.5C 300.5,388.167 300.5,389.833 300.5,391.5C 299.662,391.842 299.328,392.508 299.5,393.5C 298.833,394.5 298.167,395.5 297.5,396.5C 295.167,396.5 292.833,396.5 290.5,396.5C 291.5,393.833 292.5,391.167 293.5,388.5C 294.15,386.565 294.483,384.565 294.5,382.5C 295.038,380.883 295.371,379.216 295.5,377.5C 295.5,373.833 295.5,370.167 295.5,366.5 Z"/></g>
<g><path style="opacity:1" fill="#f2e1cc" d="M 76.5,385.5 C 77.8231,388.79 79.4897,391.79 81.5,394.5C 79.5,394.5 77.5,394.5 75.5,394.5C 73.0855,392.66 71.4188,390.327 70.5,387.5C 72.2143,386.262 74.2143,385.595 76.5,385.5 Z"/></g>
<g><path style="opacity:1" fill="#d39f4d" d="M 170.5,381.5 C 170.5,382.5 170.5,383.5 170.5,384.5C 141.552,388.997 112.552,393.331 83.5,397.5C 82.1667,397.167 80.8333,396.833 79.5,396.5C 82.977,395.677 86.6437,395.177 90.5,395C 95.2368,392.322 100.237,390.822 105.5,390.5C 127.094,387.034 148.76,384.034 170.5,381.5 Z"/></g>
<g><path style="opacity:1" fill="#c48a4e" d="M 170.5,384.5 C 171.612,386.599 172.279,388.933 172.5,391.5C 171.121,390.391 169.455,389.724 167.5,389.5C 142.455,392.887 117.455,396.554 92.5,400.5C 89.3232,399.663 86.3232,398.663 83.5,397.5C 112.552,393.331 141.552,388.997 170.5,384.5 Z"/></g>
<g><path style="opacity:1" fill="#d4804e" d="M 421.5,364.5 C 422.239,364.369 422.906,364.536 423.5,365C 432.325,375.158 437.492,386.991 439,400.5C 436.901,399.869 435.068,398.869 433.5,397.5C 430.273,391.376 427.273,385.042 424.5,378.5C 423.758,377.713 422.925,377.047 422,376.5C 421.339,373.054 420.505,369.721 419.5,366.5C 419.833,365.5 420.5,364.833 421.5,364.5 Z"/></g>
<g><path style="opacity:1" fill="#cb612c" d="M 459.5,376.5 C 463.883,381.213 468.217,385.88 472.5,390.5C 472.5,391.833 472.5,393.167 472.5,394.5C 471.024,393.267 469.357,392.267 467.5,391.5C 463.888,393.809 459.888,394.976 455.5,395C 454.921,398.591 453.088,401.424 450,403.5C 448.472,407.605 447.972,411.605 448.5,415.5C 448.5,415.833 448.5,416.167 448.5,416.5C 443.574,415.254 442.574,412.588 445.5,408.5C 444.104,407.148 443.437,405.481 443.5,403.5C 444.167,400.167 444.833,396.833 445.5,393.5C 445.635,390.568 445.301,387.568 444.5,384.5C 446.199,384.34 447.866,384.506 449.5,385C 452.623,388.02 456.29,389.02 460.5,388C 461.898,384.321 461.231,380.988 458.5,378C 458.57,377.235 458.903,376.735 459.5,376.5 Z"/></g>
<g><path style="opacity:1" fill="#ebd3ac" d="M 82.5,383.5 C 82.0766,384.265 81.7432,385.098 81.5,386C 83.3347,388.667 85.6681,390.833 88.5,392.5C 86.2235,393.421 83.8901,394.087 81.5,394.5C 79.4897,391.79 77.8231,388.79 76.5,385.5C 77.1667,385.167 77.8333,384.833 78.5,384.5C 79.8333,384.167 81.1667,383.833 82.5,383.5 Z"/></g>
<g><path style="opacity:1" fill="#2f9f1d" d="M 179.5,379.5 C 181.167,379.5 182.833,379.5 184.5,379.5C 189.179,379.334 193.845,379.501 198.5,380C 198.833,380.333 199.167,380.667 199.5,381C 195.595,381.608 191.928,382.775 188.5,384.5C 190.567,385.134 192.4,386.134 194,387.5C 195.88,386.07 197.38,386.404 198.5,388.5C 197.726,389.711 196.893,389.711 196,388.5C 195.167,389.5 194.333,390.5 193.5,391.5C 189.27,388.256 188.103,388.923 190,393.5C 191.751,394.809 193.251,394.475 194.5,392.5C 196.042,393.747 197.542,393.747 199,392.5C 199.903,393.701 201.069,394.535 202.5,395C 202.167,395.333 201.833,395.667 201.5,396C 203.845,398.014 205.845,400.347 207.5,403C 210.378,404.599 213.044,406.433 215.5,408.5C 221.447,409.513 227.28,410.846 233,412.5C 235.088,411.692 237.088,410.692 239,409.5C 239.333,410.167 239.667,410.833 240,411.5C 241.845,409.913 243.845,408.579 246,407.5C 246.945,407.905 247.612,408.572 248,409.5C 249,408.167 250,406.833 251,405.5C 252.117,405.665 253.284,405.998 254.5,406.5C 258.665,404.145 262.498,404.145 266,406.5C 267.851,410.004 269.184,413.67 270,417.5C 270.333,417.167 270.667,416.833 271,416.5C 271.417,417.756 272.25,418.423 273.5,418.5C 268.823,422.509 263.489,425.509 257.5,427.5C 256.624,427.631 255.957,427.298 255.5,426.5C 256.246,425.264 256.579,423.93 256.5,422.5C 255.167,422.5 253.833,422.5 252.5,422.5C 252.394,419.892 251.228,417.892 249,416.5C 246.104,417.713 242.77,418.713 239,419.5C 235.399,416.103 231.566,415.77 227.5,418.5C 226.158,417.098 225.324,417.431 225,419.5C 222.143,416.399 219.143,415.732 216,417.5C 213.389,413.263 209.889,412.096 205.5,414C 206.654,414.914 206.487,415.747 205,416.5C 204.667,415.833 204.333,415.167 204,414.5C 202.612,415.554 201.112,415.72 199.5,415C 198.167,414.333 198.167,413.667 199.5,413C 198.5,412.667 197.5,412.333 196.5,412C 196.888,410.192 196.888,408.525 196.5,407C 194.833,406.667 193.167,406.333 191.5,406C 187.134,400.219 184.801,393.885 184.5,387C 183.207,386.51 181.873,386.343 180.5,386.5C 180.737,385.209 180.404,384.209 179.5,383.5C 179.5,382.167 179.5,380.833 179.5,379.5 Z"/></g>
<g><path style="opacity:1" fill="#deb167" d="M 82.5,383.5 C 82.8333,383.5 83.1667,383.5 83.5,383.5C 83.2196,386.388 84.5529,387.888 87.5,388C 95.5153,388.558 103.515,388.391 111.5,387.5C 108.742,388.761 105.742,389.594 102.5,390C 103.448,390.483 104.448,390.649 105.5,390.5C 100.237,390.822 95.2368,392.322 90.5,395C 86.6437,395.177 82.977,395.677 79.5,396.5C 77.847,396.34 76.5137,395.674 75.5,394.5C 77.5,394.5 79.5,394.5 81.5,394.5C 83.8901,394.087 86.2235,393.421 88.5,392.5C 85.6681,390.833 83.3347,388.667 81.5,386C 81.7432,385.098 82.0766,384.265 82.5,383.5 Z"/></g>
<g><path style="opacity:1" fill="#c08647" d="M 299.5,393.5 C 302.114,394.013 305.114,394.68 308.5,395.5C 312.691,395.013 316.857,394.68 321,394.5C 354.456,396.923 387.956,398.257 421.5,398.5C 421.027,399.906 420.027,400.573 418.5,400.5C 412.963,401.866 407.297,402.533 401.5,402.5C 392.844,401.854 384.177,401.52 375.5,401.5C 362.473,401.239 349.473,400.573 336.5,399.5C 326.713,397.895 316.713,397.228 306.5,397.5C 303.391,397.264 300.391,397.597 297.5,398.5C 297.5,397.833 297.5,397.167 297.5,396.5C 298.167,395.5 298.833,394.5 299.5,393.5 Z"/></g>
<g><path style="opacity:1" fill="#ba7e35" d="M 300.5,391.5 C 340.893,393.174 381.226,395.007 421.5,397C 420.944,396.617 420.611,396.117 420.5,395.5C 421.833,395.5 423.167,395.5 424.5,395.5C 423.833,396.833 422.833,397.833 421.5,398.5C 387.956,398.257 354.456,396.923 321,394.5C 316.857,394.68 312.691,395.013 308.5,395.5C 305.114,394.68 302.114,394.013 299.5,393.5C 299.328,392.508 299.662,391.842 300.5,391.5 Z"/></g>
<g><path style="opacity:1" fill="#d87b46" d="M 419.5,366.5 C 420.505,369.721 421.339,373.054 422,376.5C 422.925,377.047 423.758,377.713 424.5,378.5C 427.273,385.042 430.273,391.376 433.5,397.5C 432.711,397.783 432.044,398.283 431.5,399C 435.779,404.826 440.112,410.659 444.5,416.5C 436.809,411.631 430.975,404.964 427,396.5C 426.329,395.748 425.496,395.414 424.5,395.5C 424.804,394.85 425.137,394.183 425.5,393.5C 423.787,390.075 422.121,386.741 420.5,383.5C 420.672,382.508 420.338,381.842 419.5,381.5C 418.167,377.5 416.833,373.5 415.5,369.5C 416.436,368.026 417.77,367.026 419.5,366.5 Z"/></g>
<g><path style="opacity:1" fill="#2fa51d" d="M 262.5,368.5 C 262.833,368.5 263.167,368.5 263.5,368.5C 265.167,370.5 266.833,372.5 268.5,374.5C 265.5,374.5 262.5,374.5 259.5,374.5C 259.259,377.794 260.092,380.794 262,383.5C 268.338,387.249 275.171,388.415 282.5,387C 283.047,386.075 283.713,385.242 284.5,384.5C 287.084,385.393 289.751,385.726 292.5,385.5C 292.263,386.791 292.596,387.791 293.5,388.5C 292.5,391.167 291.5,393.833 290.5,396.5C 286.333,405 280.666,412.333 273.5,418.5C 272.25,418.423 271.417,417.756 271,416.5C 270.667,416.833 270.333,417.167 270,417.5C 269.184,413.67 267.851,410.004 266,406.5C 262.498,404.145 258.665,404.145 254.5,406.5C 253.284,405.998 252.117,405.665 251,405.5C 250,406.833 249,408.167 248,409.5C 247.612,408.572 246.945,407.905 246,407.5C 243.845,408.579 241.845,409.913 240,411.5C 239.667,410.833 239.333,410.167 239,409.5C 237.088,410.692 235.088,411.692 233,412.5C 227.28,410.846 221.447,409.513 215.5,408.5C 213.044,406.433 210.378,404.599 207.5,403C 205.845,400.347 203.845,398.014 201.5,396C 201.833,395.667 202.167,395.333 202.5,395C 201.069,394.535 199.903,393.701 199,392.5C 197.542,393.747 196.042,393.747 194.5,392.5C 193.251,394.475 191.751,394.809 190,393.5C 188.103,388.923 189.27,388.256 193.5,391.5C 194.333,390.5 195.167,389.5 196,388.5C 196.893,389.711 197.726,389.711 198.5,388.5C 197.38,386.404 195.88,386.07 194,387.5C 192.4,386.134 190.567,385.134 188.5,384.5C 191.928,382.775 195.595,381.608 199.5,381C 199.167,380.667 198.833,380.333 198.5,380C 193.845,379.501 189.179,379.334 184.5,379.5C 186.833,378.833 189.167,378.167 191.5,377.5C 194.279,377.721 196.946,377.388 199.5,376.5C 205.922,387.938 213.922,398.272 223.5,407.5C 226.106,408.652 228.773,408.818 231.5,408C 235.037,404.631 238.371,401.131 241.5,397.5C 242.488,396.205 243.488,394.872 244.5,393.5C 245.272,392.306 246.272,391.306 247.5,390.5C 248.343,392.173 249.676,393.34 251.5,394C 262.828,395.421 274.161,395.587 285.5,394.5C 286.364,392.803 287.697,391.637 289.5,391C 279.282,390.218 268.948,388.884 258.5,387C 257.09,386.632 256.09,385.799 255.5,384.5C 257.223,382.132 257.89,379.466 257.5,376.5C 259.14,373.851 260.807,371.184 262.5,368.5 Z"/></g>
<g><path style="opacity:1" fill="#1dab05" d="M 257.5,376.5 C 257.89,379.466 257.223,382.132 255.5,384.5C 256.09,385.799 257.09,386.632 258.5,387C 268.948,388.884 279.282,390.218 289.5,391C 287.697,391.637 286.364,392.803 285.5,394.5C 274.161,395.587 262.828,395.421 251.5,394C 249.676,393.34 248.343,392.173 247.5,390.5C 250.345,385.473 253.679,380.806 257.5,376.5 Z"/></g>
<g><path style="opacity:1" fill="#b37324" d="M 302.5,382.5 C 302.5,383.5 302.5,384.5 302.5,385.5C 306.406,385.714 310.239,386.381 314,387.5C 349.152,389.542 384.652,392.209 420.5,395.5C 420.611,396.117 420.944,396.617 421.5,397C 381.226,395.007 340.893,393.174 300.5,391.5C 300.5,389.833 300.5,388.167 300.5,386.5C 301.167,385.167 301.833,383.833 302.5,382.5 Z"/></g>
<g><path style="opacity:0.424" fill="#e08f75" d="M 472.5,390.5 C 474.033,392.634 474.7,395.134 474.5,398C 474.494,400.033 474.161,401.866 473.5,403.5C 473.81,400.287 473.477,397.287 472.5,394.5C 472.5,393.167 472.5,391.833 472.5,390.5 Z"/></g>
<g><path style="opacity:1" fill="#bf4d1f" d="M 472.5,394.5 C 473.477,397.287 473.81,400.287 473.5,403.5C 472.833,403.167 472.167,402.833 471.5,402.5C 470.848,401.275 469.681,400.608 468,400.5C 464.551,401.47 461.051,402.304 457.5,403C 454.601,407.322 451.601,411.489 448.5,415.5C 447.972,411.605 448.472,407.605 450,403.5C 453.088,401.424 454.921,398.591 455.5,395C 459.888,394.976 463.888,393.809 467.5,391.5C 469.357,392.267 471.024,393.267 472.5,394.5 Z"/></g>
<g><path style="opacity:0.886" fill="#db9a72" d="M 306.5,397.5 C 316.713,397.228 326.713,397.895 336.5,399.5C 326.319,399.269 316.319,398.603 306.5,397.5 Z"/></g>
<g><path style="opacity:1" fill="#bbc0a1" d="M 169.5,372.5 C 170.5,372.5 171.5,372.5 172.5,372.5C 172.481,375.659 173.648,378.326 176,380.5C 176.483,379.552 176.649,378.552 176.5,377.5C 176.833,377.5 177.167,377.5 177.5,377.5C 177.549,381.078 178.215,384.411 179.5,387.5C 180.515,393.214 182.515,398.547 185.5,403.5C 184.833,404.167 184.167,404.833 183.5,405.5C 182.685,404.571 181.852,403.571 181,402.5C 180.403,405.681 180.903,408.681 182.5,411.5C 177.599,405.699 174.266,399.032 172.5,391.5C 172.279,388.933 171.612,386.599 170.5,384.5C 170.5,383.5 170.5,382.5 170.5,381.5C 169.699,379.958 169.366,378.292 169.5,376.5C 169.5,375.833 169.5,375.167 169.5,374.5C 169.5,373.833 169.5,373.167 169.5,372.5 Z"/></g>
<g><path style="opacity:0.835" fill="#d5966b" d="M 418.5,400.5 C 416.829,403.254 414.329,404.587 411,404.5C 399.003,403.639 387.17,402.639 375.5,401.5C 384.177,401.52 392.844,401.854 401.5,402.5C 407.297,402.533 412.963,401.866 418.5,400.5 Z"/></g>
<g><path style="opacity:1" fill="#aa3713" d="M 471.5,402.5 C 471.617,404.484 470.95,406.15 469.5,407.5C 465.911,408.877 462.245,410.044 458.5,411C 457.167,413 455.833,415 454.5,417C 453.207,417.49 451.873,417.657 450.5,417.5C 449.508,417.672 448.842,417.338 448.5,416.5C 448.5,416.167 448.5,415.833 448.5,415.5C 451.601,411.489 454.601,407.322 457.5,403C 461.051,402.304 464.551,401.47 468,400.5C 469.681,400.608 470.848,401.275 471.5,402.5 Z"/></g>
<g><path style="opacity:1" fill="#9e3f27" d="M 471.5,402.5 C 472.167,402.833 472.833,403.167 473.5,403.5C 469.387,414.368 461.72,419.368 450.5,418.5C 450.5,418.167 450.5,417.833 450.5,417.5C 451.873,417.657 453.207,417.49 454.5,417C 455.833,415 457.167,413 458.5,411C 462.245,410.044 465.911,408.877 469.5,407.5C 470.95,406.15 471.617,404.484 471.5,402.5 Z"/></g>
<g><path style="opacity:1" fill="#919e7c" d="M 185.5,403.5 C 189.155,408.486 193.155,413.153 197.5,417.5C 197.217,418.289 196.717,418.956 196,419.5C 191.255,415.26 187.088,410.593 183.5,405.5C 184.167,404.833 184.833,404.167 185.5,403.5 Z"/></g>
<g><path style="opacity:1" fill="#30991f" d="M 179.5,383.5 C 180.404,384.209 180.737,385.209 180.5,386.5C 181.873,386.343 183.207,386.51 184.5,387C 184.801,393.885 187.134,400.219 191.5,406C 193.167,406.333 194.833,406.667 196.5,407C 196.888,408.525 196.888,410.192 196.5,412C 197.5,412.333 198.5,412.667 199.5,413C 198.167,413.667 198.167,414.333 199.5,415C 201.112,415.72 202.612,415.554 204,414.5C 204.333,415.167 204.667,415.833 205,416.5C 206.487,415.747 206.654,414.914 205.5,414C 209.889,412.096 213.389,413.263 216,417.5C 219.143,415.732 222.143,416.399 225,419.5C 225.324,417.431 226.158,417.098 227.5,418.5C 231.566,415.77 235.399,416.103 239,419.5C 242.77,418.713 246.104,417.713 249,416.5C 251.228,417.892 252.394,419.892 252.5,422.5C 253.833,422.5 255.167,422.5 256.5,422.5C 256.579,423.93 256.246,425.264 255.5,426.5C 255.957,427.298 256.624,427.631 257.5,427.5C 253.953,429.808 249.953,430.975 245.5,431C 238.42,431.795 231.42,431.628 224.5,430.5C 219.654,429.773 214.987,428.44 210.5,426.5C 206.03,423.759 201.696,420.759 197.5,417.5C 193.155,413.153 189.155,408.486 185.5,403.5C 182.515,398.547 180.515,393.214 179.5,387.5C 179.5,386.167 179.5,384.833 179.5,383.5 Z"/></g>
<g><path style="opacity:1" fill="#95b368" d="M 290.5,410.5 C 282.478,423.193 271.144,431.526 256.5,435.5C 254.473,435.662 252.473,435.495 250.5,435C 264.198,431.161 275.531,423.828 284.5,413C 286.42,411.878 288.42,411.044 290.5,410.5 Z"/></g>
<g><path style="opacity:1" fill="#7ea455" d="M 290.5,396.5 C 292.833,396.5 295.167,396.5 297.5,396.5C 297.5,397.167 297.5,397.833 297.5,398.5C 295.957,403.024 293.623,407.024 290.5,410.5C 288.42,411.044 286.42,411.878 284.5,413C 275.531,423.828 264.198,431.161 250.5,435C 252.473,435.495 254.473,435.662 256.5,435.5C 245.127,439.835 233.46,440.502 221.5,437.5C 220.158,436.207 218.491,435.374 216.5,435C 215.748,434.329 215.414,433.496 215.5,432.5C 216.695,432.678 217.862,433.011 219,433.5C 220.859,432.325 222.692,431.325 224.5,430.5C 231.42,431.628 238.42,431.795 245.5,431C 249.953,430.975 253.953,429.808 257.5,427.5C 263.489,425.509 268.823,422.509 273.5,418.5C 280.666,412.333 286.333,405 290.5,396.5 Z"/></g>
<g><path style="opacity:1" fill="#92af73" d="M 183.5,405.5 C 187.088,410.593 191.255,415.26 196,419.5C 196.717,418.956 197.217,418.289 197.5,417.5C 201.696,420.759 206.03,423.759 210.5,426.5C 209.244,426.461 208.244,426.961 207.5,428C 209.926,429.971 212.593,431.471 215.5,432.5C 215.414,433.496 215.748,434.329 216.5,435C 218.491,435.374 220.158,436.207 221.5,437.5C 205.253,433.567 192.253,424.9 182.5,411.5C 180.903,408.681 180.403,405.681 181,402.5C 181.852,403.571 182.685,404.571 183.5,405.5 Z"/></g>
<g><path style="opacity:1" fill="#768a55" d="M 210.5,426.5 C 214.987,428.44 219.654,429.773 224.5,430.5C 222.692,431.325 220.859,432.325 219,433.5C 217.862,433.011 216.695,432.678 215.5,432.5C 212.593,431.471 209.926,429.971 207.5,428C 208.244,426.961 209.244,426.461 210.5,426.5 Z"/></g>
</svg>
