<?xml version="1.0" encoding="UTF-8"?>
<!DOCTYPE svg PUBLIC "-//W3C//DTD SVG 1.1//EN" "http://www.w3.org/Graphics/SVG/1.1/DTD/svg11.dtd">
<svg xmlns="http://www.w3.org/2000/svg" version="1.1" width="1452px" height="172px" style="shape-rendering:geometricPrecision; text-rendering:geometricPrecision; image-rendering:optimizeQuality; fill-rule:evenodd; clip-rule:evenodd" xmlns:xlink="http://www.w3.org/1999/xlink">
<g><path style="opacity:1" fill="#ee7740" d="M 1.5,-0.5 C 30.8333,-0.5 60.1667,-0.5 89.5,-0.5C 102.877,1.40364 115.211,6.07031 126.5,13.5C 127.035,15.4456 128.368,16.4456 130.5,16.5C 131.865,18.8598 133.865,20.5265 136.5,21.5C 137.08,23.7488 138.413,25.4154 140.5,26.5C 141.08,28.7488 142.413,30.4154 144.5,31.5C 145.338,31.8417 145.672,32.5084 145.5,33.5C 145.427,35.0269 146.094,36.0269 147.5,36.5C 149.341,38.8485 150.674,41.5152 151.5,44.5C 151.12,46.698 151.787,48.3646 153.5,49.5C 153.5,49.8333 153.5,50.1667 153.5,50.5C 153.565,53.4282 154.232,56.0948 155.5,58.5C 160.223,79.692 159.056,100.692 152,121.5C 148.811,129.164 144.311,135.831 138.5,141.5C 137.094,141.973 136.427,142.973 136.5,144.5C 129.303,151.271 120.97,156.271 111.5,159.5C 109.447,159.402 107.78,160.069 106.5,161.5C 105.432,162.434 104.099,162.768 102.5,162.5C 97.6086,163.01 92.942,164.01 88.5,165.5C 88.1667,165.5 87.8333,165.5 87.5,165.5C 58.8333,165.5 30.1667,165.5 1.5,165.5C 1.5,110.167 1.5,54.8333 1.5,-0.5 Z M 85.5,34.5 C 87.8056,34.9926 90.139,35.3259 92.5,35.5C 94.5093,37.0652 96.8427,38.0652 99.5,38.5C 100.391,39.1098 101.391,39.4431 102.5,39.5C 102.973,40.9063 103.973,41.573 105.5,41.5C 107.142,42.803 108.809,44.1363 110.5,45.5C 110.427,47.0269 111.094,48.0269 112.5,48.5C 113.026,50.2303 114.026,51.5637 115.5,52.5C 116.597,55.6865 117.93,58.6865 119.5,61.5C 121.645,73.113 121.978,84.7796 120.5,96.5C 119.301,103.095 117.301,109.429 114.5,115.5C 112.738,116.262 111.738,117.596 111.5,119.5C 109.833,120.5 108.5,121.833 107.5,123.5C 105.973,123.427 104.973,124.094 104.5,125.5C 102.847,125.66 101.514,126.326 100.5,127.5C 95.4325,129.015 90.4325,130.348 85.5,131.5C 80.7858,131.353 76.1191,131.686 71.5,132.5C 59.8286,132.667 48.1619,132.5 36.5,132C 37.8272,99.2739 37.8272,66.6072 36.5,34C 52.8541,33.243 69.1875,33.4097 85.5,34.5 Z"/></g>
<g><path style="opacity:0.307" fill="#f8d4c4" d="M 977.5,-0.5 C 977.833,-0.5 978.167,-0.5 978.5,-0.5C 978.5,55.1667 978.5,110.833 978.5,166.5C 986.167,166.5 993.833,166.5 1001.5,166.5C 1003.17,166.5 1004.83,166.5 1006.5,166.5C 997.014,167.494 987.348,167.827 977.5,167.5C 977.5,111.5 977.5,55.5 977.5,-0.5 Z"/></g>
<g><path style="opacity:1" fill="#ee763e" d="M 978.5,-0.5 C 990.167,-0.5 1001.83,-0.5 1013.5,-0.5C 1013.5,7.5 1013.5,15.5 1013.5,23.5C 1013.5,37.8333 1013.5,52.1667 1013.5,66.5C 1043,66.8314 1072.34,66.4981 1101.5,65.5C 1102.5,43.673 1102.83,21.673 1102.5,-0.5C 1114.17,-0.5 1125.83,-0.5 1137.5,-0.5C 1137.5,54.8333 1137.5,110.167 1137.5,165.5C 1125.83,165.5 1114.17,165.5 1102.5,165.5C 1102.83,142.661 1102.5,119.994 1101.5,97.5C 1101.17,97.5 1100.83,97.5 1100.5,97.5C 1071.5,97.5 1042.5,97.5 1013.5,97.5C 1013.5,108.167 1013.5,118.833 1013.5,129.5C 1012.5,141.322 1012.17,153.322 1012.5,165.5C 1008.63,165.185 1004.96,165.518 1001.5,166.5C 993.833,166.5 986.167,166.5 978.5,166.5C 978.5,110.833 978.5,55.1667 978.5,-0.5 Z"/></g>
<g><path style="opacity:0.446" fill="#f5bda2" d="M 1302.5,-0.5 C 1302.83,-0.5 1303.17,-0.5 1303.5,-0.5C 1303.5,54.8333 1303.5,110.167 1303.5,165.5C 1314.5,165.5 1325.5,165.5 1336.5,165.5C 1325.35,166.495 1314.01,166.828 1302.5,166.5C 1302.5,110.833 1302.5,55.1667 1302.5,-0.5 Z"/></g>
<g><path style="opacity:1" fill="#ee7740" d="M 1303.5,-0.5 C 1314.5,-0.5 1325.5,-0.5 1336.5,-0.5C 1336.5,2.16667 1336.5,4.83333 1336.5,7.5C 1336.17,21.1829 1336.5,34.8496 1337.5,48.5C 1338.11,48.3764 1338.44,48.0431 1338.5,47.5C 1339.83,46.8333 1340.83,45.8333 1341.5,44.5C 1343.75,43.9202 1345.42,42.5869 1346.5,40.5C 1348.03,40.573 1349.03,39.9063 1349.5,38.5C 1353.53,35.2658 1358.2,33.5991 1363.5,33.5C 1374.5,33.5 1385.5,33.5 1396.5,33.5C 1398.95,33.298 1401.28,33.6314 1403.5,34.5C 1405.51,35.9238 1407.85,36.5905 1410.5,36.5C 1416.19,37.5144 1421.19,39.8478 1425.5,43.5C 1426.03,45.4456 1427.37,46.4456 1429.5,46.5C 1431.83,48.1667 1433.83,50.1667 1435.5,52.5C 1435.74,54.4044 1436.74,55.7377 1438.5,56.5C 1438.43,58.0269 1439.09,59.0269 1440.5,59.5C 1442.34,61.8485 1443.67,64.5152 1444.5,67.5C 1444.12,69.698 1444.79,71.3646 1446.5,72.5C 1446.5,72.8333 1446.5,73.1667 1446.5,73.5C 1446.57,76.4282 1447.23,79.0948 1448.5,81.5C 1451.16,94.7387 1451.16,108.072 1448.5,121.5C 1447.08,123.515 1446.41,125.848 1446.5,128.5C 1441.82,144.511 1431.82,155.844 1416.5,162.5C 1414.45,162.402 1412.78,163.069 1411.5,164.5C 1409.09,165.768 1406.43,166.435 1403.5,166.5C 1388.82,169.02 1374.15,169.02 1359.5,166.5C 1357.49,165.076 1355.15,164.41 1352.5,164.5C 1352.03,163.094 1351.03,162.427 1349.5,162.5C 1348.51,162.672 1347.84,162.338 1347.5,161.5C 1346.74,159.738 1345.4,158.738 1343.5,158.5C 1341.85,156.188 1339.85,154.188 1337.5,152.5C 1336.51,156.107 1336.18,159.774 1336.5,163.5C 1336.5,164.167 1336.5,164.833 1336.5,165.5C 1325.5,165.5 1314.5,165.5 1303.5,165.5C 1303.5,110.167 1303.5,54.8333 1303.5,-0.5 Z M 1379.5,65.5 C 1383.64,66.5629 1387.97,67.2296 1392.5,67.5C 1393.93,68.5375 1395.6,69.2041 1397.5,69.5C 1397.83,69.5 1398.17,69.5 1398.5,69.5C 1398.97,70.9063 1399.97,71.573 1401.5,71.5C 1402.8,72.4884 1404.13,73.4884 1405.5,74.5C 1406.17,75.8333 1407.17,76.8333 1408.5,77.5C 1410.51,80.8691 1412.51,84.2024 1414.5,87.5C 1415.31,93.4638 1415.64,99.4638 1415.5,105.5C 1414.23,110.966 1412.57,116.299 1410.5,121.5C 1409.09,121.973 1408.43,122.973 1408.5,124.5C 1407.17,125.167 1406.17,126.167 1405.5,127.5C 1403.6,127.738 1402.26,128.738 1401.5,130.5C 1400.51,130.328 1399.84,130.662 1399.5,131.5C 1395.02,132.698 1390.69,134.031 1386.5,135.5C 1385.83,135.5 1385.17,135.5 1384.5,135.5C 1376.8,135.691 1369.13,135.358 1361.5,134.5C 1357.79,133.037 1354.13,131.37 1350.5,129.5C 1349.71,128.599 1348.71,127.932 1347.5,127.5C 1346.83,126.167 1345.83,125.167 1344.5,124.5C 1344.57,122.973 1343.91,121.973 1342.5,121.5C 1342.57,119.973 1341.91,118.973 1340.5,118.5C 1337.9,111.416 1336.56,104.083 1336.5,96.5C 1337.66,93.7273 1338.32,90.7273 1338.5,87.5C 1343.41,76.923 1351.41,69.923 1362.5,66.5C 1368.14,65.8658 1373.81,65.5324 1379.5,65.5 Z"/></g>
<g><path style="opacity:0.949" fill="#f9b89a" d="M 126.5,13.5 C 128.23,14.0256 129.564,15.0256 130.5,16.5C 128.368,16.4456 127.035,15.4456 126.5,13.5 Z"/></g>
<g><path style="opacity:0.522" fill="#fbc8b2" d="M 130.5,16.5 C 133.109,17.4431 135.109,19.1097 136.5,21.5C 133.865,20.5265 131.865,18.8598 130.5,16.5 Z"/></g>
<g><path style="opacity:0.378" fill="#f5e8c3" d="M 608.5,-0.5 C 608.833,-0.5 609.167,-0.5 609.5,-0.5C 609.5,6.5 609.5,13.5 609.5,20.5C 620.5,20.5 631.5,20.5 642.5,20.5C 642.5,13.5 642.5,6.5 642.5,-0.5C 642.833,-0.5 643.167,-0.5 643.5,-0.5C 643.5,6.83333 643.5,14.1667 643.5,21.5C 631.833,21.5 620.167,21.5 608.5,21.5C 608.5,14.1667 608.5,6.83333 608.5,-0.5 Z"/></g>
<g><path style="opacity:1" fill="#e8bf51" d="M 609.5,-0.5 C 620.5,-0.5 631.5,-0.5 642.5,-0.5C 642.5,6.5 642.5,13.5 642.5,20.5C 631.5,20.5 620.5,20.5 609.5,20.5C 609.5,13.5 609.5,6.5 609.5,-0.5 Z"/></g>
<g><path style="opacity:0.631" fill="#facfbb" d="M 136.5,21.5 C 138.587,22.5846 139.92,24.2512 140.5,26.5C 138.413,25.4154 137.08,23.7488 136.5,21.5 Z"/></g>
<g><path style="opacity:0.29" fill="#facbb5" d="M 140.5,26.5 C 142.587,27.5846 143.92,29.2512 144.5,31.5C 142.413,30.4154 141.08,28.7488 140.5,26.5 Z"/></g>
<g><path style="opacity:0.072" fill="#fde5da" d="M 260.5,33.5 C 250.165,32.214 239.831,32.214 229.5,33.5C 239.825,30.9108 250.159,30.9108 260.5,33.5 Z"/></g>
<g><path style="opacity:0.841" fill="#f9bca0" d="M 1396.5,33.5 C 1385.5,33.5 1374.5,33.5 1363.5,33.5C 1374.5,30.8333 1385.5,30.8333 1396.5,33.5 Z"/></g>
<g><path style="opacity:1" fill="#ee7942" d="M 260.5,33.5 C 270.187,34.1768 279.187,36.8434 287.5,41.5C 287.821,43.0481 288.821,43.7148 290.5,43.5C 291.035,45.4456 292.368,46.4456 294.5,46.5C 294.973,47.9063 295.973,48.573 297.5,48.5C 299.833,50.1667 301.833,52.1667 303.5,54.5C 303.738,56.4044 304.738,57.7377 306.5,58.5C 306.427,60.0269 307.094,61.0269 308.5,61.5C 308.427,63.0269 309.094,64.0269 310.5,64.5C 312.008,66.1815 313.008,68.1815 313.5,70.5C 313.12,72.698 313.787,74.3646 315.5,75.5C 320.403,89.8314 320.736,104.165 316.5,118.5C 315.055,121.937 314.055,125.603 313.5,129.5C 312.122,135.26 309.455,140.26 305.5,144.5C 304.094,144.973 303.427,145.973 303.5,147.5C 294.323,158.258 282.657,164.591 268.5,166.5C 264.613,166.646 260.946,167.313 257.5,168.5C 253.18,169.166 248.68,169.499 244,169.5C 237.262,169.686 230.762,169.019 224.5,167.5C 222.485,166.076 220.152,165.41 217.5,165.5C 215.901,165.768 214.568,165.434 213.5,164.5C 212.365,162.787 210.698,162.12 208.5,162.5C 205.515,161.674 202.849,160.341 200.5,158.5C 199.738,156.738 198.404,155.738 196.5,155.5C 195.738,153.738 194.404,152.738 192.5,152.5C 184.063,146.061 178.396,137.727 175.5,127.5C 175.405,125.214 174.738,123.214 173.5,121.5C 170.148,109.561 169.814,97.561 172.5,85.5C 174.074,82.0935 175.074,78.4268 175.5,74.5C 175.5,74.1667 175.5,73.8333 175.5,73.5C 177.213,72.3646 177.88,70.698 177.5,68.5C 177.66,66.847 178.326,65.5137 179.5,64.5C 180.906,64.0269 181.573,63.0269 181.5,61.5C 181.427,59.9731 182.094,58.9731 183.5,58.5C 184.906,58.0269 185.573,57.0269 185.5,55.5C 186.5,53.8333 187.833,52.5 189.5,51.5C 192.089,50.5806 194.089,48.914 195.5,46.5C 197.404,46.2624 198.738,45.2624 199.5,43.5C 200.514,42.3263 201.847,41.6596 203.5,41.5C 205.027,41.573 206.027,40.9063 206.5,39.5C 208.698,39.8799 210.365,39.2132 211.5,37.5C 211.833,37.5 212.167,37.5 212.5,37.5C 215.152,37.5905 217.485,36.9238 219.5,35.5C 222.589,34.2154 225.922,33.5488 229.5,33.5C 239.831,32.214 250.165,32.214 260.5,33.5 Z M 256.5,66.5 C 263.978,68.2391 270.645,71.5724 276.5,76.5C 277.026,78.2303 278.026,79.5637 279.5,80.5C 279.992,82.8185 280.992,84.8185 282.5,86.5C 284.082,93.3964 284.749,100.396 284.5,107.5C 283.203,111.733 281.869,116.067 280.5,120.5C 279.094,120.973 278.427,121.973 278.5,123.5C 276.833,124.5 275.5,125.833 274.5,127.5C 272.973,127.427 271.973,128.094 271.5,129.5C 269.181,129.992 267.181,130.992 265.5,132.5C 263.214,132.595 261.214,133.262 259.5,134.5C 251.534,135.365 243.534,135.698 235.5,135.5C 232.781,134.087 229.781,133.42 226.5,133.5C 224.574,132.514 222.574,131.514 220.5,130.5C 220.027,129.094 219.027,128.427 217.5,128.5C 217.5,127.833 217.167,127.5 216.5,127.5C 215.167,125.5 213.5,123.833 211.5,122.5C 211.573,120.973 210.906,119.973 209.5,119.5C 209.672,118.508 209.338,117.842 208.5,117.5C 208.204,115.597 207.537,113.93 206.5,112.5C 206.675,110.379 206.341,108.379 205.5,106.5C 205.532,100.811 205.866,95.1448 206.5,89.5C 210.102,78.8988 217.102,71.5655 227.5,67.5C 237.134,66.608 246.801,66.2747 256.5,66.5 Z"/></g>
<g><path style="opacity:0.285" fill="#fae2d2" d="M 458.5,59.5 C 458.826,50.9832 458.493,42.6499 457.5,34.5C 444.323,34.1712 431.323,34.5045 418.5,35.5C 418.354,39.5191 418.021,43.5191 417.5,47.5C 416.167,47.5 414.833,47.5 413.5,47.5C 414.209,46.596 415.209,46.2627 416.5,46.5C 416.5,42.1667 416.5,37.8333 416.5,33.5C 430.833,33.5 445.167,33.5 459.5,33.5C 459.826,42.3494 459.493,51.0161 458.5,59.5 Z"/></g>
<g><path style="opacity:1" fill="#ee7841" d="M 751.5,35.5 C 753.515,36.9238 755.848,37.5905 758.5,37.5C 762.137,38.2635 765.47,39.5968 768.5,41.5C 768.821,43.0481 769.821,43.7148 771.5,43.5C 775.051,45.1108 778.051,47.4442 780.5,50.5C 781.5,52.1667 782.833,53.5 784.5,54.5C 785.5,54.8333 786.167,55.5 786.5,56.5C 786.738,58.4044 787.738,59.7377 789.5,60.5C 789.427,62.0269 790.094,63.0269 791.5,63.5C 793.341,65.8485 794.674,68.5152 795.5,71.5C 795.259,73.8984 795.926,75.8984 797.5,77.5C 799.011,80.5443 799.678,83.8776 799.5,87.5C 799.5,93.5 799.5,99.5 799.5,105.5C 770.833,105.5 742.167,105.5 713.5,105.5C 704.5,105.5 695.5,105.5 686.5,105.5C 686.263,106.791 686.596,107.791 687.5,108.5C 688.451,109.919 688.784,111.585 688.5,113.5C 688.12,115.698 688.787,117.365 690.5,118.5C 691.338,118.842 691.672,119.508 691.5,120.5C 691.427,122.027 692.094,123.027 693.5,123.5C 695.167,124.5 696.5,125.833 697.5,127.5C 698.035,129.446 699.368,130.446 701.5,130.5C 703.153,130.66 704.486,131.326 705.5,132.5C 708.763,134.568 712.43,135.568 716.5,135.5C 724.534,135.698 732.534,135.365 740.5,134.5C 743.228,134.829 745.562,134.163 747.5,132.5C 749.181,130.992 751.181,129.992 753.5,129.5C 756.833,128.167 759.167,125.833 760.5,122.5C 760.414,121.504 760.748,120.671 761.5,120C 763.81,119.503 766.143,119.337 768.5,119.5C 778.167,119.5 787.833,119.5 797.5,119.5C 797.5,120.5 797.5,121.5 797.5,122.5C 797.405,124.786 796.738,126.786 795.5,128.5C 794.069,129.78 793.402,131.447 793.5,133.5C 791.913,137.683 789.579,141.35 786.5,144.5C 785.094,144.973 784.427,145.973 784.5,147.5C 775.573,157.967 764.24,164.301 750.5,166.5C 746.878,166.322 743.544,166.989 740.5,168.5C 731.881,169.608 723.215,169.775 714.5,169C 710.57,168.758 706.903,167.925 703.5,166.5C 700.781,165.087 697.781,164.42 694.5,164.5C 693.365,162.787 691.698,162.12 689.5,162.5C 687.847,162.34 686.514,161.674 685.5,160.5C 685.027,159.094 684.027,158.427 682.5,158.5C 681.508,158.672 680.842,158.338 680.5,157.5C 679.738,155.738 678.404,154.738 676.5,154.5C 675.415,152.413 673.749,151.08 671.5,150.5C 669.833,149.5 668.5,148.167 667.5,146.5C 667.446,144.368 666.446,143.035 664.5,142.5C 664.573,140.973 663.906,139.973 662.5,139.5C 660.043,136.249 658.376,132.582 657.5,128.5C 656.277,123.027 654.944,117.693 653.5,112.5C 653.5,104.5 653.5,96.5 653.5,88.5C 653.5,88.1667 653.5,87.8333 653.5,87.5C 655.102,83.7607 656.102,79.7607 656.5,75.5C 657.282,71.9368 658.616,68.6035 660.5,65.5C 661.906,65.0269 662.573,64.0269 662.5,62.5C 662.328,61.5084 662.662,60.8417 663.5,60.5C 665.262,59.7377 666.262,58.4044 666.5,56.5C 667.833,54.5 669.5,52.8333 671.5,51.5C 674.427,50.2427 676.761,48.2427 678.5,45.5C 680.027,45.573 681.027,44.9063 681.5,43.5C 683.027,43.573 684.027,42.9063 684.5,41.5C 686.181,39.9925 688.181,38.9925 690.5,38.5C 695.43,37.7411 700.097,36.4078 704.5,34.5C 720.257,30.3157 735.924,30.649 751.5,35.5 Z M 729.5,65.5 C 738.035,65.9675 746.035,68.3008 753.5,72.5C 755.167,74.8333 757.167,76.8333 759.5,78.5C 757.167,79.1667 754.833,79.8333 752.5,80.5C 734.83,80.6666 717.164,80.4999 699.5,80C 697.292,79.8091 695.292,79.3091 693.5,78.5C 698.419,73.5489 704.086,69.8822 710.5,67.5C 716.992,67.0059 723.325,66.3393 729.5,65.5 Z"/></g>
<g><path style="opacity:0.686" fill="#f9bea2" d="M 85.5,34.5 C 69.1875,33.4097 52.8541,33.243 36.5,34C 37.8272,66.6072 37.8272,99.2739 36.5,132C 48.1619,132.5 59.8286,132.667 71.5,132.5C 59.6783,133.495 47.6783,133.828 35.5,133.5C 35.5,99.8333 35.5,66.1667 35.5,32.5C 51.5035,32.3334 67.5035,32.5001 83.5,33C 84.4158,33.2784 85.0825,33.7784 85.5,34.5 Z"/></g>
<g><path style="opacity:1" fill="#ef7943" d="M 569.5,42.5 C 569.821,44.0481 570.821,44.7148 572.5,44.5C 573.035,46.4456 574.368,47.4456 576.5,47.5C 577.5,47.8333 578.167,48.5 578.5,49.5C 579.167,50.8333 580.167,51.8333 581.5,52.5C 582.5,52.8333 583.167,53.5 583.5,54.5C 583.738,56.4044 584.738,57.7377 586.5,58.5C 586.427,60.0269 587.094,61.0269 588.5,61.5C 590.008,63.1815 591.008,65.1815 591.5,67.5C 591.259,69.8984 591.926,71.8984 593.5,73.5C 593.5,73.8333 593.5,74.1667 593.5,74.5C 593.5,75.8333 593.5,77.1667 593.5,78.5C 588.493,78.7509 583.493,79.0843 578.5,79.5C 572.5,79.5 566.5,79.5 560.5,79.5C 560.737,78.209 560.404,77.209 559.5,76.5C 557.223,71.2227 553.556,67.2227 548.5,64.5C 548.389,63.8826 548.056,63.3826 547.5,63C 539.432,60.824 531.432,60.324 523.5,61.5C 520.447,61.1107 517.78,61.7773 515.5,63.5C 512.275,65.2131 509.441,67.5464 507,70.5C 506.503,72.8098 506.337,75.1432 506.5,77.5C 506.5,79.5 507.5,80.5 509.5,80.5C 509.821,82.0481 510.821,82.7148 512.5,82.5C 515.123,84.2655 518.123,84.9321 521.5,84.5C 527.618,84.9913 533.618,85.9913 539.5,87.5C 543.21,89.1357 547.21,89.8023 551.5,89.5C 563.223,90.6854 574.223,94.1854 584.5,100C 585.71,101.039 586.71,102.206 587.5,103.5C 587.833,104.5 588.5,105.167 589.5,105.5C 590.5,105.833 591.167,106.5 591.5,107.5C 591.738,109.404 592.738,110.738 594.5,111.5C 595.674,112.514 596.34,113.847 596.5,115.5C 598.101,121.711 598.768,128.044 598.5,134.5C 595.456,147.39 587.789,156.557 575.5,162C 570.007,164.221 564.34,165.721 558.5,166.5C 555.219,166.42 552.219,167.087 549.5,168.5C 540.244,169.638 530.911,169.805 521.5,169C 516.199,168.59 511.199,167.423 506.5,165.5C 503.855,163.69 500.855,162.69 497.5,162.5C 495.597,162.204 493.93,161.537 492.5,160.5C 492.027,159.094 491.027,158.427 489.5,158.5C 488.508,158.672 487.842,158.338 487.5,157.5C 487.027,156.094 486.027,155.427 484.5,155.5C 484.027,154.094 483.027,153.427 481.5,153.5C 481.027,152.094 480.027,151.427 478.5,151.5C 472.237,146.651 468.237,140.317 466.5,132.5C 466.167,129.167 465.833,125.833 465.5,122.5C 477.247,122.189 488.914,122.522 500.5,123.5C 502.799,130.13 507.133,134.797 513.5,137.5C 516.507,139.175 519.84,139.841 523.5,139.5C 532.861,139.687 542.195,139.354 551.5,138.5C 553.698,138.88 555.365,138.213 556.5,136.5C 556.833,136.5 557.167,136.5 557.5,136.5C 559.5,136.5 560.5,135.5 560.5,133.5C 561.833,130.5 561.833,127.5 560.5,124.5C 560.167,122.167 558.833,120.833 556.5,120.5C 540.661,117.767 524.995,114.767 509.5,111.5C 507.095,110.232 504.428,109.565 501.5,109.5C 501.167,109.5 500.833,109.5 500.5,109.5C 499.365,107.787 497.698,107.12 495.5,107.5C 493.181,107.008 491.181,106.008 489.5,104.5C 488.738,102.738 487.404,101.738 485.5,101.5C 485.027,100.094 484.027,99.427 482.5,99.5C 476.921,96.0115 473.588,91.0115 472.5,84.5C 470.936,75.7403 471.269,67.0737 473.5,58.5C 474.906,58.0269 475.573,57.0269 475.5,55.5C 476.906,55.0269 477.573,54.0269 477.5,52.5C 477.833,51.5 478.5,50.8333 479.5,50.5C 481.5,49.1667 483.167,47.5 484.5,45.5C 486.404,45.2624 487.738,44.2624 488.5,42.5C 490.027,42.573 491.027,41.9063 491.5,40.5C 492.514,39.3263 493.847,38.6596 495.5,38.5C 499.162,38.2766 502.495,37.2766 505.5,35.5C 520.975,31.6786 536.642,31.512 552.5,35C 558.559,36.8438 564.226,39.3438 569.5,42.5 Z"/></g>
<g><path style="opacity:0.02" fill="#fbe0d4" d="M 1403.5,34.5 C 1406.15,34.4095 1408.49,35.0762 1410.5,36.5C 1407.85,36.5905 1405.51,35.9238 1403.5,34.5 Z"/></g>
<g><path style="opacity:0.925" fill="#fabb9f" d="M 92.5,35.5 C 95.491,35.1663 97.8243,36.1663 99.5,38.5C 96.8427,38.0652 94.5093,37.0652 92.5,35.5 Z"/></g>
<g><path style="opacity:0.396" fill="#f9c7b1" d="M 145.5,33.5 C 146.906,33.9731 147.573,34.9731 147.5,36.5C 146.094,36.0269 145.427,35.0269 145.5,33.5 Z"/></g>
<g><path style="opacity:1" fill="#ec8845" d="M 418.5,35.5 C 431.167,35.5 443.833,35.5 456.5,35.5C 456.5,48.1667 456.5,60.8333 456.5,73.5C 443.833,73.5 431.167,73.5 418.5,73.5C 418.817,69.2984 418.483,65.2984 417.5,61.5C 414.813,61.3359 412.146,61.5026 409.5,62C 408.944,62.3826 408.611,62.8826 408.5,63.5C 406.192,65.4707 403.858,67.4707 401.5,69.5C 399.172,70.7356 398.006,72.7356 398,75.5C 397.5,92.1633 397.333,108.83 397.5,125.5C 397.5,125.833 397.5,126.167 397.5,126.5C 396.076,128.515 395.41,130.848 395.5,133.5C 391.021,145.642 382.355,152.642 369.5,154.5C 365.759,153.599 363.759,154.932 363.5,158.5C 362.523,161.287 362.19,164.287 362.5,167.5C 349.833,167.5 337.167,167.5 324.5,167.5C 324.5,154.833 324.5,142.167 324.5,129.5C 325.791,129.737 326.791,129.404 327.5,128.5C 339.5,128.5 351.5,128.5 363.5,128.5C 363.5,132.833 363.5,137.167 363.5,141.5C 366.91,141.543 370.243,141.043 373.5,140C 374.056,139.617 374.389,139.117 374.5,138.5C 377.5,137.5 379.5,135.5 380.5,132.5C 382.408,131.514 383.408,129.848 383.5,127.5C 383.99,109.835 384.49,92.1687 385,74.5C 385.977,72.26 386.477,69.9267 386.5,67.5C 389.084,66.9517 390.084,65.285 389.5,62.5C 390.906,62.0269 391.573,61.0269 391.5,59.5C 391.833,58.5 392.5,57.8333 393.5,57.5C 396.089,56.5806 398.089,54.914 399.5,52.5C 401.027,52.573 402.027,51.9063 402.5,50.5C 403.391,49.8902 404.391,49.5569 405.5,49.5C 408.428,49.4349 411.095,48.7682 413.5,47.5C 414.833,47.5 416.167,47.5 417.5,47.5C 418.021,43.5191 418.354,39.5191 418.5,35.5 Z M 432.5,48.5 C 435.833,48.5 439.167,48.5 442.5,48.5C 442.5,52.1667 442.5,55.8333 442.5,59.5C 439.167,59.5 435.833,59.5 432.5,59.5C 432.5,55.8333 432.5,52.1667 432.5,48.5 Z M 337.5,142.5 C 341.452,143.678 345.452,143.678 349.5,142.5C 349.5,146.167 349.5,149.833 349.5,153.5C 345.5,153.5 341.5,153.5 337.5,153.5C 337.5,149.833 337.5,146.167 337.5,142.5 Z"/></g>
<g><path style="opacity:0.02" fill="#fcded0" d="M 751.5,35.5 C 754.152,35.4095 756.485,36.0762 758.5,37.5C 755.848,37.5905 753.515,36.9238 751.5,35.5 Z"/></g>
<g><path style="opacity:1" fill="#ee763f" d="M 842.5,35.5 C 842.314,42.8807 842.814,50.2141 844,57.5C 845.802,56.2107 846.969,54.5441 847.5,52.5C 849.833,50.8333 851.833,48.8333 853.5,46.5C 855.404,46.2624 856.738,45.2624 857.5,43.5C 859.027,43.573 860.027,42.9063 860.5,41.5C 861.514,40.3263 862.847,39.6596 864.5,39.5C 866.898,39.7406 868.898,39.0739 870.5,37.5C 871.568,36.5655 872.901,36.2322 874.5,36.5C 885.484,35.7507 896.484,35.4174 907.5,35.5C 907.5,44.8333 907.5,54.1667 907.5,63.5C 906.167,63.5 904.833,63.5 903.5,63.5C 901.167,63.5 898.833,63.5 896.5,63.5C 889.155,63.021 882.155,64.021 875.5,66.5C 870.454,68.52 865.454,70.8534 860.5,73.5C 858.973,73.427 857.973,74.0937 857.5,75.5C 852.224,81.0588 848.224,87.3921 845.5,94.5C 844.732,95.2625 844.232,96.2625 844,97.5C 843.5,120.164 843.333,142.831 843.5,165.5C 832.5,165.5 821.5,165.5 810.5,165.5C 810.5,122.167 810.5,78.8333 810.5,35.5C 821.167,35.5 831.833,35.5 842.5,35.5 Z"/></g>
<g><path style="opacity:0.651" fill="#f9c9b3" d="M 907.5,34.5 C 907.5,34.8333 907.5,35.1667 907.5,35.5C 896.484,35.4174 885.484,35.7507 874.5,36.5C 876.969,35.6829 879.635,35.1829 882.5,35C 890.827,34.5003 899.16,34.3336 907.5,34.5 Z"/></g>
<g><path style="opacity:0.155" fill="#fbe9e1" d="M 907.5,34.5 C 908.494,44.3194 908.827,54.3194 908.5,64.5C 906.585,64.7845 904.919,64.4511 903.5,63.5C 904.833,63.5 906.167,63.5 907.5,63.5C 907.5,54.1667 907.5,44.8333 907.5,35.5C 907.5,35.1667 907.5,34.8333 907.5,34.5 Z"/></g>
<g><path style="opacity:0.576" fill="#f8c6af" d="M 1185.5,112.5 C 1184.5,87.0054 1184.17,61.3388 1184.5,35.5C 1173.5,35.5 1162.5,35.5 1151.5,35.5C 1151.5,63.1667 1151.5,90.8333 1151.5,118.5C 1150.5,90.6716 1150.17,62.6716 1150.5,34.5C 1162.17,34.5 1173.83,34.5 1185.5,34.5C 1185.5,60.5 1185.5,86.5 1185.5,112.5 Z"/></g>
<g><path style="opacity:1" fill="#ee763f" d="M 1185.5,112.5 C 1186.7,115.421 1187.7,118.421 1188.5,121.5C 1188.43,123.027 1189.09,124.027 1190.5,124.5C 1192.17,125.5 1193.5,126.833 1194.5,128.5C 1195.03,130.446 1196.37,131.446 1198.5,131.5C 1200.4,131.796 1202.07,132.463 1203.5,133.5C 1205.84,135.04 1208.5,135.706 1211.5,135.5C 1220.29,135.961 1228.96,135.295 1237.5,133.5C 1239.7,133.88 1241.36,133.213 1242.5,131.5C 1244.03,131.573 1245.03,130.906 1245.5,129.5C 1246.5,127.833 1247.83,126.5 1249.5,125.5C 1250.91,125.027 1251.57,124.027 1251.5,122.5C 1251.66,120.847 1252.33,119.514 1253.5,118.5C 1255.21,117.365 1255.88,115.698 1255.5,113.5C 1256.5,87.672 1256.83,61.672 1256.5,35.5C 1267.5,35.5 1278.5,35.5 1289.5,35.5C 1289.5,78.8333 1289.5,122.167 1289.5,165.5C 1278.83,165.5 1268.17,165.5 1257.5,165.5C 1257.81,161.958 1257.48,158.625 1256.5,155.5C 1256.72,154.325 1256.39,153.325 1255.5,152.5C 1254.7,152.957 1254.37,153.624 1254.5,154.5C 1249.1,160.555 1242.43,164.555 1234.5,166.5C 1224.57,168.11 1214.57,168.777 1204.5,168.5C 1203.83,168.5 1203.17,168.5 1202.5,168.5C 1200.09,167.232 1197.43,166.565 1194.5,166.5C 1194.17,166.5 1193.83,166.5 1193.5,166.5C 1191.9,164.926 1189.9,164.259 1187.5,164.5C 1187.17,164.5 1186.83,164.5 1186.5,164.5C 1186.03,163.094 1185.03,162.427 1183.5,162.5C 1181.85,162.34 1180.51,161.674 1179.5,160.5C 1179.03,159.094 1178.03,158.427 1176.5,158.5C 1175.74,156.738 1174.4,155.738 1172.5,155.5C 1172.03,154.094 1171.03,153.427 1169.5,153.5C 1164.39,149.931 1160.72,145.264 1158.5,139.5C 1158.01,137.181 1157.01,135.181 1155.5,133.5C 1154.6,132.791 1154.26,131.791 1154.5,130.5C 1153.94,126.603 1152.94,122.937 1151.5,119.5C 1151.5,119.167 1151.5,118.833 1151.5,118.5C 1151.5,90.8333 1151.5,63.1667 1151.5,35.5C 1162.5,35.5 1173.5,35.5 1184.5,35.5C 1184.17,61.3388 1184.5,87.0054 1185.5,112.5 Z"/></g>
<g><path style="opacity:0.445" fill="#f7c7b0" d="M 1289.5,166.5 C 1289.5,166.167 1289.5,165.833 1289.5,165.5C 1289.5,122.167 1289.5,78.8333 1289.5,35.5C 1278.5,35.5 1267.5,35.5 1256.5,35.5C 1256.83,61.672 1256.5,87.672 1255.5,113.5C 1255.5,87.1667 1255.5,60.8333 1255.5,34.5C 1267.17,34.5 1278.83,34.5 1290.5,34.5C 1290.83,78.6698 1290.5,122.67 1289.5,166.5 Z"/></g>
<g><path style="opacity:0.855" fill="#f7b393" d="M 219.5,35.5 C 217.485,36.9238 215.152,37.5905 212.5,37.5C 214.515,36.0762 216.848,35.4095 219.5,35.5 Z"/></g>
<g><path style="opacity:0.82" fill="#f8b697" d="M 505.5,35.5 C 502.495,37.2766 499.162,38.2766 495.5,38.5C 498.505,36.7234 501.838,35.7234 505.5,35.5 Z"/></g>
<g><path style="opacity:0.391" fill="#f7c6ae" d="M 844.5,49.5 C 843.833,44.8333 843.167,40.1667 842.5,35.5C 831.833,35.5 821.167,35.5 810.5,35.5C 810.5,78.8333 810.5,122.167 810.5,165.5C 821.5,165.5 832.5,165.5 843.5,165.5C 843.5,165.833 843.5,166.167 843.5,166.5C 832.167,166.5 820.833,166.5 809.5,166.5C 809.5,122.5 809.5,78.5 809.5,34.5C 821.167,34.5 832.833,34.5 844.5,34.5C 844.5,39.5 844.5,44.5 844.5,49.5 Z"/></g>
<g><path style="opacity:0.824" fill="#f9bea2" d="M 704.5,34.5 C 700.097,36.4078 695.43,37.7411 690.5,38.5C 694.794,36.1837 699.46,34.8504 704.5,34.5 Z"/></g>
<g><path style="opacity:0.875" fill="#fabda1" d="M 211.5,37.5 C 210.365,39.2132 208.698,39.8799 206.5,39.5C 207.93,38.4625 209.597,37.7959 211.5,37.5 Z"/></g>
<g><path style="opacity:0.839" fill="#f9bca1" d="M 870.5,37.5 C 868.898,39.0739 866.898,39.7406 864.5,39.5C 866.214,38.2616 868.214,37.595 870.5,37.5 Z"/></g>
<g><path style="opacity:0.931" fill="#ee9559" d="M 418.5,35.5 C 431.323,34.5045 444.323,34.1712 457.5,34.5C 457.829,47.6774 457.495,60.6774 456.5,73.5C 456.5,60.8333 456.5,48.1667 456.5,35.5C 443.833,35.5 431.167,35.5 418.5,35.5 Z"/></g>
<g><path style="opacity:0.804" fill="#f7b292" d="M 1349.5,38.5 C 1349.03,39.9063 1348.03,40.573 1346.5,40.5C 1346.97,39.0937 1347.97,38.427 1349.5,38.5 Z"/></g>
<g><path style="opacity:0.376" fill="#faccb7" d="M 102.5,39.5 C 104.027,39.427 105.027,40.0937 105.5,41.5C 103.973,41.573 102.973,40.9063 102.5,39.5 Z"/></g>
<g><path style="opacity:0.694" fill="#f9c3aa" d="M 206.5,39.5 C 206.027,40.9063 205.027,41.573 203.5,41.5C 203.973,40.0937 204.973,39.427 206.5,39.5 Z"/></g>
<g><path style="opacity:0.384" fill="#f8d3c2" d="M 1336.5,7.5 C 1337.17,20.8333 1337.83,34.1667 1338.5,47.5C 1338.44,48.0431 1338.11,48.3764 1337.5,48.5C 1336.5,34.8496 1336.17,21.1829 1336.5,7.5 Z"/></g>
<g><path style="opacity:0.71" fill="#f9bea3" d="M 491.5,40.5 C 491.027,41.9063 490.027,42.573 488.5,42.5C 488.973,41.0937 489.973,40.427 491.5,40.5 Z"/></g>
<g><path style="opacity:0.918" fill="#fab697" d="M 287.5,41.5 C 288.71,41.9321 289.71,42.5987 290.5,43.5C 288.821,43.7148 287.821,43.0481 287.5,41.5 Z"/></g>
<g><path style="opacity:0.69" fill="#fac2a8" d="M 684.5,41.5 C 684.027,42.9063 683.027,43.573 681.5,43.5C 681.973,42.0937 682.973,41.427 684.5,41.5 Z"/></g>
<g><path style="opacity:0.957" fill="#f9af8d" d="M 768.5,41.5 C 769.71,41.9321 770.71,42.5987 771.5,43.5C 769.821,43.7148 768.821,43.0481 768.5,41.5 Z"/></g>
<g><path style="opacity:0.694" fill="#f9c0a6" d="M 860.5,41.5 C 860.027,42.9063 859.027,43.573 857.5,43.5C 857.973,42.0937 858.973,41.427 860.5,41.5 Z"/></g>
<g><path style="opacity:0.725" fill="#f8b494" d="M 488.5,42.5 C 487.738,44.2624 486.404,45.2624 484.5,45.5C 485.262,43.7376 486.596,42.7376 488.5,42.5 Z"/></g>
<g><path style="opacity:0.918" fill="#fab698" d="M 569.5,42.5 C 570.71,42.9321 571.71,43.5987 572.5,44.5C 570.821,44.7148 569.821,44.0481 569.5,42.5 Z"/></g>
<g><path style="opacity:0.965" fill="#f5a17a" d="M 1346.5,40.5 C 1345.42,42.5869 1343.75,43.9202 1341.5,44.5C 1342.58,42.4131 1344.25,41.0798 1346.5,40.5 Z"/></g>
<g><path style="opacity:0.616" fill="#f9bfa4" d="M 199.5,43.5 C 198.738,45.2624 197.404,46.2624 195.5,46.5C 196.262,44.7376 197.596,43.7376 199.5,43.5 Z"/></g>
<g><path style="opacity:0.957" fill="#f9b393" d="M 290.5,43.5 C 292.23,44.0256 293.564,45.0256 294.5,46.5C 292.368,46.4456 291.035,45.4456 290.5,43.5 Z"/></g>
<g><path style="opacity:0.761" fill="#f8b89a" d="M 681.5,43.5 C 681.027,44.9063 680.027,45.573 678.5,45.5C 678.973,44.0937 679.973,43.427 681.5,43.5 Z"/></g>
<g><path style="opacity:0.706" fill="#f8b496" d="M 857.5,43.5 C 856.738,45.2624 855.404,46.2624 853.5,46.5C 854.262,44.7376 855.596,43.7376 857.5,43.5 Z"/></g>
<g><path style="opacity:0.925" fill="#fbbea2" d="M 1425.5,43.5 C 1427.23,44.0256 1428.56,45.0256 1429.5,46.5C 1427.37,46.4456 1426.03,45.4456 1425.5,43.5 Z"/></g>
<g><path style="opacity:0.937" fill="#fab697" d="M 572.5,44.5 C 574.23,45.0256 575.564,46.0256 576.5,47.5C 574.368,47.4456 573.035,46.4456 572.5,44.5 Z"/></g>
<g><path style="opacity:0.012" fill="#fce1d5" d="M 110.5,45.5 C 111.906,45.9731 112.573,46.9731 112.5,48.5C 111.094,48.0269 110.427,47.0269 110.5,45.5 Z"/></g>
<g><path style="opacity:0.004" fill="#fce2d6" d="M 294.5,46.5 C 296.027,46.427 297.027,47.0937 297.5,48.5C 295.973,48.573 294.973,47.9063 294.5,46.5 Z"/></g>
<g><path style="opacity:0.459" fill="#f9cdb9" d="M 1341.5,44.5 C 1340.83,45.8333 1339.83,46.8333 1338.5,47.5C 1338.5,45.5 1339.5,44.5 1341.5,44.5 Z"/></g>
<g><path style="opacity:0.863" fill="#f8b99d" d="M 151.5,44.5 C 152.537,45.9303 153.204,47.597 153.5,49.5C 151.787,48.3646 151.12,46.698 151.5,44.5 Z"/></g>
<g><path style="opacity:0.878" fill="#fbc3aa" d="M 112.5,48.5 C 114.446,49.0347 115.446,50.368 115.5,52.5C 114.026,51.5637 113.026,50.2303 112.5,48.5 Z"/></g>
<g><path style="opacity:0.792" fill="#f6c19d" d="M 413.5,47.5 C 411.095,48.7682 408.428,49.4349 405.5,49.5C 407.838,47.9605 410.505,47.2938 413.5,47.5 Z"/></g>
<g><path style="opacity:0.541" fill="#facdb8" d="M 484.5,45.5 C 483.167,47.5 481.5,49.1667 479.5,50.5C 480.167,47.8333 481.833,46.1667 484.5,45.5 Z"/></g>
<g><path style="opacity:0.898" fill="#f7a883" d="M 678.5,45.5 C 676.761,48.2427 674.427,50.2427 671.5,51.5C 673.239,48.7573 675.573,46.7573 678.5,45.5 Z"/></g>
<g><path style="opacity:0.863" fill="#f7ad8a" d="M 195.5,46.5 C 194.089,48.914 192.089,50.5806 189.5,51.5C 190.911,49.086 192.911,47.4194 195.5,46.5 Z"/></g>
<g><path style="opacity:0.008" fill="#fcdacb" d="M 578.5,49.5 C 580.5,49.5 581.5,50.5 581.5,52.5C 580.167,51.8333 579.167,50.8333 578.5,49.5 Z"/></g>
<g><path style="opacity:0.588" fill="#fac9b3" d="M 853.5,46.5 C 851.833,48.8333 849.833,50.8333 847.5,52.5C 848.5,49.5 850.5,47.5 853.5,46.5 Z"/></g>
<g><path style="opacity:0.004" fill="#fcdcce" d="M 780.5,50.5 C 782.833,50.8333 784.167,52.1667 784.5,54.5C 782.833,53.5 781.5,52.1667 780.5,50.5 Z"/></g>
<g><path style="opacity:0.631" fill="#f8ceb4" d="M 402.5,50.5 C 402.027,51.9063 401.027,52.573 399.5,52.5C 399.973,51.0937 400.973,50.427 402.5,50.5 Z"/></g>
<g><path style="opacity:0.433" fill="#f7c8a9" d="M 431.5,48.5 C 435.634,47.5151 439.968,47.1818 444.5,47.5C 444.5,52.1667 444.5,56.8333 444.5,61.5C 439.968,61.8182 435.634,61.4849 431.5,60.5C 435.5,60.5 439.5,60.5 443.5,60.5C 443.817,56.2984 443.483,52.2984 442.5,48.5C 439.167,48.5 435.833,48.5 432.5,48.5C 432.167,48.5 431.833,48.5 431.5,48.5 Z"/></g>
<g><path style="opacity:0.447" fill="#f6ae8d" d="M 842.5,35.5 C 843.167,40.1667 843.833,44.8333 844.5,49.5C 844.34,51.1992 844.506,52.8659 845,54.5C 845.708,53.6195 846.542,52.9528 847.5,52.5C 846.969,54.5441 845.802,56.2107 844,57.5C 842.814,50.2141 842.314,42.8807 842.5,35.5 Z"/></g>
<g><path style="opacity:0.667" fill="#f9c6ae" d="M 153.5,50.5 C 155.04,52.8383 155.706,55.5049 155.5,58.5C 154.232,56.0948 153.565,53.4282 153.5,50.5 Z"/></g>
<g><path style="opacity:0.741" fill="#f9c3ab" d="M 1435.5,52.5 C 1437.26,53.2623 1438.26,54.5956 1438.5,56.5C 1436.74,55.7377 1435.74,54.4044 1435.5,52.5 Z"/></g>
<g><path style="opacity:0.384" fill="#fad0bd" d="M 477.5,52.5 C 477.573,54.0269 476.906,55.0269 475.5,55.5C 475.427,53.9731 476.094,52.9731 477.5,52.5 Z"/></g>
<g><path style="opacity:0.671" fill="#fac8b2" d="M 303.5,54.5 C 305.262,55.2623 306.262,56.5956 306.5,58.5C 304.738,57.7377 303.738,56.4044 303.5,54.5 Z"/></g>
<g><path style="opacity:0.933" fill="#f5b082" d="M 399.5,52.5 C 398.089,54.914 396.089,56.5806 393.5,57.5C 394.911,55.086 396.911,53.4194 399.5,52.5 Z"/></g>
<g><path style="opacity:0.867" fill="#f9b99c" d="M 583.5,54.5 C 585.262,55.2623 586.262,56.5956 586.5,58.5C 584.738,57.7377 583.738,56.4044 583.5,54.5 Z"/></g>
<g><path style="opacity:0.694" fill="#fac3aa" d="M 185.5,55.5 C 185.573,57.0269 184.906,58.0269 183.5,58.5C 183.427,56.9731 184.094,55.9731 185.5,55.5 Z"/></g>
<g><path style="opacity:0.731" fill="#f8bb9e" d="M 1101.5,-0.5 C 1101.83,-0.5 1102.17,-0.5 1102.5,-0.5C 1102.83,21.673 1102.5,43.673 1101.5,65.5C 1101.36,43.5866 1101.36,21.5866 1101.5,-0.5 Z"/></g>
<g><path style="opacity:0.282" fill="#fbd7c7" d="M 475.5,55.5 C 475.573,57.0269 474.906,58.0269 473.5,58.5C 473.427,56.9731 474.094,55.9731 475.5,55.5 Z"/></g>
<g><path style="opacity:0.757" fill="#fac3aa" d="M 666.5,56.5 C 666.262,58.4044 665.262,59.7377 663.5,60.5C 663.738,58.5956 664.738,57.2623 666.5,56.5 Z"/></g>
<g><path style="opacity:0.588" fill="#f9c4ab" d="M 786.5,56.5 C 788.262,57.2623 789.262,58.5956 789.5,60.5C 787.738,59.7377 786.738,58.4044 786.5,56.5 Z"/></g>
<g><path style="opacity:0.396" fill="#f9ccb8" d="M 1438.5,56.5 C 1439.91,56.9731 1440.57,57.9731 1440.5,59.5C 1439.09,59.0269 1438.43,58.0269 1438.5,56.5 Z"/></g>
<g><path style="opacity:0.021" fill="#fdf6f2" d="M 431.5,48.5 C 431.833,48.5 432.167,48.5 432.5,48.5C 432.5,52.1667 432.5,55.8333 432.5,59.5C 435.833,59.5 439.167,59.5 442.5,59.5C 442.5,55.8333 442.5,52.1667 442.5,48.5C 443.483,52.2984 443.817,56.2984 443.5,60.5C 439.5,60.5 435.5,60.5 431.5,60.5C 431.5,56.5 431.5,52.5 431.5,48.5 Z M 432.5,48.5 C 435.833,48.5 439.167,48.5 442.5,48.5C 442.5,52.1667 442.5,55.8333 442.5,59.5C 439.167,59.5 435.833,59.5 432.5,59.5C 432.5,55.8333 432.5,52.1667 432.5,48.5 Z"/></g>
<g><path style="opacity:0.498" fill="#f9c1a8" d="M 306.5,58.5 C 307.906,58.9731 308.573,59.9731 308.5,61.5C 307.094,61.0269 306.427,60.0269 306.5,58.5 Z"/></g>
<g><path style="opacity:0.396" fill="#facab4" d="M 586.5,58.5 C 587.906,58.9731 588.573,59.9731 588.5,61.5C 587.094,61.0269 586.427,60.0269 586.5,58.5 Z"/></g>
<g><path style="opacity:0.4" fill="#f9d4bb" d="M 391.5,59.5 C 391.573,61.0269 390.906,62.0269 389.5,62.5C 389.427,60.9731 390.094,59.9731 391.5,59.5 Z"/></g>
<g><path style="opacity:0.047" fill="#fce4da" d="M 523.5,61.5 C 525.167,61.5 526.833,61.5 528.5,61.5C 524.327,62.3576 519.993,63.0242 515.5,63.5C 517.78,61.7773 520.447,61.1107 523.5,61.5 Z"/></g>
<g><path style="opacity:0.773" fill="#f9c0a6" d="M 523.5,61.5 C 531.432,60.324 539.432,60.824 547.5,63C 548.056,63.3826 548.389,63.8826 548.5,64.5C 541.929,62.9754 535.262,61.9754 528.5,61.5C 526.833,61.5 525.167,61.5 523.5,61.5 Z"/></g>
<g><path style="opacity:0.329" fill="#fbd3c1" d="M 789.5,60.5 C 790.906,60.9731 791.573,61.9731 791.5,63.5C 790.094,63.0269 789.427,62.0269 789.5,60.5 Z"/></g>
<g><path style="opacity:0.29" fill="#fbd3c1" d="M 181.5,61.5 C 181.573,63.0269 180.906,64.0269 179.5,64.5C 179.427,62.9731 180.094,61.9731 181.5,61.5 Z"/></g>
<g><path style="opacity:0.384" fill="#facab4" d="M 308.5,61.5 C 309.906,61.9731 310.573,62.9731 310.5,64.5C 309.094,64.0269 308.427,63.0269 308.5,61.5 Z"/></g>
<g><path style="opacity:0.088" fill="#fcf0e8" d="M 417.5,61.5 C 417.5,65.8333 417.5,70.1667 417.5,74.5C 416.517,70.7016 416.183,66.7016 416.5,62.5C 413.763,62.4013 411.096,62.7347 408.5,63.5C 408.611,62.8826 408.944,62.3826 409.5,62C 412.146,61.5026 414.813,61.3359 417.5,61.5 Z"/></g>
<g><path style="opacity:0.208" fill="#fcdacb" d="M 662.5,62.5 C 662.573,64.0269 661.906,65.0269 660.5,65.5C 660.427,63.9731 661.094,62.9731 662.5,62.5 Z"/></g>
<g><path style="opacity:0.251" fill="#fbdaca" d="M 896.5,63.5 C 889.649,64.5831 882.649,65.5831 875.5,66.5C 882.155,64.021 889.155,63.021 896.5,63.5 Z"/></g>
<g><path style="opacity:0.461" fill="#f8c0a6" d="M 1379.5,65.5 C 1373.81,65.5324 1368.14,65.8658 1362.5,66.5C 1365.72,65.0458 1369.22,64.3791 1373,64.5C 1375.36,64.5039 1377.53,64.8373 1379.5,65.5 Z"/></g>
<g><path style="opacity:0.042" fill="#fdede6" d="M 256.5,66.5 C 246.801,66.2747 237.134,66.608 227.5,67.5C 228.263,66.7321 229.263,66.2321 230.5,66C 239.343,65.1764 248.01,65.3431 256.5,66.5 Z"/></g>
<g><path style="opacity:0.088" fill="#fbe5da" d="M 1013.5,23.5 C 1014.5,37.3234 1014.83,51.3234 1014.5,65.5C 1043.5,65.5 1072.5,65.5 1101.5,65.5C 1072.34,66.4981 1043,66.8314 1013.5,66.5C 1013.5,52.1667 1013.5,37.8333 1013.5,23.5 Z"/></g>
<g><path style="opacity:0.882" fill="#f7bc96" d="M 389.5,62.5 C 390.084,65.285 389.084,66.9517 386.5,67.5C 386.75,65.326 387.75,63.6594 389.5,62.5 Z"/></g>
<g><path style="opacity:0.016" fill="#fde8df" d="M 729.5,65.5 C 723.325,66.3393 716.992,67.0059 710.5,67.5C 711.263,66.7321 712.263,66.2321 713.5,66C 718.823,65.5006 724.156,65.334 729.5,65.5 Z"/></g>
<g><path style="opacity:0.89" fill="#f9b89a" d="M 1392.5,67.5 C 1394.7,67.1201 1396.36,67.7868 1397.5,69.5C 1395.6,69.2041 1393.93,68.5375 1392.5,67.5 Z"/></g>
<g><path style="opacity:0.788" fill="#fac2a9" d="M 591.5,67.5 C 592.738,69.2143 593.405,71.2143 593.5,73.5C 591.926,71.8984 591.259,69.8984 591.5,67.5 Z"/></g>
<g><path style="opacity:0.349" fill="#faceba" d="M 1398.5,69.5 C 1400.03,69.427 1401.03,70.0937 1401.5,71.5C 1399.97,71.573 1398.97,70.9063 1398.5,69.5 Z"/></g>
<g><path style="opacity:0.875" fill="#f8b698" d="M 1444.5,67.5 C 1445.54,68.9303 1446.2,70.597 1446.5,72.5C 1444.79,71.3646 1444.12,69.698 1444.5,67.5 Z"/></g>
<g><path style="opacity:0.863" fill="#fac0a5" d="M 177.5,68.5 C 177.88,70.698 177.213,72.3646 175.5,73.5C 175.796,71.597 176.463,69.9303 177.5,68.5 Z"/></g>
<g><path style="opacity:0.471" fill="#faccb7" d="M 473.5,58.5 C 471.269,67.0737 470.936,75.7403 472.5,84.5C 471.003,80.7773 470.337,76.7773 470.5,72.5C 470.667,69.8333 470.833,67.1667 471,64.5C 471.24,62.1484 472.073,60.1484 473.5,58.5 Z"/></g>
<g><path style="opacity:0.608" fill="#fcd3c2" d="M 753.5,72.5 C 756.5,73.5 758.5,75.5 759.5,78.5C 757.167,76.8333 755.167,74.8333 753.5,72.5 Z"/></g>
<g><path style="opacity:0.871" fill="#f9ba9d" d="M 313.5,70.5 C 314.537,71.9303 315.204,73.597 315.5,75.5C 313.787,74.3646 313.12,72.698 313.5,70.5 Z"/></g>
<g><path style="opacity:0.601" fill="#f8c9ac" d="M 457.5,34.5 C 458.493,42.6499 458.826,50.9832 458.5,59.5C 458.5,64.8333 458.5,70.1667 458.5,75.5C 444.656,75.829 430.99,75.4957 417.5,74.5C 417.5,70.1667 417.5,65.8333 417.5,61.5C 418.483,65.2984 418.817,69.2984 418.5,73.5C 431.167,73.5 443.833,73.5 456.5,73.5C 457.495,60.6774 457.829,47.6774 457.5,34.5 Z"/></g>
<g><path style="opacity:0.776" fill="#fac3aa" d="M 795.5,71.5 C 796.738,73.2143 797.405,75.2143 797.5,77.5C 795.926,75.8984 795.259,73.8984 795.5,71.5 Z"/></g>
<g><path style="opacity:0.004" fill="#fde9df" d="M 860.5,73.5 C 860.027,74.9063 859.027,75.573 857.5,75.5C 857.973,74.0937 858.973,73.427 860.5,73.5 Z"/></g>
<g><path style="opacity:0.733" fill="#fbc4ac" d="M 1405.5,74.5 C 1407.5,74.5 1408.5,75.5 1408.5,77.5C 1407.17,76.8333 1406.17,75.8333 1405.5,74.5 Z"/></g>
<g><path style="opacity:0.341" fill="#facdb9" d="M 119.5,61.5 C 120.887,63.8766 121.721,66.5432 122,69.5C 122.167,73.3333 122.333,77.1667 122.5,81C 122.719,86.4324 122.052,91.5991 120.5,96.5C 121.978,84.7796 121.645,73.113 119.5,61.5 Z"/></g>
<g><path style="opacity:0.976" fill="#fab595" d="M 276.5,76.5 C 278.446,77.0347 279.446,78.368 279.5,80.5C 278.026,79.5637 277.026,78.2303 276.5,76.5 Z"/></g>
<g><path style="opacity:0.718" fill="#f9c5ad" d="M 1446.5,73.5 C 1448.04,75.8383 1448.71,78.5049 1448.5,81.5C 1447.23,79.0948 1446.57,76.4282 1446.5,73.5 Z"/></g>
<g><path style="opacity:0.902" fill="#fabea3" d="M 175.5,74.5 C 175.074,78.4268 174.074,82.0935 172.5,85.5C 172.432,81.4296 173.432,77.763 175.5,74.5 Z"/></g>
<g><path style="opacity:0.561" fill="#fcd5c3" d="M 506.5,77.5 C 507.833,78.1667 508.833,79.1667 509.5,80.5C 507.5,80.5 506.5,79.5 506.5,77.5 Z"/></g>
<g><path style="opacity:0.667" fill="#facdb8" d="M 656.5,75.5 C 656.102,79.7607 655.102,83.7607 653.5,87.5C 653.584,83.1629 654.584,79.1629 656.5,75.5 Z"/></g>
<g><path style="opacity:0.369" fill="#f9d8c8" d="M 559.5,76.5 C 560.404,77.209 560.737,78.209 560.5,79.5C 566.5,79.5 572.5,79.5 578.5,79.5C 578.5,79.8333 578.5,80.1667 578.5,80.5C 572.167,80.5 565.833,80.5 559.5,80.5C 559.5,79.1667 559.5,77.8333 559.5,76.5 Z"/></g>
<g><path style="opacity:0.486" fill="#f7ba9d" d="M 593.5,74.5 C 594.306,75.9972 594.972,77.6639 595.5,79.5C 589.872,80.4954 584.206,80.8288 578.5,80.5C 578.5,80.1667 578.5,79.8333 578.5,79.5C 583.493,79.0843 588.493,78.7509 593.5,78.5C 593.5,77.1667 593.5,75.8333 593.5,74.5 Z"/></g>
<g><path style="opacity:0.035" fill="#fef7f5" d="M 759.5,78.5 C 760.167,78.5 760.5,78.8333 760.5,79.5C 758.052,80.4731 755.385,80.8064 752.5,80.5C 754.833,79.8333 757.167,79.1667 759.5,78.5 Z"/></g>
<g><path style="opacity:0.322" fill="#f9cdba" d="M 693.5,78.5 C 695.292,79.3091 697.292,79.8091 699.5,80C 717.164,80.4999 734.83,80.6666 752.5,80.5C 755.385,80.8064 758.052,80.4731 760.5,79.5C 761.043,79.56 761.376,79.8933 761.5,80.5C 738.167,81.8333 714.833,81.8333 691.5,80.5C 691.855,79.4777 692.522,78.811 693.5,78.5 Z"/></g>
<g><path style="opacity:0.363" fill="#fadecd" d="M 401.5,69.5 C 400.774,72.1794 399.941,74.846 399,77.5C 398.831,93.6719 398.331,109.672 397.5,125.5C 397.333,108.83 397.5,92.1633 398,75.5C 398.006,72.7356 399.172,70.7356 401.5,69.5 Z"/></g>
<g><path style="opacity:0.929" fill="#fab393" d="M 509.5,80.5 C 510.71,80.9321 511.71,81.5987 512.5,82.5C 510.821,82.7148 509.821,82.0481 509.5,80.5 Z"/></g>
<g><path style="opacity:0.004" fill="#fdfefd" d="M 591.5,81.5 C 592.833,82.1667 592.833,82.1667 591.5,81.5 Z"/></g>
<g><path style="opacity:0.639" fill="#fac6ae" d="M 512.5,82.5 C 515.689,82.8583 518.689,83.525 521.5,84.5C 518.123,84.9321 515.123,84.2655 512.5,82.5 Z"/></g>
<g><path style="opacity:0.42" fill="#faceba" d="M 539.5,87.5 C 543.733,87.5387 547.733,88.2053 551.5,89.5C 547.21,89.8023 543.21,89.1357 539.5,87.5 Z"/></g>
<g><path style="opacity:0.188" fill="#fbded1" d="M 1338.5,87.5 C 1338.32,90.7273 1337.66,93.7273 1336.5,96.5C 1336.22,93.1709 1336.88,90.1709 1338.5,87.5 Z"/></g>
<g><path style="opacity:0.334" fill="#fadacc" d="M 642.5,166.5 C 642.5,122.833 642.5,79.1667 642.5,35.5C 631.5,35.5 620.5,35.5 609.5,35.5C 609.5,79.1667 609.5,122.833 609.5,166.5C 618.167,166.5 626.833,166.5 635.5,166.5C 626.682,167.493 617.682,167.827 608.5,167.5C 608.5,123.167 608.5,78.8333 608.5,34.5C 620.167,34.5 631.833,34.5 643.5,34.5C 643.832,78.6698 643.499,122.67 642.5,166.5 Z"/></g>
<g><path style="opacity:1" fill="#ee763f" d="M 642.5,166.5 C 640.167,166.5 637.833,166.5 635.5,166.5C 626.833,166.5 618.167,166.5 609.5,166.5C 609.5,122.833 609.5,79.1667 609.5,35.5C 620.5,35.5 631.5,35.5 642.5,35.5C 642.5,79.1667 642.5,122.833 642.5,166.5 Z"/></g>
<g><path style="opacity:0.596" fill="#f5ba9e" d="M 1137.5,-0.5 C 1137.83,-0.5 1138.17,-0.5 1138.5,-0.5C 1138.5,55.1667 1138.5,110.833 1138.5,166.5C 1126.17,166.5 1113.83,166.5 1101.5,166.5C 1101.5,143.5 1101.5,120.5 1101.5,97.5C 1102.5,119.994 1102.83,142.661 1102.5,165.5C 1114.17,165.5 1125.83,165.5 1137.5,165.5C 1137.5,110.167 1137.5,54.8333 1137.5,-0.5 Z"/></g>
<g><path style="opacity:0.729" fill="#fac0a5" d="M 482.5,99.5 C 484.027,99.427 485.027,100.094 485.5,101.5C 483.973,101.573 482.973,100.906 482.5,99.5 Z"/></g>
<g><path style="opacity:0.418" fill="#f8bca1" d="M 206.5,89.5 C 205.866,95.1448 205.532,100.811 205.5,106.5C 204.837,104.527 204.504,102.361 204.5,100C 204.379,96.2178 205.046,92.7178 206.5,89.5 Z"/></g>
<g><path style="opacity:0.286" fill="#fad2c0" d="M 282.5,86.5 C 283.776,88.5625 284.61,90.8958 285,93.5C 285.815,98.3522 285.648,103.019 284.5,107.5C 284.749,100.396 284.082,93.3964 282.5,86.5 Z"/></g>
<g><path style="opacity:0.671" fill="#f9c2a9" d="M 653.5,88.5 C 653.5,96.5 653.5,104.5 653.5,112.5C 652.707,108.661 652.04,104.661 651.5,100.5C 652.04,96.3388 652.707,92.3388 653.5,88.5 Z"/></g>
<g><path style="opacity:0.643" fill="#f9bca0" d="M 485.5,101.5 C 487.404,101.738 488.738,102.738 489.5,104.5C 487.596,104.262 486.262,103.262 485.5,101.5 Z"/></g>
<g><path style="opacity:0.239" fill="#fad8c8" d="M 1414.5,87.5 C 1416.03,90.6952 1416.7,94.1952 1416.5,98C 1416.5,100.69 1416.16,103.19 1415.5,105.5C 1415.64,99.4638 1415.31,93.4638 1414.5,87.5 Z"/></g>
<g><path style="opacity:0.004" fill="#fcdcce" d="M 587.5,103.5 C 588.833,103.5 589.5,104.167 589.5,105.5C 588.5,105.167 587.833,104.5 587.5,103.5 Z"/></g>
<g><path style="opacity:0.619" fill="#f3a985" d="M 713.5,105.5 C 704.833,106.167 696.167,106.833 687.5,107.5C 687.5,107.833 687.5,108.167 687.5,108.5C 686.596,107.791 686.263,106.791 686.5,105.5C 695.5,105.5 704.5,105.5 713.5,105.5 Z"/></g>
<g><path style="opacity:0.173" fill="#fbe3d7" d="M 799.5,87.5 C 800.49,93.6446 800.823,99.9779 800.5,106.5C 762.554,106.523 724.887,106.856 687.5,107.5C 696.167,106.833 704.833,106.167 713.5,105.5C 742.167,105.5 770.833,105.5 799.5,105.5C 799.5,99.5 799.5,93.5 799.5,87.5 Z"/></g>
<g><path style="opacity:0.692" fill="#f8cbae" d="M 386.5,67.5 C 386.477,69.9267 385.977,72.26 385,74.5C 384.49,92.1687 383.99,109.835 383.5,127.5C 383.167,127.5 382.833,127.5 382.5,127.5C 382.971,109.501 383.471,91.5014 384,73.5C 384.566,71.2774 385.4,69.2774 386.5,67.5 Z"/></g>
<g><path style="opacity:0.922" fill="#f8b191" d="M 495.5,107.5 C 497.698,107.12 499.365,107.787 500.5,109.5C 498.597,109.204 496.93,108.537 495.5,107.5 Z"/></g>
<g><path style="opacity:0.612" fill="#f9c0a6" d="M 591.5,107.5 C 593.262,108.262 594.262,109.596 594.5,111.5C 592.738,110.738 591.738,109.404 591.5,107.5 Z"/></g>
<g><path style="opacity:0.592" fill="#f9c5ad" d="M 501.5,109.5 C 504.428,109.565 507.095,110.232 509.5,111.5C 506.505,111.706 503.838,111.04 501.5,109.5 Z"/></g>
<g><path style="opacity:0.347" fill="#fbe1d5" d="M 1100.5,97.5 C 1072,98.498 1043.34,98.8313 1014.5,98.5C 1014.83,119.34 1014.5,140.007 1013.5,160.5C 1013.5,150.167 1013.5,139.833 1013.5,129.5C 1013.5,118.833 1013.5,108.167 1013.5,97.5C 1042.5,97.5 1071.5,97.5 1100.5,97.5 Z"/></g>
<g><path style="opacity:0.894" fill="#f8b190" d="M 206.5,112.5 C 207.537,113.93 208.204,115.597 208.5,117.5C 206.787,116.365 206.12,114.698 206.5,112.5 Z"/></g>
<g><path style="opacity:0.227" fill="#fbd3c0" d="M 653.5,112.5 C 654.944,117.693 656.277,123.027 657.5,128.5C 654.787,123.631 653.454,118.298 653.5,112.5 Z"/></g>
<g><path style="opacity:0.886" fill="#f9b596" d="M 688.5,113.5 C 689.537,114.93 690.204,116.597 690.5,118.5C 688.787,117.365 688.12,115.698 688.5,113.5 Z"/></g>
<g><path style="opacity:0.816" fill="#fac0a5" d="M 1255.5,113.5 C 1255.88,115.698 1255.21,117.365 1253.5,118.5C 1253.8,116.597 1254.46,114.93 1255.5,113.5 Z"/></g>
<g><path style="opacity:0.588" fill="#fac2aa" d="M 114.5,115.5 C 114.262,117.404 113.262,118.738 111.5,119.5C 111.738,117.596 112.738,116.262 114.5,115.5 Z"/></g>
<g><path style="opacity:0.185" fill="#fbe4d9" d="M 768.5,119.5 C 778.319,118.506 788.319,118.173 798.5,118.5C 798.768,120.099 798.434,121.432 797.5,122.5C 797.5,121.5 797.5,120.5 797.5,119.5C 787.833,119.5 778.167,119.5 768.5,119.5 Z"/></g>
<g><path style="opacity:0.953" fill="#f28d5f" d="M -0.5,-0.5 C 0.166667,-0.5 0.833333,-0.5 1.5,-0.5C 1.5,54.8333 1.5,110.167 1.5,165.5C 0.501274,121.336 0.167941,77.0031 0.5,32.5C 0.814971,28.6286 0.481638,24.9619 -0.5,21.5C -0.5,14.1667 -0.5,6.83333 -0.5,-0.5 Z"/></g>
<g><path style="opacity:0.053" fill="#fdeee7" d="M 491.5,121.5 C 482.651,121.174 473.984,121.507 465.5,122.5C 465.833,125.833 466.167,129.167 466.5,132.5C 465.24,129.162 464.24,125.662 463.5,122C 463.833,121.667 464.167,121.333 464.5,121C 473.676,120.176 482.676,120.343 491.5,121.5 Z"/></g>
<g><path style="opacity:0.357" fill="#facfbb" d="M 1340.5,118.5 C 1341.91,118.973 1342.57,119.973 1342.5,121.5C 1341.09,121.027 1340.43,120.027 1340.5,118.5 Z"/></g>
<g><path style="opacity:0.376" fill="#fbceba" d="M 209.5,119.5 C 210.906,119.973 211.573,120.973 211.5,122.5C 210.094,122.027 209.427,121.027 209.5,119.5 Z"/></g>
<g><path style="opacity:0.801" fill="#f39a71" d="M 465.5,122.5 C 473.984,121.507 482.651,121.174 491.5,121.5C 495.012,120.945 498.012,121.612 500.5,123.5C 488.914,122.522 477.247,122.189 465.5,122.5 Z"/></g>
<g><path style="opacity:0.561" fill="#fbccb6" d="M 556.5,120.5 C 558.833,120.833 560.167,122.167 560.5,124.5C 558.833,123.5 557.5,122.167 556.5,120.5 Z"/></g>
<g><path style="opacity:0.659" fill="#fac7b0" d="M 596.5,115.5 C 599.508,121.609 600.174,127.942 598.5,134.5C 598.768,128.044 598.101,121.711 596.5,115.5 Z"/></g>
<g><path style="opacity:0.553" fill="#fabea4" d="M 280.5,120.5 C 280.573,122.027 279.906,123.027 278.5,123.5C 278.427,121.973 279.094,120.973 280.5,120.5 Z"/></g>
<g><path style="opacity:0.369" fill="#fad0be" d="M 691.5,120.5 C 692.906,120.973 693.573,121.973 693.5,123.5C 692.094,123.027 691.427,122.027 691.5,120.5 Z"/></g>
<g><path style="opacity:0.094" fill="#fbdacb" d="M 1151.5,119.5 C 1152.94,122.937 1153.94,126.603 1154.5,130.5C 1152.43,127.237 1151.43,123.57 1151.5,119.5 Z"/></g>
<g><path style="opacity:0.82" fill="#fbc0a5" d="M 211.5,122.5 C 213.5,123.833 215.167,125.5 216.5,127.5C 213.833,126.833 212.167,125.167 211.5,122.5 Z"/></g>
<g><path style="opacity:0.357" fill="#fad2c0" d="M 1188.5,121.5 C 1189.91,121.973 1190.57,122.973 1190.5,124.5C 1189.09,124.027 1188.43,123.027 1188.5,121.5 Z"/></g>
<g><path style="opacity:0.396" fill="#fad0bd" d="M 1342.5,121.5 C 1343.91,121.973 1344.57,122.973 1344.5,124.5C 1343.09,124.027 1342.43,123.027 1342.5,121.5 Z"/></g>
<g><path style="opacity:0.506" fill="#f9c4ab" d="M 1410.5,121.5 C 1410.57,123.027 1409.91,124.027 1408.5,124.5C 1408.43,122.973 1409.09,121.973 1410.5,121.5 Z"/></g>
<g><path style="opacity:0.714" fill="#f8bca1" d="M 107.5,123.5 C 107.027,124.906 106.027,125.573 104.5,125.5C 104.973,124.094 105.973,123.427 107.5,123.5 Z"/></g>
<g><path style="opacity:0.004" fill="#fce7dd" d="M 173.5,121.5 C 174.738,123.214 175.405,125.214 175.5,127.5C 173.926,125.898 173.259,123.898 173.5,121.5 Z"/></g>
<g><path style="opacity:0.373" fill="#fad2c0" d="M 1251.5,122.5 C 1251.57,124.027 1250.91,125.027 1249.5,125.5C 1249.43,123.973 1250.09,122.973 1251.5,122.5 Z"/></g>
<g><path style="opacity:0.012" fill="#fbe3d9" d="M 1448.5,121.5 C 1448.59,124.152 1447.92,126.485 1446.5,128.5C 1446.41,125.848 1447.08,123.515 1448.5,121.5 Z"/></g>
<g><path style="opacity:0.831" fill="#fabca0" d="M 1344.5,124.5 C 1345.83,125.167 1346.83,126.167 1347.5,127.5C 1345.5,127.5 1344.5,126.5 1344.5,124.5 Z"/></g>
<g><path style="opacity:0.675" fill="#f9b698" d="M 760.5,122.5 C 759.167,125.833 756.833,128.167 753.5,129.5C 755.5,126.833 757.833,124.5 760.5,122.5 Z"/></g>
<g><path style="opacity:0.329" fill="#fbd4c3" d="M 316.5,118.5 C 316.568,122.57 315.568,126.237 313.5,129.5C 314.055,125.603 315.055,121.937 316.5,118.5 Z"/></g>
<g><path style="opacity:0.004" fill="#fde0d4" d="M 217.5,128.5 C 219.027,128.427 220.027,129.094 220.5,130.5C 218.973,130.573 217.973,129.906 217.5,128.5 Z"/></g>
<g><path style="opacity:0.663" fill="#fac2a9" d="M 274.5,127.5 C 274.027,128.906 273.027,129.573 271.5,129.5C 271.973,128.094 272.973,127.427 274.5,127.5 Z"/></g>
<g><path style="opacity:0.965" fill="#faaf8d" d="M 1347.5,127.5 C 1348.71,127.932 1349.71,128.599 1350.5,129.5C 1348.82,129.715 1347.82,129.048 1347.5,127.5 Z"/></g>
<g><path style="opacity:0.565" fill="#f9c4ab" d="M 1405.5,127.5 C 1404.74,129.262 1403.4,130.262 1401.5,130.5C 1402.26,128.738 1403.6,127.738 1405.5,127.5 Z"/></g>
<g><path style="opacity:0.012" fill="#fbe4d6" d="M 397.5,126.5 C 397.59,129.152 396.924,131.485 395.5,133.5C 395.41,130.848 396.076,128.515 397.5,126.5 Z"/></g>
<g><path style="opacity:0.627" fill="#fbc0a6" d="M 697.5,127.5 C 699.23,128.026 700.564,129.026 701.5,130.5C 699.368,130.446 698.035,129.446 697.5,127.5 Z"/></g>
<g><path style="opacity:0.271" fill="#f8d0be" d="M 845.5,94.5 C 844.872,118.647 844.206,142.647 843.5,166.5C 843.5,166.167 843.5,165.833 843.5,165.5C 843.333,142.831 843.5,120.164 844,97.5C 844.232,96.2625 844.732,95.2625 845.5,94.5 Z"/></g>
<g><path style="opacity:0.957" fill="#fab494" d="M 1194.5,128.5 C 1196.23,129.026 1197.56,130.026 1198.5,131.5C 1196.37,131.446 1195.03,130.446 1194.5,128.5 Z"/></g>
<g><path style="opacity:0.776" fill="#f9bda2" d="M 100.5,127.5 C 99.653,128.966 98.3197,129.8 96.5,130C 92.9137,131.108 89.247,131.608 85.5,131.5C 90.4325,130.348 95.4325,129.015 100.5,127.5 Z"/></g>
<g><path style="opacity:0.741" fill="#f8b99c" d="M 1245.5,129.5 C 1245.03,130.906 1244.03,131.573 1242.5,131.5C 1242.97,130.094 1243.97,129.427 1245.5,129.5 Z"/></g>
<g><path style="opacity:0.922" fill="#f7bd98" d="M 382.5,127.5 C 382.833,127.5 383.167,127.5 383.5,127.5C 383.408,129.848 382.408,131.514 380.5,132.5C 380.893,130.716 381.559,129.05 382.5,127.5 Z"/></g>
<g><path style="opacity:0.271" fill="#fbd7c7" d="M 795.5,128.5 C 795.598,130.553 794.931,132.22 793.5,133.5C 793.402,131.447 794.069,129.78 795.5,128.5 Z"/></g>
<g><path style="opacity:0.906" fill="#f9b596" d="M 1242.5,131.5 C 1241.36,133.213 1239.7,133.88 1237.5,133.5C 1238.93,132.463 1240.6,131.796 1242.5,131.5 Z"/></g>
<g><path style="opacity:0.047" fill="#fcdcce" d="M 226.5,133.5 C 229.781,133.42 232.781,134.087 235.5,135.5C 232.219,135.58 229.219,134.913 226.5,133.5 Z"/></g>
<g><path style="opacity:0.714" fill="#fbc8b1" d="M 265.5,132.5 C 263.898,134.074 261.898,134.741 259.5,134.5C 261.214,133.262 263.214,132.595 265.5,132.5 Z"/></g>
<g><path style="opacity:0.42" fill="#fbd4c3" d="M 705.5,132.5 C 709.397,133.055 713.063,134.055 716.5,135.5C 712.43,135.568 708.763,134.568 705.5,132.5 Z"/></g>
<g><path style="opacity:0.718" fill="#fbcab3" d="M 747.5,132.5 C 745.562,134.163 743.228,134.829 740.5,134.5C 742.599,133.388 744.933,132.721 747.5,132.5 Z"/></g>
<g><path style="opacity:0.635" fill="#f8c4a3" d="M 380.5,132.5 C 379.5,135.5 377.5,137.5 374.5,138.5C 376.167,136.167 378.167,134.167 380.5,132.5 Z"/></g>
<g><path style="opacity:0.137" fill="#fcdacc" d="M 1155.5,133.5 C 1157.01,135.181 1158.01,137.181 1158.5,139.5C 1156.46,138.089 1155.46,136.089 1155.5,133.5 Z"/></g>
<g><path style="opacity:0.153" fill="#fbded1" d="M 1203.5,133.5 C 1206.43,133.565 1209.09,134.232 1211.5,135.5C 1208.5,135.706 1205.84,135.04 1203.5,133.5 Z"/></g>
<g><path style="opacity:0.647" fill="#fac3aa" d="M 1399.5,131.5 C 1395.73,134.2 1391.4,135.534 1386.5,135.5C 1390.69,134.031 1395.02,132.698 1399.5,131.5 Z"/></g>
<g><path style="opacity:0.906" fill="#fabca0" d="M 259.5,134.5 C 258.737,135.268 257.737,135.768 256.5,136C 249.321,136.821 242.321,136.655 235.5,135.5C 243.534,135.698 251.534,135.365 259.5,134.5 Z"/></g>
<g><path style="opacity:0.761" fill="#f9b799" d="M 560.5,133.5 C 560.5,135.5 559.5,136.5 557.5,136.5C 558.167,135.167 559.167,134.167 560.5,133.5 Z"/></g>
<g><path style="opacity:0.075" fill="#fbddd0" d="M 1361.5,134.5 C 1369.13,135.358 1376.8,135.691 1384.5,135.5C 1378.01,136.654 1371.35,136.821 1364.5,136C 1363.26,135.768 1362.26,135.268 1361.5,134.5 Z"/></g>
<g><path style="opacity:0.82" fill="#f9bfa3" d="M 556.5,136.5 C 555.365,138.213 553.698,138.88 551.5,138.5C 552.93,137.463 554.597,136.796 556.5,136.5 Z"/></g>
<g><path style="opacity:0.31" fill="#fbd4c2" d="M 513.5,137.5 C 517.078,137.549 520.411,138.215 523.5,139.5C 519.84,139.841 516.507,139.175 513.5,137.5 Z"/></g>
<g><path style="opacity:0.242" fill="#fbe7da" d="M 374.5,138.5 C 374.389,139.117 374.056,139.617 373.5,140C 370.243,141.043 366.91,141.543 363.5,141.5C 363.5,137.167 363.5,132.833 363.5,128.5C 351.5,128.5 339.5,128.5 327.5,128.5C 326.167,128.5 324.833,128.5 323.5,128.5C 323.171,142.01 323.504,155.344 324.5,168.5C 337.5,168.5 350.5,168.5 363.5,168.5C 363.5,165.167 363.5,161.833 363.5,158.5C 363.759,154.932 365.759,153.599 369.5,154.5C 368.22,155.931 366.553,156.598 364.5,156.5C 364.5,160.833 364.5,165.167 364.5,169.5C 350.5,169.5 336.5,169.5 322.5,169.5C 322.5,155.5 322.5,141.5 322.5,127.5C 336.5,127.5 350.5,127.5 364.5,127.5C 364.927,131.824 365.261,136.158 365.5,140.5C 368.539,139.99 371.539,139.323 374.5,138.5 Z"/></g>
<g><path style="opacity:0.004" fill="#fde6db" d="M 662.5,139.5 C 663.906,139.973 664.573,140.973 664.5,142.5C 663.094,142.027 662.427,141.027 662.5,139.5 Z"/></g>
<g><path style="opacity:0.004" fill="#fbe3d7" d="M 138.5,141.5 C 138.573,143.027 137.906,144.027 136.5,144.5C 136.427,142.973 137.094,141.973 138.5,141.5 Z"/></g>
<g><path style="opacity:0.608" fill="#fbc3a9" d="M 664.5,142.5 C 666.446,143.035 667.446,144.368 667.5,146.5C 666.026,145.564 665.026,144.23 664.5,142.5 Z"/></g>
<g><path style="opacity:0.004" fill="#fce1d4" d="M 305.5,144.5 C 305.573,146.027 304.906,147.027 303.5,147.5C 303.427,145.973 304.094,144.973 305.5,144.5 Z"/></g>
<g><path style="opacity:0.008" fill="#fcdfd2" d="M 786.5,144.5 C 786.573,146.027 785.906,147.027 784.5,147.5C 784.427,145.973 785.094,144.973 786.5,144.5 Z"/></g>
<g><path style="opacity:0.659" fill="#f3b38a" d="M 327.5,128.5 C 326.791,129.404 325.791,129.737 324.5,129.5C 324.5,142.167 324.5,154.833 324.5,167.5C 324.5,167.833 324.5,168.167 324.5,168.5C 323.504,155.344 323.171,142.01 323.5,128.5C 324.833,128.5 326.167,128.5 327.5,128.5 Z"/></g>
<g><path style="opacity:0.855" fill="#fabda2" d="M 671.5,150.5 C 673.749,151.08 675.415,152.413 676.5,154.5C 674.251,153.92 672.585,152.587 671.5,150.5 Z"/></g>
<g><path style="opacity:0.824" fill="#f9ba9d" d="M 192.5,152.5 C 194.404,152.738 195.738,153.738 196.5,155.5C 194.596,155.262 193.262,154.262 192.5,152.5 Z"/></g>
<g><path style="opacity:0.416" fill="#faceba" d="M 478.5,151.5 C 480.027,151.427 481.027,152.094 481.5,153.5C 479.973,153.573 478.973,152.906 478.5,151.5 Z"/></g>
<g><path style="opacity:0.647" fill="#fac7af" d="M 1169.5,153.5 C 1171.03,153.427 1172.03,154.094 1172.5,155.5C 1170.97,155.573 1169.97,154.906 1169.5,153.5 Z"/></g>
<g><path style="opacity:0.353" fill="#fad6c6" d="M 1343.5,158.5 C 1341.28,157.797 1339.45,156.464 1338,154.5C 1337.82,157.695 1337.32,160.695 1336.5,163.5C 1336.18,159.774 1336.51,156.107 1337.5,152.5C 1339.85,154.188 1341.85,156.188 1343.5,158.5 Z"/></g>
<g><path style="opacity:0.398" fill="#f9d5be" d="M 336.5,141.5 C 341.167,141.5 345.833,141.5 350.5,141.5C 350.5,146.167 350.5,150.833 350.5,155.5C 345.833,155.5 341.167,155.5 336.5,155.5C 336.5,150.833 336.5,146.167 336.5,141.5 Z M 337.5,142.5 C 337.5,146.167 337.5,149.833 337.5,153.5C 341.5,153.5 345.5,153.5 349.5,153.5C 349.5,149.833 349.5,146.167 349.5,142.5C 345.452,143.678 341.452,143.678 337.5,142.5 Z"/></g>
<g><path style="opacity:0.529" fill="#f9bfa4" d="M 481.5,153.5 C 483.027,153.427 484.027,154.094 484.5,155.5C 482.973,155.573 481.973,154.906 481.5,153.5 Z"/></g>
<g><path style="opacity:0.651" fill="#f9bca1" d="M 676.5,154.5 C 678.404,154.738 679.738,155.738 680.5,157.5C 678.596,157.262 677.262,156.262 676.5,154.5 Z"/></g>
<g><path style="opacity:0.918" fill="#f8b190" d="M 1172.5,155.5 C 1174.4,155.738 1175.74,156.738 1176.5,158.5C 1174.6,158.262 1173.26,157.262 1172.5,155.5 Z"/></g>
<g><path style="opacity:0.682" fill="#f8b89a" d="M 196.5,155.5 C 198.404,155.738 199.738,156.738 200.5,158.5C 198.596,158.262 197.262,157.262 196.5,155.5 Z"/></g>
<g><path style="opacity:0.475" fill="#f9c1a7" d="M 484.5,155.5 C 486.027,155.427 487.027,156.094 487.5,157.5C 485.973,157.573 484.973,156.906 484.5,155.5 Z"/></g>
<g><path style="opacity:0.902" fill="#f8b394" d="M 1343.5,158.5 C 1345.4,158.738 1346.74,159.738 1347.5,161.5C 1345.6,161.262 1344.26,160.262 1343.5,158.5 Z"/></g>
<g><path style="opacity:0.318" fill="#fbceba" d="M 489.5,158.5 C 491.027,158.427 492.027,159.094 492.5,160.5C 490.973,160.573 489.973,159.906 489.5,158.5 Z"/></g>
<g><path style="opacity:0.345" fill="#faceb9" d="M 682.5,158.5 C 684.027,158.427 685.027,159.094 685.5,160.5C 683.973,160.573 682.973,159.906 682.5,158.5 Z"/></g>
<g><path style="opacity:0.431" fill="#fac6af" d="M 1176.5,158.5 C 1178.03,158.427 1179.03,159.094 1179.5,160.5C 1177.97,160.573 1176.97,159.906 1176.5,158.5 Z"/></g>
<g><path style="opacity:0.141" fill="#fbdcce" d="M 111.5,159.5 C 110.22,160.931 108.553,161.598 106.5,161.5C 107.78,160.069 109.447,159.402 111.5,159.5 Z"/></g>
<g><path style="opacity:0.786" fill="#f08e61" d="M 1013.5,129.5 C 1013.5,139.833 1013.5,150.167 1013.5,160.5C 1013.5,162.5 1013.5,164.5 1013.5,166.5C 1011.17,166.5 1008.83,166.5 1006.5,166.5C 1004.83,166.5 1003.17,166.5 1001.5,166.5C 1004.96,165.518 1008.63,165.185 1012.5,165.5C 1012.17,153.322 1012.5,141.322 1013.5,129.5 Z"/></g>
<g><path style="opacity:0.067" fill="#fce3d8" d="M 1256.5,155.5 C 1256.5,157.833 1256.5,160.167 1256.5,162.5C 1255.83,159.833 1255.17,157.167 1254.5,154.5C 1254.37,153.624 1254.7,152.957 1255.5,152.5C 1256.39,153.325 1256.72,154.325 1256.5,155.5 Z"/></g>
<g><path style="opacity:0.902" fill="#f9b698" d="M 208.5,162.5 C 210.698,162.12 212.365,162.787 213.5,164.5C 211.597,164.204 209.93,163.537 208.5,162.5 Z"/></g>
<g><path style="opacity:0.878" fill="#f9b89a" d="M 689.5,162.5 C 691.698,162.12 693.365,162.787 694.5,164.5C 692.597,164.204 690.93,163.537 689.5,162.5 Z"/></g>
<g><path style="opacity:0.235" fill="#f9cfbd" d="M 102.5,162.5 C 98.167,164.502 93.5003,165.502 88.5,165.5C 92.942,164.01 97.6086,163.01 102.5,162.5 Z"/></g>
<g><path style="opacity:0.796" fill="#f9b697" d="M 497.5,162.5 C 500.855,162.69 503.855,163.69 506.5,165.5C 503.084,165.472 500.084,164.472 497.5,162.5 Z"/></g>
<g><path style="opacity:0.18" fill="#fbdaca" d="M 1183.5,162.5 C 1185.03,162.427 1186.03,163.094 1186.5,164.5C 1184.97,164.573 1183.97,163.906 1183.5,162.5 Z"/></g>
<g><path style="opacity:0.282" fill="#fad0bd" d="M 1349.5,162.5 C 1351.03,162.427 1352.03,163.094 1352.5,164.5C 1350.97,164.573 1349.97,163.906 1349.5,162.5 Z"/></g>
<g><path style="opacity:0.153" fill="#fadacb" d="M 1416.5,162.5 C 1415.22,163.931 1413.55,164.598 1411.5,164.5C 1412.78,163.069 1414.45,162.402 1416.5,162.5 Z"/></g>
<g><path style="opacity:0.761" fill="#fabfa4" d="M 694.5,164.5 C 697.781,164.42 700.781,165.087 703.5,166.5C 700.219,166.58 697.219,165.913 694.5,164.5 Z"/></g>
<g><path style="opacity:0.773" fill="#fac2a9" d="M 1187.5,164.5 C 1189.9,164.259 1191.9,164.926 1193.5,166.5C 1191.21,166.405 1189.21,165.738 1187.5,164.5 Z"/></g>
<g><path style="opacity:0.808" fill="#f9ba9e" d="M 1352.5,164.5 C 1355.15,164.41 1357.49,165.076 1359.5,166.5C 1356.85,166.59 1354.51,165.924 1352.5,164.5 Z"/></g>
<g><path style="opacity:0.557" fill="#f7c5ae" d="M -0.5,32.5 C -0.166667,32.5 0.166667,32.5 0.5,32.5C 0.167941,77.0031 0.501274,121.336 1.5,165.5C 30.1667,165.5 58.8333,165.5 87.5,165.5C 58.3381,166.498 29.0047,166.831 -0.5,166.5C -0.5,121.833 -0.5,77.1667 -0.5,32.5 Z"/></g>
<g><path style="opacity:0.594" fill="#f4ab89" d="M 1256.5,155.5 C 1257.48,158.625 1257.81,161.958 1257.5,165.5C 1268.17,165.5 1278.83,165.5 1289.5,165.5C 1289.5,165.833 1289.5,166.167 1289.5,166.5C 1278.5,166.5 1267.5,166.5 1256.5,166.5C 1256.5,165.167 1256.5,163.833 1256.5,162.5C 1256.5,160.167 1256.5,157.833 1256.5,155.5 Z"/></g>
<g><path style="opacity:0.498" fill="#f9c5ad" d="M 217.5,165.5 C 220.152,165.41 222.485,166.076 224.5,167.5C 221.848,167.59 219.515,166.924 217.5,165.5 Z"/></g>
<g><path style="opacity:0.243" fill="#fad4c2" d="M 268.5,166.5 C 265.124,168.082 261.458,168.749 257.5,168.5C 260.946,167.313 264.613,166.646 268.5,166.5 Z"/></g>
<g><path style="opacity:0.875" fill="#ef9b62" d="M 363.5,158.5 C 363.5,161.833 363.5,165.167 363.5,168.5C 350.5,168.5 337.5,168.5 324.5,168.5C 324.5,168.167 324.5,167.833 324.5,167.5C 337.167,167.5 349.833,167.5 362.5,167.5C 362.19,164.287 362.523,161.287 363.5,158.5 Z"/></g>
<g><path style="opacity:0.063" fill="#fbded1" d="M 558.5,166.5 C 555.781,167.913 552.781,168.58 549.5,168.5C 552.219,167.087 555.219,166.42 558.5,166.5 Z"/></g>
<g><path style="opacity:0.082" fill="#fcddd0" d="M 750.5,166.5 C 747.456,168.011 744.122,168.678 740.5,168.5C 743.544,166.989 746.878,166.322 750.5,166.5 Z"/></g>
<g><path style="opacity:0.408" fill="#fad3c1" d="M 1194.5,166.5 C 1197.43,166.565 1200.09,167.232 1202.5,168.5C 1199.5,168.706 1196.84,168.04 1194.5,166.5 Z"/></g>
<g><path style="opacity:0.004" fill="#fbddcf" d="M 1234.5,166.5 C 1231.8,167.963 1228.8,168.796 1225.5,169C 1218.32,169.821 1211.32,169.655 1204.5,168.5C 1214.57,168.777 1224.57,168.11 1234.5,166.5 Z"/></g>
<g><path style="opacity:0.063" fill="#fad7c7" d="M 1359.5,166.5 C 1374.15,169.02 1388.82,169.02 1403.5,166.5C 1396.32,168.834 1388.82,169.834 1381,169.5C 1377.17,169.333 1373.33,169.167 1369.5,169C 1365.87,168.851 1362.53,168.018 1359.5,166.5 Z"/></g>
</svg>
