<svg xmlns="http://www.w3.org/2000/svg" width="2548" height="302" style="shape-rendering:geometricPrecision;text-rendering:geometricPrecision;image-rendering:optimizeQuality;fill-rule:evenodd;clip-rule:evenodd"><path style="opacity:1" fill="#fefefe" d="M-.5-.5h3c-.997 97.596-1.33 195.263-1 293 47.334.167 94.668 0 142-.5 35.455-1.809 66.788-13.809 94-36 22.332-22.505 35.166-49.672 38.5-81.5 3.563-28.767 1.563-57.1-6-85-13.594-40.594-40.761-67.428-81.5-80.5-15.051-4.157-30.051-7.324-45-9.5h926c-.33 12.844 0 25.511 1 38h58v-38h589v294c20.58.327 41.08-.007 61.5-1 .17-40.238.67-80.404 1.5-120.5 51.33-.5 102.67-.667 154-.5v121h63V-.5h290v293c19.34.167 38.67 0 58-.5.82-8.088 1.32-16.255 1.5-24.5 14.06 17.117 32.23 26.45 54.5 28 4.77 1.389 9.77 2.056 15 2h18c4.55-.124 8.88-.791 13-2 55.76-5.925 87.92-36.591 96.5-92 9.59-104.409-37.91-152.575-142.5-144.5-22.24 2.035-40.41 11.535-54.5 28.5-.17-29.405-.67-58.739-1.5-88h202v302H-.5V-.5Z"/><path style="opacity:1" fill="#eed07f" d="M1069.5-.5h59v1h-58v37c-1-12.489-1.33-25.156-1-38Z"/><path style="opacity:1" fill="#ee763f" d="M2.5-.5h141c14.949 2.176 29.949 5.343 45 9.5 40.739 13.072 67.906 39.906 81.5 80.5 7.563 27.9 9.563 56.233 6 85-3.334 31.828-16.168 58.995-38.5 81.5-27.212 22.191-58.545 34.191-94 36-47.332.5-94.666.667-142 .5-.33-97.737.003-195.404 1-293Z"/><path style="opacity:1" fill="#e8bf4f" d="M1128.5.5v37h-58V.5h58Z"/><path style="opacity:1" fill="#ee763e" d="M1717.5-.5h61a6896.41 6896.41 0 0 1 1.5 117c25.6.664 51.26.998 77 1 25.74-.002 51.4-.336 77-1 .17-39.071.67-78.071 1.5-117h62v293h-63v-121c-51.33-.167-102.67 0-154 .5a7315.69 7315.69 0 0 0-1.5 120.5 953.858 953.858 0 0 1-61.5 1V-.5Z"/><path style="opacity:1" fill="#fffefd" d="M1778.5-.5h157a6896.41 6896.41 0 0 0-1.5 117c-25.6.664-51.26.998-77 1-25.74-.002-51.4-.336-77-1a6896.41 6896.41 0 0 0-1.5-117Z"/><path style="opacity:1" fill="#ee763e" d="M2287.5-.5h58c.83 29.262 1.33 58.595 1.5 88 14.09-16.965 32.26-26.465 54.5-28.5 104.59-8.075 152.09 40.091 142.5 144.5-8.58 55.409-40.74 86.075-96.5 92-4.62-.344-8.96.323-13 2h-18c-4.73-1.645-9.73-2.311-15-2-22.27-1.55-40.44-10.883-54.5-28-.18 8.245-.68 16.412-1.5 24.5-19.33.5-38.66.667-58 .5V-.5Zm-1873 59c29.018-2.204 57.018 1.962 84 12.5 36.132 18.388 56.299 47.887 60.5 88.5 4.711 91.797-39.122 137.797-131.5 138-27.152.237-52.486-6.263-76-19.5-29.1-19.673-45.266-47.173-48.5-82.5-4.331-32.276 1.836-62.276 18.5-90 14.051-19.035 32.384-32.201 55-39.5 12.637-3.361 25.304-5.861 38-7.5Zm990 128c-66.34-.333-132.67 0-199 1 .12.607.46.94 1 1 2.17 22.159 13.5 37.659 34 46.5 23.35 7.255 46.69 7.255 70 0 12.22-4.381 21.55-12.214 28-23.5 20.99-1 41.99-1.333 63-1-11.93 46.425-41.6 74.258-89 83.5-31.45 5.783-62.45 4.116-93-5-39.59-14.662-63.09-42.829-70.5-84.5-6.49-34.893-.83-67.56 17-98 19.34-25.963 45.17-41.13 77.5-45.5 34.8-6.133 68.47-2.466 101 11 36 18.383 55.83 47.883 59.5 88.5.5 8.66.67 17.327.5 26Z"/><path style="opacity:1" fill="#fefefe" d="M155.5 231.5c-3.54.253-6.873.919-10 2a1910.166 1910.166 0 0 1-81 1v-176c22.336-.167 44.669 0 67 .5 21.622-.62 41.289 5.046 59 17 12.972 12.441 20.805 27.608 23.5 45.5 2.939 21.96 1.606 43.626-4 65-8.626 26.452-26.793 41.452-54.5 45Z"/><path style="opacity:1" fill="#ee763e" d="M1043.5 138.5c-19.3 1.988-38.97 2.654-59 2-3.227-15.062-12.227-24.896-27-29.5-15.42-3.345-30.753-3.678-46-1-10.357 2.041-18.191 7.541-23.5 16.5-1.414 5.921.086 10.921 4.5 15 3.869 3.017 8.202 5.184 13 6.5a2347.596 2347.596 0 0 0 72 12c17.84 3.291 34.51 9.625 50 19 21.35 17.042 28.51 38.875 21.5 65.5-8.2 19.202-22.04 32.702-41.5 40.5-34.427 13.018-69.761 16.018-106 9-22.789-4.144-43.122-13.478-61-28-14.426-14.085-22.426-31.252-24-51.5 20.336-.167 40.669 0 61 .5 3.631 15.631 13.298 25.298 29 29 19.927 4.253 39.927 4.586 60 1a58.455 58.455 0 0 0 14-5c4.558-2.845 6.892-7.012 7-12.5-.677-8.197-5.01-13.697-13-16.5a135.67 135.67 0 0 1-10-3 1164.214 1164.214 0 0 1-80-14c-18.44-4.799-33.94-14.299-46.5-28.5-11.166-18.553-13.499-38.22-7-59 11.814-22.682 30.314-36.849 55.5-42.5a130.478 130.478 0 0 1 42.5-4.5c30.557-1.7 58.057 6.467 82.5 24.5 17.54 14.063 28.21 32.229 32 54.5Z"/><path style="opacity:1" fill="#f5bc98" d="M804.5 131.5a1225.06 1225.06 0 0 0-1-70h-69c.325 7.52-.008 14.852-1 22v-23h72a1260.36 1260.36 0 0 1-1 71Z"/><path style="opacity:1" fill="#ec8743" d="M803.5 61.5v69h-69c.325-7.519-.008-14.852-1-22-7.057-2.069-13.057-.403-18 5-.992-.172-1.658.162-2 1-4 2-7 5-9 9-.838.342-1.172 1.008-1 2-.997-.03-1.664.47-2 1.5a162.154 162.154 0 0 1-2.5 8.5c-.5 27.998-.667 55.998-.5 84-5.271 29.604-22.604 47.27-52 53-2.559-.302-4.893.032-7 1-.992 7.482-1.325 15.148-1 23h-69v-69a1190.252 1190.252 0 0 1 69-1c-.325 7.852.008 15.518 1 23 4.06.015 8.06-.485 12-1.5 2.153-.099 3.819-.933 5-2.5 5.007-3.343 9.34-7.343 13-12 1.745-1.533 2.745-3.533 3-6a42.47 42.47 0 0 1 1.5-5l1-86c.584-5.68 2.084-11.013 4.5-16 3.093-2.946 5.093-6.613 6-11 7.865-11.527 18.532-19.193 32-23 5.447-1.15 10.78-2.15 16-3 .992-7.148 1.325-14.48 1-22h69Z"/><path style="opacity:1" fill="#f4a683" d="M1070.5 62.5v230h58c-19.49.997-39.16 1.33-59 1-.33-77.168 0-154.168 1-231Z"/><path style="opacity:1" fill="#ee763e" d="M1480.5 62.5c-.17 13.338 0 26.67.5 40 .72-.544 1.22-1.211 1.5-2 13.5-19.616 32.17-31.45 56-35.5a357.079 357.079 0 0 1 55-2.5v50c-21.44-1.689-42.44.477-63 6.5-26.59 9.578-42.76 28.078-48.5 55.5-.5 39.332-.67 78.665-.5 118h-59v-230h58Z"/><path style="opacity:1" fill="#f3986f" d="M1480.5 62.5c.67 12.667 1.33 25.333 2 38-.28.789-.78 1.456-1.5 2-.5-13.33-.67-26.662-.5-40Z"/><path style="opacity:1" fill="#ee763e" d="M2206.5 292.5c.33-8.36 0-16.693-1-25-.61.124-.94.457-1 1-12.15 14.245-27.48 23.078-46 26.5-26.34 4.832-52.01 2.498-77-7-36.55-17.245-56.72-46.079-60.5-86.5-.5-46.332-.67-92.665-.5-139h59c-.17 44.668 0 89.335.5 134 3.63 20.977 15.8 34.477 36.5 40.5 15.17 3.871 30.51 4.538 46 2 22.72-4.72 36.88-18.22 42.5-40.5.5-45.332.67-90.665.5-136h59v230h-58Zm-1136-230h58v230h-58v-230Z"/><path style="opacity:1" fill="#fbe9dd" d="M757.5 84.5h23c.325 7.852-.008 15.518-1 23v-22h-21v22h-1v-23Z"/><path style="opacity:1" fill="#fffefe" d="M779.5 107.5h-21v-22h21v22Z"/><path style="opacity:1" fill="#f7c5a5" d="M757.5 84.5c7.816-.992 15.816-1.326 24-1v25c-8.184.326-16.184-.008-24-1h22c.992-7.482 1.325-15.148 1-23h-23Z"/><path style="opacity:1" fill="#f4b388" d="M733.5 108.5c-6.619-.346-12.619 1.321-18 5 4.943-5.403 10.943-7.069 18-5Z"/><path style="opacity:1" fill="#fffefe" d="M416.5 115.5c9.339-.166 18.673 0 28 .5 31.86 2.86 50.694 20.027 56.5 51.5 4.061 43.265-15.439 67.432-58.5 72.5-16.8 1.525-33.133-.475-49-6-22.81-11.93-33.81-30.93-33-57 1.057-36.556 19.723-57.056 56-61.5Z"/><path style="opacity:1" fill="#fffdfd" d="M1337.5 142.5c-41 1.333-82 1.333-123 0 5.72-9.38 13.72-16.214 24-20.5 11.67-4.917 23.83-7.083 36.5-6.5 18.52-1.497 35.35 3.003 50.5 13.5 4.58 4.074 8.58 8.574 12 13.5Z"/><path style="opacity:1" fill="#fefefe" d="M2399.5 115.5c18.52-1.731 36.52.436 54 6.5 22.87 11.21 33.87 29.71 33 55.5-1.82 39.983-22.82 60.817-63 62.5-22.26 2.771-42.26-2.562-60-16-15.54-17.633-21.04-38.133-16.5-61.5 4.14-18.471 14.64-31.971 31.5-40.5 6.9-2.914 13.9-5.081 21-6.5Z"/><path style="opacity:1" fill="#f3ab7c" d="M685.5 109.5c-.907 4.387-2.907 8.054-6 11 1.205-4.178 3.205-7.845 6-11Z"/><path style="opacity:1" fill="#f8cbaf" d="M713.5 114.5a57.51 57.51 0 0 1-9 9c2-4 5-7 9-9Z"/><path style="opacity:1" fill="#f0a36f" d="M803.5 61.5a1225.06 1225.06 0 0 1 1 70h-71v-23c.992 7.148 1.325 14.481 1 22h69v-69Z"/><path style="opacity:1" fill="#f2986d" d="M1043.5 138.5c.9.709 1.24 1.709 1 3-20.17.33-40.17-.003-60-1 20.03.654 39.7-.012 59-2Z"/><path style="opacity:1" fill="#f6b99d" d="M1214.5 142.5c41 1.333 82 1.333 123 0 .54.06.88.393 1 1a1954.113 1954.113 0 0 1-125 0c.12-.607.46-.94 1-1Z"/><path style="opacity:1" fill="#fadfd0" d="M703.5 125.5a107.557 107.557 0 0 0-3.5 14 3184.162 3184.162 0 0 1-1.5 80c-.167-28.002 0-56.002.5-84a162.154 162.154 0 0 0 2.5-8.5c.336-1.03 1.003-1.53 2-1.5Z"/><path style="opacity:1" fill="#fadccd" d="m1404.5 186.5-198 2c-.54-.06-.88-.393-1-1 66.33-1 132.66-1.333 199-1Z"/><path style="opacity:1" fill="#f7c8ab" d="M639.5 225.5v24c-.992-7.482-1.325-15.148-1-23-23.173-.331-46.173.002-69 1a1190.252 1190.252 0 0 0-1 69 818.961 818.961 0 0 1-.5-70 1287.614 1287.614 0 0 1 71.5-1Z"/><path style="opacity:1" fill="#fadfce" d="M639.5 225.5c.667 7.51 1.333 15.177 2 23a156.431 156.431 0 0 0 15-3c-1.181 1.567-2.847 2.401-5 2.5a47.208 47.208 0 0 1-12 1.5v-24Z"/><path style="opacity:1" fill="#f5a17a" d="M155.5 231.5c-.418.722-1.084 1.222-2 1.5a32.462 32.462 0 0 1-8 .5c3.127-1.081 6.46-1.747 10-2Z"/><path style="opacity:1" fill="#f4b185" d="M672.5 227.5c-.255 2.467-1.255 4.467-3 6 .255-2.467 1.255-4.467 3-6Z"/><path style="opacity:1" fill="#f7c6a7" d="M615.5 250.5h-23v22h23c-7.597 1.967-15.597 2.634-24 2v-25c8.184-.326 16.184.008 24 1Z"/><path style="opacity:1" fill="#fefdfd" d="M615.5 250.5v22h-23v-22h23Z"/><path style="opacity:1" fill="#f3996f" d="M2204.5 268.5c.06-.543.39-.876 1-1 1 8.307 1.33 16.64 1 25-.67-8-1.33-16-2-24Z"/><path style="opacity:1" fill="#f9ddca" d="M646.5 272.5c-1.49 1.78-3.49 2.446-6 2 .325 7.519-.008 14.852-1 22v-23c2.107-.968 4.441-1.302 7-1Z"/><path style="opacity:1" fill="#f9c3ab" d="M2447.5 295.5c-4.12 1.209-8.45 1.876-13 2 4.04-1.677 8.38-2.344 13-2Z"/><path style="opacity:1" fill="#f4b48a" d="M569.5 227.5v69h69c-.325-7.852.008-15.518 1-23v23a630.782 630.782 0 0 1-71 0c-.331-23.173.002-46.173 1-69Z"/><path style="opacity:1" fill="#f7b395" d="M2401.5 295.5c5.27-.311 10.27.355 15 2-5.23.056-10.23-.611-15-2Z"/></svg>